<?xml version="1.0" encoding="utf-8"?><svg xmlns="http://www.w3.org/2000/svg" xmlns:xlink="http://www.w3.org/1999/xlink" width="1059" height="674" preserveAspectRatio="xMidYMid" viewBox="0 0 1059 674" style="z-index:1;margin-right:-2px;display:block;animation-play-state:paused" ><g transform="translate(529.5,337) scale(1,1) translate(-529.5,-337)" style="transform:matrix(1, 0, 0, 1, 0, 0);animation-play-state:paused" ><defs style="animation-play-state:paused" ><filter id="blur-ehkod1gwsu4-1" x="-1" y="-1" width="3" height="3" style="animation-play-state:paused" ><feGaussianBlur stdDeviation="3" style="animation-play-state:paused" ></feGaussianBlur></filter>
<filter id="blur-ehkod1gwsu4-2" x="-1" y="-1" width="3" height="3" style="animation-play-state:paused" ><feGaussianBlur stdDeviation="1.5" style="animation-play-state:paused" ></feGaussianBlur></filter>
<filter id="blur-ehkod1gwsu4-3" x="-1" y="-1" width="3" height="3" style="animation-play-state:paused" ><feGaussianBlur stdDeviation="1" style="animation-play-state:paused" ></feGaussianBlur></filter></defs>
<circle cx="652.3476558489127" cy="0" transform="matrix(1,0,0,1,0,137.1298828125)" r="9.898488231836499" fill="#bbddff" opacity="0.63" style="transform:matrix(1, 0, 0, 1, 0, 137.13);opacity:0.63;animation-play-state:paused" ></circle>
<circle cx="143.23624721965842" cy="0" transform="matrix(1,0,0,1,0,123.307861328125)" r="15.000545098732369" fill="#ddeeff" opacity="0.7200000000000001" style="transform:matrix(1, 0, 0, 1, 0, 123.308);opacity:0.72;animation-play-state:paused" ></circle>
<circle cx="332.1235937741376" cy="0" transform="matrix(1,0,0,1,0,-5.65142822265625)" r="7.912304199203048" fill="#aabbcc" opacity="0.36000000000000004" style="transform:matrix(1, 0, 0, 1, 0, -5.65143);opacity:0.36;animation-play-state:paused" ></circle>
<circle cx="418.5016245028372" cy="0" transform="matrix(1,0,0,1,0,656.448974609375)" r="6.248957086422495" fill="#aabbcc" opacity="0.36000000000000004" style="transform:matrix(1, 0, 0, 1, 0, 656.449);opacity:0.36;animation-play-state:paused" ></circle>
<circle cx="761.2845368806513" cy="0" transform="matrix(1,0,0,1,0,524.4775390625)" r="8.055907171184788" fill="#ddeeff" opacity="0.63" style="transform:matrix(1, 0, 0, 1, 0, 524.478);opacity:0.63;animation-play-state:paused" ></circle>
<circle cx="373.0362089601479" cy="0" transform="matrix(1,0,0,1,0,464.46136474609375)" r="4.6102239075468665" fill="#ddeeff" opacity="0.36000000000000004" style="transform:matrix(1, 0, 0, 1, 0, 464.461);opacity:0.36;animation-play-state:paused" ></circle>
<circle cx="491.0023725639437" cy="0" transform="matrix(1,0,0,1,0,340.1602478027344)" r="15.47722880843846" fill="#aabbcc" opacity="0.7200000000000001" style="transform:matrix(1, 0, 0, 1, 0, 340.16);opacity:0.72;animation-play-state:paused" ></circle>
<circle cx="309.0431629872968" cy="0" transform="matrix(1,0,0,1,0,357.8848571777344)" r="8.028836286243006" fill="#aabbcc" opacity="0.63" style="transform:matrix(1, 0, 0, 1, 0, 357.885);opacity:0.63;animation-play-state:paused" ></circle>
<circle cx="1025.9576734044033" cy="0" transform="matrix(1,0,0,1,0,273.42437744140625)" r="10.279728874197485" fill="#bbddff" opacity="0.63" style="transform:matrix(1, 0, 0, 1, 0, 273.424);opacity:0.63;animation-play-state:paused" ></circle>
<circle cx="915.9462274082701" cy="0" transform="matrix(1,0,0,1,0,614.3143920898438)" r="12.62709058670496" fill="#ddeeff" opacity="0.7200000000000001" style="transform:matrix(1, 0, 0, 1, 0, 614.314);opacity:0.72;animation-play-state:paused" ></circle>
<circle cx="739.9046644597784" cy="0" transform="matrix(1,0,0,1,0,510.7415771484375)" r="14.430140970456263" fill="#bbddff" opacity="0.7200000000000001" style="transform:matrix(1, 0, 0, 1, 0, 510.742);opacity:0.72;animation-play-state:paused" ></circle>
<circle cx="230.7701279941016" cy="0" transform="matrix(1,0,0,1,0,417.7247619628906)" r="13.999532651533766" fill="#ddeeff" opacity="0.7200000000000001" style="transform:matrix(1, 0, 0, 1, 0, 417.725);opacity:0.72;animation-play-state:paused" ></circle>
<circle cx="60.558798082122486" cy="0" transform="matrix(1,0,0,1,0,627.3998413085938)" r="14.08503828669952" fill="#aabbcc" opacity="0.7200000000000001" style="transform:matrix(1, 0, 0, 1, 0, 627.4);opacity:0.72;animation-play-state:paused" ></circle>
<circle cx="377.08667206409586" cy="0" transform="matrix(1,0,0,1,0,363.9823913574219)" r="4.636300340794838" fill="#bbddff" opacity="0.36000000000000004" style="transform:matrix(1, 0, 0, 1, 0, 363.982);opacity:0.36;animation-play-state:paused" ></circle>
<circle cx="866.9350868248707" cy="0" transform="matrix(1,0,0,1,0,478.4954833984375)" r="14.366298517628017" fill="#bbddff" opacity="0.7200000000000001" style="transform:matrix(1, 0, 0, 1, 0, 478.495);opacity:0.72;animation-play-state:paused" ></circle>
<circle cx="201.654080944393" cy="0" transform="matrix(1,0,0,1,0,72.24713134765625)" r="4.92134525756848" fill="#ddeeff" opacity="0.36000000000000004" style="transform:matrix(1, 0, 0, 1, 0, 72.2471);opacity:0.36;animation-play-state:paused" ></circle>
<circle cx="356.20078697001225" cy="0" transform="matrix(1,0,0,1,0,531.2772216796875)" r="5.195638659508979" fill="#ddeeff" opacity="0.36000000000000004" style="transform:matrix(1, 0, 0, 1, 0, 531.277);opacity:0.36;animation-play-state:paused" ></circle>
<circle cx="762.2633198295894" cy="0" transform="matrix(1,0,0,1,0,571.1729736328125)" r="4.384004434955973" fill="#bbddff" opacity="0.36000000000000004" style="transform:matrix(1, 0, 0, 1, 0, 571.173);opacity:0.36;animation-play-state:paused" ></circle>
<circle cx="112.51711767678101" cy="0" transform="matrix(1,0,0,1,0,75.5526123046875)" r="15.345085208051879" fill="#aabbcc" opacity="0.7200000000000001" style="transform:matrix(1, 0, 0, 1, 0, 75.5526);opacity:0.72;animation-play-state:paused" ></circle>
<circle cx="1006.4111456946439" cy="0" transform="matrix(1,0,0,1,0,677.66943359375)" r="10.492249026323325" fill="#aabbcc" opacity="0.63" style="transform:matrix(1, 0, 0, 1, 0, 677.669);opacity:0.63;animation-play-state:paused" ></circle>
<circle cx="381.7065780411984" cy="0" transform="matrix(1,0,0,1,0,316.6810302734375)" r="5.033484607225632" fill="#bbddff" opacity="0.36000000000000004" style="transform:matrix(1, 0, 0, 1, 0, 316.681);opacity:0.36;animation-play-state:paused" ></circle></g></svg>