<svg width="865" height="686" viewBox="0 0 865 686" fill="none" xmlns="http://www.w3.org/2000/svg">
<g id="undraw_web_development_0l6v 1" clip-path="url(#clip0_15_713)">
<path id="Vector" d="M101.306 515.339C100.566 515.373 99.8337 515.179 99.2077 514.783C98.5818 514.386 98.0928 513.807 97.807 513.124C97.5212 512.44 97.4524 511.685 97.6099 510.961C97.7675 510.237 98.1438 509.579 98.6878 509.076C98.7789 508.714 98.8442 508.454 98.9353 508.092C98.9027 508.013 98.87 507.935 98.837 507.856C98.0914 506.095 96.8421 504.593 95.2459 503.54C93.6498 502.487 91.778 501.929 89.8656 501.936C87.9533 501.943 86.0856 502.515 84.4974 503.58C82.9091 504.645 81.6709 506.156 80.9385 507.922C78.0111 514.973 74.284 522.036 73.3663 529.49C72.9622 532.785 73.1326 536.126 73.8702 539.363C66.9946 524.364 63.4243 508.063 63.4013 491.564C63.3999 487.423 63.6299 483.286 64.0903 479.172C64.4709 475.799 64.9988 472.449 65.6741 469.124C69.3593 451.083 77.2716 434.173 88.7611 419.783C94.322 416.749 98.8192 412.083 101.647 406.414C102.671 404.376 103.395 402.201 103.796 399.956C103.169 400.038 102.531 400.089 101.904 400.131C101.708 400.141 101.503 400.151 101.307 400.161L101.234 400.165C100.544 400.196 99.8605 400.027 99.2649 399.678C98.6693 399.329 98.1871 398.816 97.8765 398.2C97.5658 397.584 97.4399 396.891 97.5139 396.205C97.5879 395.518 97.8586 394.868 98.2935 394.332C98.5644 393.999 98.8354 393.666 99.1065 393.333C99.5179 392.819 99.9395 392.315 100.351 391.801C100.398 391.752 100.443 391.7 100.485 391.646C100.958 391.06 101.431 390.484 101.904 389.898C101.04 388.558 99.8788 387.435 98.5101 386.618C93.7693 383.841 87.2288 385.764 83.8042 390.052C80.3695 394.341 79.7216 400.357 80.9145 405.715C82.0876 410.274 84.0281 414.6 86.6529 418.508C86.3957 418.837 86.1284 419.156 85.8713 419.485C81.1716 425.528 77.0754 432.017 73.6416 438.859C74.4766 431.194 73.48 423.44 70.7336 416.235C67.9501 409.52 62.7329 403.865 58.1386 398.06C52.62 391.087 41.3037 394.13 40.3314 402.969C40.322 403.055 40.3128 403.14 40.3039 403.226C40.9863 403.611 41.6543 404.02 42.3079 404.452C43.1289 405 43.7652 405.784 44.1332 406.701C44.5011 407.617 44.5838 408.623 44.3702 409.587C44.1566 410.551 43.6567 411.428 42.9361 412.103C42.2156 412.779 41.3078 413.22 40.3319 413.371L40.2319 413.386C40.475 415.846 40.9048 418.283 41.5174 420.678C43.2925 427.362 46.4294 433.607 50.7314 439.022C55.0333 444.437 60.4076 448.905 66.5172 452.146C66.9183 452.352 67.3091 452.557 67.7102 452.753C64.2602 462.53 62.0962 472.714 61.2725 483.049C60.8062 489.146 60.8337 495.271 61.3548 501.364L61.3239 501.148C60.0075 494.373 56.3933 488.26 51.0915 483.84C43.2171 477.372 32.0921 474.99 23.5971 469.791C22.6942 469.211 21.6445 468.901 20.5716 468.899C19.4987 468.896 18.4475 469.201 17.5418 469.776C16.6362 470.351 15.914 471.173 15.4603 472.146C15.0066 473.118 14.8404 474.199 14.9814 475.263C14.9928 475.339 15.0043 475.414 15.0161 475.49C16.2825 476.006 17.5155 476.6 18.7079 477.269C19.3903 477.654 20.0584 478.063 20.7119 478.495C21.533 479.043 22.1692 479.827 22.5372 480.744C22.9052 481.66 22.9878 482.666 22.7742 483.63C22.5607 484.594 22.0608 485.471 21.3402 486.147C20.6196 486.822 19.7119 487.264 18.7359 487.414L18.6359 487.429C18.5639 487.44 18.5023 487.45 18.4304 487.46C20.5941 492.627 23.631 497.382 27.408 501.518C32.074 506.525 37.7133 510.526 43.9804 513.276C50.2474 516.025 57.0101 517.466 63.8538 517.51H63.8641C65.7218 525.582 68.4135 533.44 71.8958 540.956H100.587C100.69 540.638 100.783 540.309 100.875 539.99C98.2197 540.157 95.5534 539.998 92.9362 539.517C95.065 536.905 97.1937 534.272 99.3225 531.66C99.37 531.611 99.4146 531.56 99.4562 531.506C100.536 530.169 101.626 528.842 102.706 527.505L102.706 527.504C102.764 523.406 102.294 519.318 101.307 515.34L101.306 515.339Z" fill="#F2F2F2"/>
<path id="Vector_2" d="M439.67 541.344C439.671 541.501 439.64 541.656 439.58 541.8C439.521 541.945 439.433 542.076 439.323 542.187C439.212 542.297 439.081 542.385 438.936 542.445C438.791 542.504 438.636 542.535 438.48 542.534H1.19C0.874395 542.534 0.571725 542.409 0.348557 542.186C0.125388 541.963 0 541.66 0 541.344C0 541.029 0.125388 540.726 0.348557 540.503C0.571725 540.28 0.874395 540.154 1.19 540.154H438.48C438.636 540.154 438.791 540.184 438.936 540.244C439.081 540.304 439.212 540.391 439.323 540.502C439.433 540.612 439.521 540.744 439.58 540.888C439.64 541.033 439.671 541.188 439.67 541.344V541.344Z" fill="#CCCCCC"/>
<path id="Vector_3" d="M228.983 388.484C227.336 388.089 225.622 388.061 223.963 388.401C222.305 388.741 220.74 389.44 219.381 390.449C218.021 391.459 216.9 392.755 216.095 394.245C215.29 395.734 214.822 397.383 214.723 399.073L189.725 407.773L191.306 424.254L226.437 411.472C229.288 411.45 232.032 410.383 234.148 408.473C236.265 406.563 237.607 403.942 237.921 401.109C238.235 398.275 237.498 395.425 235.851 393.098C234.203 390.771 231.76 389.129 228.983 388.484V388.484Z" fill="#FFB6B6"/>
<path id="Vector_4" d="M188.24 436.387C178.3 443.315 160.788 446.859 136.955 446.697C135.635 446.701 134.329 446.43 133.12 445.903C131.91 445.375 130.824 444.602 129.928 443.633C123.551 436.992 123.8 421.833 123.84 420.369L116.85 394.026C116.7 393.624 112.831 382.815 116.767 375.267C117.605 373.69 118.774 372.314 120.193 371.232C121.613 370.15 123.251 369.388 124.993 368.998C139.775 365.076 153.671 404.645 155.437 409.874L176.182 406.341L190.509 405.752L205.084 397.706L213.291 417.346L192.982 432.187C191.581 433.778 189.988 435.188 188.24 436.387V436.387Z" fill="#2F2E41"/>
<path id="Vector_5" d="M228.268 654.202L243.549 654.916L253.575 596.315L231.022 595.261L228.268 654.202Z" fill="#FFB6B6"/>
<path id="Vector_6" d="M224.832 646.486L249.055 646.174L248.571 656.524L270.795 673.459C271.893 674.295 272.694 675.46 273.083 676.784C273.472 678.108 273.427 679.522 272.955 680.819C272.483 682.116 271.609 683.228 270.461 683.993C269.312 684.758 267.949 685.136 266.57 685.071L237.812 683.726L233.334 673.257L230.919 683.404L220.076 682.897L224.832 646.486Z" fill="#2F2E41"/>
<path id="Vector_7" d="M387.812 528.378L393.379 514.129L341.068 485.876L314.642 502.486L387.812 528.378Z" fill="#FFB6B6"/>
<path id="Vector_8" d="M379.402 529.165L386.859 506.116L396.509 509.887L419.666 494.251C420.81 493.479 422.17 493.092 423.549 493.148C424.928 493.203 426.253 493.698 427.331 494.56C428.408 495.422 429.182 496.606 429.539 497.939C429.897 499.272 429.818 500.685 429.316 501.97L418.838 528.786L407.486 529.678L416.327 535.212L412.376 545.323L379.402 529.165Z" fill="#2F2E41"/>
<path id="Vector_9" d="M87.2959 485.97C87.2959 485.97 93.6423 526.486 123.642 529.486C153.642 532.486 181.296 518.97 181.296 518.97L265.296 493.1C265.296 493.1 354.642 518.486 369.642 522.486C369.642 522.486 379.989 499.002 379.642 497.486C376.452 483.528 372.296 492.97 372.296 492.97L277.296 450.97C277.296 450.97 262.296 446.97 236.296 457.97C210.296 468.97 140.642 495.486 140.642 495.486L87.2959 485.97Z" fill="#2F2E41"/>
<path id="Vector_10" d="M87.6419 483.486C87.6419 483.486 82.6387 532.023 111.862 539.438C139.642 546.486 177.96 539.256 177.96 539.256L223.642 534.486C223.642 534.486 225.642 593.182 225.642 622.182C234.923 623.443 244.276 624.111 253.642 624.182C255.642 624.182 255.775 623.134 255.775 623.134L259.647 521.69C259.919 517.28 259.265 512.861 257.726 508.719C256.188 504.576 253.799 500.802 250.714 497.638C247.628 494.475 243.915 491.992 239.812 490.35C235.71 488.709 231.309 487.944 226.893 488.105C224.736 488.187 222.474 488.34 220.107 488.563C192.004 491.258 157.116 485.53 157.116 485.53L87.6419 483.486Z" fill="#2F2E41"/>
<path id="Vector_11" d="M168.7 413.075C168.7 413.075 180.564 484.819 172.547 490.546C164.529 496.273 153.534 496.295 153.534 496.295L150.978 456.683L168.7 413.075Z" fill="#2F2E41"/>
<path id="Vector_12" d="M148.913 324.963L164.776 340.036C172.149 347.043 177.036 356.262 178.696 366.296C180.356 376.331 178.699 386.633 173.975 395.64L166.393 410.1L148.913 324.963Z" fill="#2F2E41"/>
<path id="Vector_13" d="M145.366 327.498L166.86 351.98C171.577 357.353 174.501 364.064 175.222 371.177V371.177C175.55 374.407 175.418 377.668 174.831 380.861L166.731 424.895L160.642 488.486C160.642 488.486 113.639 502.728 108.828 480.736C104.017 458.745 145.366 327.498 145.366 327.498Z" fill="#42799C"/>
<path id="Vector_14" d="M125.191 494.463C94.2929 489.313 86.724 488.291 86.2526 488.111L85.7803 487.931L88.8773 469.347L101.955 437.212C102.804 426.7 108.313 412.458 105.161 401.018C96.0006 367.761 110.884 320.765 117.69 317.164L136.559 304.794L143.183 310.867L154.667 326.944C164.117 369.035 170.643 408.267 170.325 410.665L164.493 451.872L157.621 467.678C136.774 477.737 150.792 498.729 125.191 494.463Z" fill="#2F2E41"/>
<path id="Vector_15" d="M181.131 464.233L229.645 451.253L233.917 450.24L236.963 449.516L240.512 448.677L240.54 448.671C241.056 448.553 241.598 448.643 242.047 448.921L260.061 470.519C260.224 470.619 260.368 470.748 260.485 470.9C260.533 470.939 260.576 470.984 260.613 471.034C260.812 471.306 260.942 471.623 260.99 471.957C261.038 472.291 261.003 472.631 260.889 472.948C260.774 473.265 260.584 473.549 260.333 473.775C260.083 474.002 259.781 474.163 259.454 474.244L187.081 490.9C186.706 490.985 186.315 490.962 185.952 490.834C185.59 490.706 185.271 490.478 185.032 490.176L184.298 489.224L180.293 469.939L180.008 467.434C179.826 467.203 179.698 466.934 179.632 466.647C179.516 466.128 179.608 465.585 179.888 465.133C180.168 464.682 180.615 464.358 181.131 464.233V464.233Z" fill="#E6E6E6"/>
<path id="Vector_16" opacity="0.17" d="M184.298 489.223L185.037 490.177C185.275 490.478 185.593 490.705 185.954 490.833C186.316 490.961 186.706 490.985 187.08 490.901L259.456 474.245C259.783 474.163 260.085 474.003 260.335 473.777C260.585 473.551 260.776 473.267 260.89 472.95C261.004 472.633 261.039 472.292 260.99 471.959C260.942 471.625 260.812 471.309 260.612 471.037C260.577 470.986 260.535 470.941 260.486 470.902L184.298 489.223Z" fill="black"/>
<path id="Vector_17" d="M240.152 448.536L238.842 356.271C238.787 355.716 238.955 355.161 239.309 354.729L248.583 335.428L249.546 334.258C249.904 333.83 250.416 333.559 250.972 333.504L252.99 333.316C253.546 333.261 254.101 333.43 254.533 333.784C254.965 334.139 255.238 334.65 255.293 335.206V335.206L257.111 432.83L257.112 432.837L258.013 442.237L259.08 453.399L259.083 453.413L260.749 470.779C260.78 471.076 260.747 471.376 260.651 471.659C260.554 471.942 260.398 472.2 260.192 472.416C259.991 472.636 259.746 472.809 259.473 472.926C259.2 473.043 258.905 473.101 258.608 473.095L257.294 473.068C256.79 473.055 256.307 472.865 255.93 472.531L255.196 471.87L254.855 471.56L240.848 449.907C240.45 449.555 240.201 449.065 240.152 448.536V448.536Z" fill="#E6E6E6"/>
<path id="Vector_18" opacity="0.17" d="M248.586 335.428L254.853 471.564L255.196 471.87L255.928 472.528C256.305 472.863 256.788 473.054 257.293 473.066L258.608 473.093C258.905 473.098 259.201 473.04 259.474 472.923C259.748 472.806 259.994 472.633 260.196 472.415C260.398 472.196 260.552 471.938 260.647 471.656C260.742 471.374 260.777 471.075 260.749 470.779L255.29 335.209C255.236 334.653 254.964 334.14 254.533 333.785C254.102 333.429 253.547 333.259 252.991 333.312L250.968 333.506C250.693 333.531 250.427 333.611 250.183 333.74C249.94 333.87 249.724 334.046 249.55 334.26L248.586 335.428Z" fill="black"/>
<path id="Vector_19" d="M249.113 340.929L240.632 361.864L241.681 424.491L250.863 437.77L249.113 340.929Z" fill="#42799C"/>
<path id="Vector_20" d="M186.723 463.68C186.259 463.812 185.866 464.124 185.631 464.545C185.397 464.967 185.339 465.465 185.471 465.929L189.207 481.5L192.708 480.503L188.972 464.932C188.839 464.468 188.528 464.075 188.106 463.84C187.685 463.606 187.187 463.548 186.723 463.68V463.68Z" fill="#2F2E41"/>
<path id="Vector_21" d="M193.724 461.686C193.26 461.818 192.867 462.13 192.632 462.551C192.397 462.973 192.34 463.471 192.472 463.935L193.269 466.736L196.77 465.739L195.973 462.938C195.84 462.474 195.529 462.081 195.107 461.847C194.686 461.612 194.188 461.554 193.724 461.686Z" fill="#2F2E41"/>
<path id="Vector_22" d="M200.726 459.692C200.262 459.825 199.869 460.136 199.634 460.558C199.399 460.979 199.342 461.477 199.474 461.941L200.271 464.742L203.772 463.745L202.975 460.945C202.842 460.48 202.531 460.088 202.109 459.853C201.688 459.618 201.19 459.56 200.726 459.692V459.692Z" fill="#2F2E41"/>
<path id="Vector_23" d="M207.728 457.699C207.264 457.831 206.871 458.142 206.636 458.564C206.401 458.986 206.344 459.483 206.476 459.948L207.273 462.748L210.774 461.752L209.977 458.951C209.844 458.487 209.533 458.094 209.111 457.859C208.69 457.625 208.192 457.567 207.728 457.699V457.699Z" fill="#2F2E41"/>
<path id="Vector_24" d="M214.73 455.705C214.265 455.838 213.873 456.149 213.638 456.57C213.403 456.992 213.346 457.49 213.478 457.954L214.275 460.755L217.776 459.758L216.979 456.957C216.846 456.493 216.535 456.1 216.113 455.866C215.692 455.631 215.194 455.573 214.73 455.705V455.705Z" fill="#2F2E41"/>
<path id="Vector_25" d="M221.732 453.711C221.267 453.844 220.875 454.155 220.64 454.577C220.405 454.998 220.348 455.496 220.48 455.96L221.277 458.761L224.778 457.764L223.98 454.963C223.848 454.499 223.537 454.107 223.115 453.872C222.694 453.637 222.196 453.579 221.732 453.711Z" fill="#2F2E41"/>
<path id="Vector_26" d="M228.734 451.718C228.269 451.85 227.877 452.161 227.642 452.583C227.407 453.005 227.35 453.502 227.482 453.967L228.279 456.767L231.78 455.77L230.982 452.97C230.85 452.505 230.539 452.113 230.117 451.878C229.695 451.643 229.198 451.586 228.734 451.718V451.718Z" fill="#2F2E41"/>
<path id="Vector_27" d="M235.736 449.724C235.271 449.856 234.879 450.168 234.644 450.589C234.409 451.011 234.351 451.509 234.483 451.973L235.281 454.774L238.782 453.777L237.984 450.976C237.852 450.512 237.541 450.119 237.119 449.884C236.697 449.65 236.2 449.592 235.736 449.724V449.724Z" fill="#2F2E41"/>
<path id="Vector_28" d="M195.194 468.071C194.729 468.204 194.337 468.515 194.102 468.937C193.867 469.358 193.809 469.856 193.941 470.32L194.739 473.121L198.24 472.124L197.442 469.323C197.31 468.859 196.999 468.467 196.577 468.232C196.155 467.997 195.658 467.939 195.194 468.071V468.071Z" fill="#2F2E41"/>
<path id="Vector_29" d="M202.195 466.078C201.731 466.21 201.339 466.521 201.104 466.943C200.869 467.365 200.811 467.862 200.943 468.327L201.741 471.127L205.242 470.131L204.444 467.33C204.312 466.866 204.001 466.473 203.579 466.238C203.157 466.003 202.66 465.946 202.195 466.078Z" fill="#2F2E41"/>
<path id="Vector_30" d="M209.197 464.084C208.733 464.216 208.341 464.528 208.106 464.949C207.871 465.371 207.813 465.869 207.945 466.333L208.743 469.134L212.244 468.137L211.446 465.336C211.314 464.872 211.003 464.479 210.581 464.245C210.159 464.01 209.662 463.952 209.197 464.084Z" fill="#2F2E41"/>
<path id="Vector_31" d="M216.199 462.09C215.735 462.223 215.343 462.534 215.108 462.956C214.873 463.377 214.815 463.875 214.947 464.339L215.745 467.14L219.246 466.143L218.448 463.342C218.316 462.878 218.005 462.486 217.583 462.251C217.161 462.016 216.664 461.958 216.199 462.09Z" fill="#2F2E41"/>
<path id="Vector_32" d="M223.201 460.097C222.737 460.229 222.345 460.54 222.11 460.962C221.875 461.384 221.817 461.881 221.949 462.345L222.747 465.146L226.248 464.149L225.45 461.349C225.318 460.884 225.007 460.492 224.585 460.257C224.163 460.022 223.666 459.965 223.201 460.097V460.097Z" fill="#2F2E41"/>
<path id="Vector_33" d="M230.202 458.103C229.738 458.235 229.346 458.546 229.111 458.968C228.876 459.39 228.818 459.888 228.95 460.352L229.748 463.152L233.249 462.156L232.451 459.355C232.319 458.891 232.008 458.498 231.586 458.263C231.164 458.029 230.667 457.971 230.202 458.103V458.103Z" fill="#2F2E41"/>
<path id="Vector_34" d="M237.204 456.109C236.74 456.242 236.348 456.553 236.113 456.975C235.878 457.396 235.82 457.894 235.952 458.358L236.75 461.159L240.251 460.162L239.453 457.361C239.321 456.897 239.01 456.504 238.588 456.27C238.166 456.035 237.668 455.977 237.204 456.109Z" fill="#2F2E41"/>
<path id="Vector_35" d="M196.663 474.457C196.199 474.589 195.806 474.9 195.572 475.322C195.337 475.744 195.279 476.241 195.411 476.706L196.209 479.506L199.71 478.509L198.912 475.709C198.78 475.245 198.469 474.852 198.047 474.617C197.625 474.382 197.127 474.325 196.663 474.457V474.457Z" fill="#2F2E41"/>
<path id="Vector_36" d="M203.665 472.463C203.201 472.595 202.808 472.907 202.574 473.328C202.339 473.75 202.281 474.248 202.413 474.712L203.211 477.513L206.712 476.516L205.914 473.715C205.782 473.251 205.471 472.858 205.049 472.623C204.627 472.389 204.129 472.331 203.665 472.463V472.463Z" fill="#2F2E41"/>
<path id="Vector_37" d="M210.667 470.469C210.203 470.602 209.81 470.913 209.576 471.335C209.341 471.756 209.283 472.254 209.415 472.718L210.213 475.519L213.714 474.522L212.916 471.721C212.784 471.257 212.472 470.865 212.051 470.63C211.629 470.395 211.131 470.337 210.667 470.469Z" fill="#2F2E41"/>
<path id="Vector_38" d="M217.668 468.475C217.204 468.608 216.811 468.919 216.577 469.341C216.342 469.762 216.284 470.26 216.416 470.724L217.214 473.525L220.715 472.528L219.917 469.727C219.785 469.263 219.473 468.871 219.052 468.636C218.63 468.401 218.132 468.343 217.668 468.475Z" fill="#2F2E41"/>
<path id="Vector_39" d="M224.67 466.482C224.206 466.614 223.813 466.925 223.579 467.347C223.344 467.769 223.286 468.266 223.418 468.731L224.216 471.531L227.716 470.535L226.919 467.734C226.787 467.27 226.475 466.877 226.054 466.642C225.632 466.407 225.134 466.35 224.67 466.482V466.482Z" fill="#2F2E41"/>
<path id="Vector_40" d="M231.672 464.488C231.208 464.62 230.815 464.932 230.581 465.353C230.346 465.775 230.288 466.273 230.42 466.737L231.217 469.538L234.718 468.541L233.921 465.74C233.789 465.276 233.477 464.883 233.056 464.649C232.634 464.414 232.136 464.356 231.672 464.488Z" fill="#2F2E41"/>
<path id="Vector_41" d="M238.674 462.494C238.21 462.627 237.817 462.938 237.582 463.36C237.348 463.781 237.29 464.279 237.422 464.743L238.219 467.544L241.72 466.547L240.923 463.747C240.791 463.282 240.479 462.89 240.058 462.655C239.636 462.42 239.138 462.362 238.674 462.494V462.494Z" fill="#2F2E41"/>
<path id="Vector_42" d="M218.102 450.411C217.163 449.002 215.927 447.816 214.48 446.936C213.033 446.057 211.41 445.505 209.727 445.32C208.044 445.136 206.34 445.322 204.737 445.867C203.134 446.412 201.669 447.301 200.447 448.473L176.205 437.845L166.153 451.002L200.599 465.53C202.704 467.453 205.441 468.537 208.291 468.577C211.142 468.616 213.908 467.609 216.066 465.745C218.224 463.881 219.623 461.291 219.998 458.465C220.373 455.639 219.699 452.773 218.102 450.411V450.411Z" fill="#FFB6B6"/>
<path id="Vector_43" d="M155.653 457.81C143.655 456.126 128.408 446.812 111.048 430.481C110.079 429.586 109.306 428.499 108.778 427.29C108.25 426.081 107.979 424.775 107.982 423.455C107.825 414.25 118.319 403.307 119.344 402.261L132.14 378.197C132.304 377.8 136.821 367.246 144.84 364.391C146.526 363.805 148.32 363.591 150.096 363.763C151.873 363.936 153.592 364.491 155.134 365.391C168.637 372.571 151.907 411.028 149.644 416.062L167.253 427.584L178.155 436.897L194.312 440.915L186.967 460.893L161.986 457.957C159.877 458.17 157.75 458.12 155.653 457.81V457.81Z" fill="#2F2E41"/>
<path id="Vector_44" d="M179.314 275.79C181.337 258.911 169.591 243.623 153.079 241.645C136.568 239.667 121.543 251.747 119.52 268.626C117.498 285.506 129.244 300.793 145.755 302.772C162.267 304.75 177.292 292.67 179.314 275.79Z" fill="#FFB6B6"/>
<path id="Vector_45" d="M71.0038 249.368C76.7957 244.051 80.1538 236.477 85.0227 230.235C89.8916 223.992 97.6829 218.816 104.964 221.277C109.983 222.973 113.418 227.993 114.825 233.299C116.232 238.606 115.941 244.237 115.638 249.751C116.861 238.491 125.575 228.477 136.211 226.111C146.846 223.746 158.58 229.212 163.91 239.014C167.02 236.756 170.849 235.716 174.674 236.093C178.498 236.47 182.051 238.237 184.66 241.06C189.782 246.874 189.882 256.783 184.88 262.817C179.878 268.851 170.45 270.192 164.181 265.762L161.55 267.659C162.325 272.484 159.077 277.686 154.518 278.921C150.821 279.923 145.871 279.09 144.107 282.632C142.875 285.108 144.268 288.074 145.864 290.281C147.459 292.488 149.39 294.801 149.281 297.577C149.116 301.765 144.481 304.158 140.478 304.566C130.828 305.551 120.922 299.95 116.499 291.007C116.414 290.835 116.319 290.661 116.216 290.486C113.643 286.236 111.963 281.505 111.28 276.584C110.596 271.662 110.923 266.653 112.241 261.863C112.776 259.982 112.639 258.52 111.372 257.907C105.895 255.261 89.3975 257.462 84.1082 260.603C78.8184 263.745 74.3496 268.206 69.2096 271.609C64.0691 275.012 57.7577 277.356 51.9631 275.567C47.3223 274.135 43.6988 270.207 41.4817 265.727C39.265 261.247 38.2828 256.217 37.46 251.236C47.225 258.554 61.8873 257.737 71.0038 249.368Z" fill="#2F2E41"/>
<path id="Vector_46" d="M862.903 34.4843H408.61C408.138 34.4742 407.688 34.2794 407.358 33.9417C407.027 33.604 406.842 33.1503 406.842 32.6777C406.842 32.2051 407.027 31.7513 407.358 31.4136C407.688 31.0759 408.138 30.8812 408.61 30.8711H862.903C863.376 30.8812 863.825 31.0759 864.156 31.4136C864.487 31.7513 864.672 32.2051 864.672 32.6777C864.672 33.1503 864.487 33.604 864.156 33.9417C863.825 34.2794 863.376 34.4742 862.903 34.4843V34.4843Z" fill="#CACACA"/>
<path id="Vector_47" d="M439.534 21.6469C445.381 21.6469 450.121 16.8011 450.121 10.8235C450.121 4.84582 445.381 0 439.534 0C433.686 0 428.946 4.84582 428.946 10.8235C428.946 16.8011 433.686 21.6469 439.534 21.6469Z" fill="#3F3D56"/>
<path id="Vector_48" d="M476.109 21.6469C481.956 21.6469 486.697 16.8011 486.697 10.8235C486.697 4.84582 481.956 0 476.109 0C470.262 0 465.521 4.84582 465.521 10.8235C465.521 16.8011 470.262 21.6469 476.109 21.6469Z" fill="#3F3D56"/>
<path id="Vector_49" d="M512.684 21.6469C518.531 21.6469 523.272 16.8011 523.272 10.8235C523.272 4.84582 518.531 0 512.684 0C506.837 0 502.097 4.84582 502.097 10.8235C502.097 16.8011 506.837 21.6469 512.684 21.6469Z" fill="#3F3D56"/>
<path id="Vector_50" d="M840.881 2.68262H814.9C814.385 2.69287 813.895 2.90464 813.534 3.27245C813.174 3.64026 812.972 4.13479 812.972 4.64985C812.972 5.16491 813.174 5.65943 813.534 6.02724C813.895 6.39506 814.385 6.60683 814.9 6.61708H840.881C841.396 6.60683 841.887 6.39506 842.247 6.02724C842.608 5.65943 842.81 5.16491 842.81 4.64985C842.81 4.13479 842.608 3.64026 842.247 3.27245C841.887 2.90464 841.396 2.69287 840.881 2.68262V2.68262Z" fill="#3F3D56"/>
<path id="Vector_51" d="M840.881 10.0671H814.9C814.385 10.0774 813.895 10.2892 813.534 10.657C813.174 11.0248 812.972 11.5193 812.972 12.0344C812.972 12.5494 813.174 13.044 813.534 13.4118C813.895 13.7796 814.385 13.9913 814.9 14.0016H840.881C841.396 13.9913 841.887 13.7796 842.247 13.4118C842.608 13.044 842.81 12.5494 842.81 12.0344C842.81 11.5193 842.608 11.0248 842.247 10.657C841.887 10.2892 841.396 10.0774 840.881 10.0671V10.0671Z" fill="#3F3D56"/>
<path id="Vector_52" d="M840.881 17.4417H814.9C814.385 17.4518 813.895 17.6636 813.534 18.0314C813.174 18.3992 812.972 18.8938 812.972 19.4089C812.972 19.924 813.174 20.4185 813.534 20.7864C813.895 21.1542 814.385 21.3659 814.9 21.3761H840.881C841.396 21.3659 841.887 21.1542 842.247 20.7864C842.608 20.4185 842.81 19.924 842.81 19.4089C842.81 18.8938 842.608 18.3992 842.247 18.0314C841.887 17.6636 841.396 17.4518 840.881 17.4417V17.4417Z" fill="#3F3D56"/>
<path id="Vector_53" d="M66.4502 449.706L66.4653 449.686L66.4502 449.727V449.706Z" fill="#2F2E41"/>
<path id="Vector_54" d="M690.523 104.885C697.752 104.885 703.612 99.0242 703.612 91.7952C703.612 84.5661 697.752 78.7058 690.523 78.7058C683.294 78.7058 677.434 84.5661 677.434 91.7952C677.434 99.0242 683.294 104.885 690.523 104.885Z" fill="#E6E7E8"/>
<path id="Vector_55" d="M800.846 120.78H681.332C680.819 120.78 680.312 120.68 679.838 120.485C679.365 120.289 678.934 120.002 678.572 119.64C678.209 119.278 677.921 118.848 677.725 118.375C677.529 117.902 677.428 117.394 677.428 116.882C677.428 116.369 677.529 115.862 677.725 115.389C677.921 114.916 678.209 114.486 678.572 114.124C678.934 113.762 679.365 113.475 679.838 113.279C680.312 113.084 680.819 112.983 681.332 112.984H800.846C801.358 112.983 801.866 113.084 802.339 113.279C802.813 113.475 803.243 113.762 803.606 114.124C803.969 114.486 804.256 114.916 804.453 115.389C804.649 115.862 804.75 116.369 804.75 116.882C804.75 117.394 804.649 117.902 804.453 118.375C804.256 118.848 803.969 119.278 803.606 119.64C803.243 120.002 802.813 120.289 802.339 120.485C801.866 120.68 801.358 120.78 800.846 120.78V120.78Z" fill="#E6E7E8"/>
<path id="Vector_56" d="M711.015 136.182H681.332C680.298 136.182 679.306 135.771 678.575 135.04C677.844 134.309 677.434 133.317 677.434 132.284C677.434 131.25 677.844 130.258 678.575 129.527C679.306 128.796 680.298 128.386 681.332 128.386H711.015C712.049 128.386 713.04 128.796 713.771 129.527C714.502 130.258 714.913 131.25 714.913 132.284C714.913 133.317 714.502 134.309 713.771 135.04C713.04 135.771 712.049 136.182 711.015 136.182V136.182Z" fill="#E6E7E8"/>
<path id="Vector_57" d="M690.523 309.189C697.752 309.189 703.612 303.329 703.612 296.1C703.612 288.871 697.752 283.01 690.523 283.01C683.294 283.01 677.434 288.871 677.434 296.1C677.434 303.329 683.294 309.189 690.523 309.189Z" fill="#E6E7E8"/>
<path id="Vector_58" d="M800.845 325.084H681.331C680.298 325.084 679.306 324.674 678.575 323.943C677.844 323.212 677.434 322.22 677.434 321.187C677.434 320.153 677.844 319.161 678.575 318.43C679.306 317.699 680.298 317.289 681.331 317.289H800.845C801.879 317.289 802.871 317.699 803.602 318.43C804.333 319.161 804.743 320.153 804.743 321.187C804.743 322.22 804.333 323.212 803.602 323.943C802.871 324.674 801.879 325.084 800.845 325.084V325.084Z" fill="#E6E7E8"/>
<path id="Vector_59" d="M711.015 340.486H681.332C680.298 340.486 679.306 340.076 678.575 339.345C677.844 338.614 677.434 337.622 677.434 336.588C677.434 335.555 677.844 334.563 678.575 333.832C679.306 333.101 680.298 332.69 681.332 332.69H711.015C712.049 332.69 713.04 333.101 713.771 333.832C714.502 334.563 714.913 335.555 714.913 336.588C714.913 337.622 714.502 338.614 713.771 339.345C713.04 340.076 712.049 340.486 711.015 340.486V340.486Z" fill="#E6E7E8"/>
<path id="Vector_60" d="M479.859 278.186C487.088 278.186 492.948 272.326 492.948 265.096C492.948 257.867 487.088 252.007 479.859 252.007C472.63 252.007 466.77 257.867 466.77 265.096C466.77 272.326 472.63 278.186 479.859 278.186Z" fill="#E6E7E8"/>
<path id="Vector_61" d="M590.181 294.081H470.667C469.633 294.081 468.642 293.67 467.911 292.939C467.18 292.208 466.77 291.217 466.77 290.183C466.77 289.149 467.18 288.158 467.911 287.427C468.642 286.696 469.633 286.285 470.667 286.285H590.181C591.215 286.285 592.207 286.696 592.938 287.427C593.668 288.158 594.079 289.149 594.079 290.183C594.079 291.217 593.668 292.208 592.938 292.939C592.207 293.67 591.215 294.081 590.181 294.081V294.081Z" fill="#E6E7E8"/>
<path id="Vector_62" d="M500.351 309.483H470.667C469.634 309.483 468.642 309.072 467.911 308.341C467.18 307.61 466.77 306.619 466.77 305.585C466.77 304.551 467.18 303.56 467.911 302.829C468.642 302.098 469.634 301.687 470.667 301.687H500.351C501.385 301.687 502.376 302.098 503.107 302.829C503.838 303.56 504.249 304.551 504.249 305.585C504.249 306.619 503.838 307.61 503.107 308.341C502.376 309.072 501.385 309.483 500.351 309.483V309.483Z" fill="#E6E7E8"/>
<path id="Vector_63" d="M690.523 199.336C697.752 199.336 703.612 193.476 703.612 186.247C703.612 179.018 697.752 173.157 690.523 173.157C683.294 173.157 677.434 179.018 677.434 186.247C677.434 193.476 683.294 199.336 690.523 199.336Z" fill="#E6E7E8"/>
<path id="Vector_64" d="M800.845 215.231H681.331C680.298 215.231 679.306 214.82 678.575 214.089C677.844 213.358 677.434 212.367 677.434 211.333C677.434 210.3 677.844 209.308 678.575 208.577C679.306 207.846 680.298 207.436 681.331 207.436H800.845C801.879 207.436 802.871 207.846 803.602 208.577C804.333 209.308 804.743 210.3 804.743 211.333C804.743 212.367 804.333 213.358 803.602 214.089C802.871 214.82 801.879 215.231 800.845 215.231V215.231Z" fill="#E6E7E8"/>
<path id="Vector_65" d="M753.148 230.633H681.332C680.298 230.633 679.306 230.222 678.575 229.491C677.844 228.76 677.434 227.769 677.434 226.735C677.434 225.701 677.844 224.71 678.575 223.979C679.306 223.248 680.298 222.837 681.332 222.837H753.148C754.182 222.837 755.173 223.248 755.904 223.979C756.635 224.71 757.046 225.701 757.046 226.735C757.046 227.769 756.635 228.76 755.904 229.491C755.173 230.222 754.182 230.633 753.148 230.633V230.633Z" fill="#E6E7E8"/>
<path id="Vector_66" d="M733.138 246.035H681.332C680.298 246.035 679.306 245.624 678.575 244.893C677.844 244.162 677.434 243.171 677.434 242.137C677.434 241.103 677.844 240.112 678.575 239.381C679.306 238.65 680.298 238.239 681.332 238.239H733.138C734.172 238.239 735.163 238.65 735.894 239.381C736.625 240.112 737.036 241.103 737.036 242.137C737.036 243.171 736.625 244.162 735.894 244.893C735.163 245.624 734.172 246.035 733.138 246.035V246.035Z" fill="#E6E7E8"/>
<path id="Vector_67" d="M571.183 101.188V238.616C571.181 239.575 570.8 240.494 570.123 241.173C569.445 241.851 568.526 242.234 567.567 242.236H495.156C487.145 234.807 480.573 225.964 475.769 216.151C475.453 215.519 475.152 214.882 474.865 214.235C470.488 204.738 467.839 194.537 467.041 184.11C466.987 183.468 466.942 182.831 466.913 182.184C466.814 180.529 466.77 178.849 466.77 177.165C466.755 165.954 468.872 154.842 473.008 144.422C473.255 143.775 473.517 143.133 473.788 142.496C479.234 129.692 487.606 118.344 498.233 109.363C498.865 108.824 499.504 108.301 500.15 107.792L500.298 107.673C508.614 101.09 518.918 97.5232 529.524 97.5576H567.567C568.527 97.5606 569.448 97.9445 570.126 98.6251C570.803 99.3058 571.184 100.228 571.183 101.188V101.188Z" fill="#42799C"/>
<path id="Vector_68" opacity="0.2" d="M571.375 144.422V142.496H539.081V97.5576H537.16V142.496H500.149V107.792C499.502 108.301 498.863 108.824 498.233 109.363V142.496H473.788C473.516 143.133 473.254 143.775 473.007 144.422H498.233V182.184H466.912C466.942 182.831 466.986 183.468 467.041 184.11H498.233V214.235H474.865C475.151 214.882 475.452 215.519 475.768 216.151H498.233V241.475H500.149V216.151H537.16V241.475H539.081V216.151H571.375V214.235H539.081C539.08 210.279 539.859 206.361 541.372 202.706C542.886 199.05 545.105 195.729 547.903 192.932C550.7 190.134 554.021 187.915 557.677 186.401C561.332 184.888 565.25 184.109 569.206 184.11H571.375V182.184H539.081V144.422H571.375ZM537.16 214.235H500.149V184.11H537.16V214.235ZM537.16 182.184H500.149V181.428C500.149 176.568 501.107 171.756 502.967 167.266C504.827 162.776 507.553 158.696 510.99 155.26C514.427 151.824 518.507 149.098 522.997 147.238C527.487 145.379 532.3 144.422 537.16 144.422V182.184Z" fill="black"/>
<path id="Vector_69" d="M567.733 214.72C566.959 214.756 566.193 214.553 565.538 214.138C564.883 213.724 564.371 213.118 564.072 212.403C563.773 211.688 563.701 210.898 563.866 210.141C564.031 209.383 564.425 208.695 564.994 208.169C565.089 207.79 565.157 207.518 565.253 207.139C565.219 207.057 565.184 206.974 565.15 206.892C561.67 198.594 539.465 221.725 538.505 229.524C538.082 232.971 538.26 236.465 539.032 239.851C531.839 224.162 528.104 207.109 528.08 189.849C528.079 185.517 528.32 181.19 528.801 176.885C529.199 173.357 529.752 169.853 530.458 166.375C534.313 147.501 542.59 129.812 554.609 114.758C561.483 115.142 567.507 114.095 568.089 100.773C568.193 98.4033 569.95 96.3514 570.338 94.017C569.681 94.1031 569.014 94.1569 568.358 94.1999C568.154 94.2106 567.939 94.2214 567.734 94.2321L567.657 94.2356C566.936 94.268 566.221 94.0912 565.598 93.7265C564.974 93.3619 564.47 92.8249 564.145 92.1802C563.82 91.5355 563.688 90.8107 563.766 90.0929C563.843 89.3751 564.126 88.695 564.581 88.1344C564.865 87.7858 565.148 87.4373 565.432 87.0889C565.862 86.551 566.303 86.0238 566.734 85.486C566.783 85.4349 566.83 85.381 566.873 85.3245C567.368 84.7113 567.863 84.1089 568.358 83.4957C567.455 82.0937 566.24 80.9192 564.808 80.064C559.849 77.1594 553.007 79.1711 549.424 83.6571C545.831 88.1431 545.153 94.4366 546.401 100.041C547.628 104.811 549.658 109.336 552.404 113.424C552.135 113.769 551.855 114.102 551.586 114.446C546.67 120.768 542.385 127.557 538.793 134.714C539.809 126.776 527.381 98.1065 522.575 92.0339C516.802 84.7398 504.964 87.9231 503.947 97.1695C503.937 97.259 503.928 97.3485 503.918 97.438C504.632 97.8407 505.331 98.2682 506.015 98.7204C506.873 99.2942 507.539 100.114 507.924 101.073C508.309 102.031 508.395 103.084 508.172 104.092C507.948 105.101 507.426 106.019 506.672 106.725C505.918 107.431 504.968 107.893 503.947 108.051L503.843 108.067C494.287 121.71 524.92 157.221 532.588 149.248C528.979 159.476 526.715 170.13 525.854 180.941C525.366 187.32 525.395 193.727 525.94 200.101L525.907 199.875C524.204 185.993 494.976 165.352 486.441 167.072C481.524 168.062 476.681 167.837 477.428 172.796C477.44 172.876 477.452 172.955 477.464 173.034C478.789 173.574 480.079 174.195 481.326 174.895C482.04 175.298 482.739 175.725 483.423 176.177C484.282 176.751 484.947 177.571 485.332 178.53C485.717 179.488 485.804 180.541 485.58 181.55C485.357 182.558 484.834 183.476 484.08 184.182C483.326 184.888 482.377 185.35 481.356 185.508L481.251 185.524C481.176 185.535 481.111 185.545 481.036 185.556C476.686 200.523 508.943 224.676 528.554 216.991H528.565C530.508 225.436 533.324 233.656 536.966 241.519H566.981C567.089 241.185 567.185 240.841 567.282 240.508C564.504 240.682 561.715 240.516 558.977 240.013C561.204 237.28 563.431 234.526 565.658 231.794C565.707 231.743 565.754 231.689 565.798 231.632C566.927 230.234 568.068 228.846 569.197 227.448L569.198 227.446C569.258 223.159 568.766 218.882 567.734 214.721L567.733 214.72ZM533.363 147.107L533.378 147.086L533.363 147.129V147.107ZM526.714 207.04L526.456 206.459C526.467 206.039 526.467 205.62 526.456 205.189C526.456 205.071 526.434 204.953 526.434 204.834C526.531 205.577 526.617 206.319 526.725 207.061L526.714 207.04Z" fill="#2F2E41"/>
</g>
<defs>
<clipPath id="clip0_15_713">
<rect width="864.67" height="685.078" fill="white"/>
</clipPath>
</defs>
</svg>
