<svg width="989" height="741" viewBox="0 0 989 741" fill="none" xmlns="http://www.w3.org/2000/svg">
<g id="Group 1">
<g id="undraw_developer_activity_re_39tg 1" clip-path="url(#clip0_15_218)">
<path id="Vector" d="M904.878 385.54C904.989 477.209 869.556 565.352 806.028 631.44C802.198 635.45 798.265 639.363 794.228 643.18C788.078 649.03 781.721 654.653 775.158 660.05C713.76 710.634 637.112 739.059 557.578 740.74C554.928 740.8 552.268 740.83 549.598 740.83C486.168 740.83 406.388 706.95 333.988 660.05C327.998 656.17 322.061 652.2 316.178 648.14C313.428 646.26 310.691 644.353 307.968 642.42C280.044 622.702 253.539 601.049 228.648 577.62C212.351 562.325 197.068 545.983 182.898 528.7C127.268 460.08 114.998 398.25 194.308 385.54C203.698 384.04 212.811 382.436 221.648 380.73C234.448 378.27 246.698 375.613 258.398 372.76C274.158 368.93 288.965 364.776 302.818 360.3C307.478 358.8 312.031 357.27 316.478 355.71C382.218 332.62 426.218 302.51 456.168 269.84C461.248 264.31 465.931 258.713 470.218 253.05C476.777 244.429 482.734 235.368 488.048 225.93C495.383 212.816 501.543 199.079 506.458 184.88L506.728 184.1C530.558 115.36 523.308 51.5996 549.598 30.2596C661.978 -60.9704 801.888 68.9496 867.558 222.16C870.868 229.88 873.981 237.646 876.898 245.46C878.208 248.95 879.471 252.446 880.688 255.95C883.888 265.08 886.791 274.233 889.398 283.41C890.398 286.91 891.351 290.406 892.258 293.9C893.228 297.67 894.158 301.43 895.018 305.19C901.408 332.72 904.878 359.87 904.878 385.54Z" fill="#F2F2F2"/>
<path id="Vector_2" d="M565.098 180.05H542.838C542.148 180.05 541.487 180.324 541 180.811C540.512 181.299 540.238 181.96 540.238 182.649V204.919C540.238 205.26 540.306 205.598 540.437 205.912C540.568 206.227 540.759 206.513 541.001 206.754C541.242 206.994 541.529 207.185 541.844 207.314C542.159 207.444 542.497 207.51 542.838 207.509H565.098C565.786 207.51 566.446 207.237 566.933 206.752C567.421 206.266 567.696 205.607 567.698 204.919V182.649C567.696 181.96 567.421 181.3 566.934 180.813C566.447 180.326 565.787 180.052 565.098 180.05V180.05Z" fill="white"/>
<path id="Vector_3" d="M565.098 218H542.838C542.148 218 541.487 218.274 541 218.761C540.512 219.249 540.238 219.91 540.238 220.6V242.87C540.238 243.21 540.306 243.548 540.437 243.863C540.568 244.177 540.759 244.463 541.001 244.704C541.242 244.944 541.529 245.135 541.844 245.265C542.159 245.394 542.497 245.46 542.838 245.46H565.098C565.786 245.46 566.446 245.187 566.933 244.702C567.421 244.216 567.696 243.557 567.698 242.87V220.6C567.696 219.911 567.421 219.25 566.934 218.763C566.447 218.276 565.787 218.001 565.098 218Z" fill="#E6E6E6"/>
<path id="Vector_4" d="M565.098 255.949H542.838C542.148 255.95 541.487 256.224 541 256.711C540.512 257.199 540.238 257.86 540.238 258.55V280.81C540.237 281.151 540.304 281.49 540.435 281.805C540.565 282.121 540.756 282.408 540.998 282.649C541.24 282.891 541.526 283.083 541.842 283.213C542.158 283.343 542.496 283.41 542.838 283.409H565.098C565.787 283.409 566.448 283.135 566.936 282.648C567.424 282.16 567.698 281.499 567.698 280.81V258.55C567.696 257.861 567.421 257.2 566.934 256.713C566.447 256.226 565.787 255.951 565.098 255.949V255.949Z" fill="#E6E6E6"/>
<path id="Vector_5" d="M567.658 296.04C567.547 295.441 567.23 294.899 566.763 294.509C566.296 294.118 565.707 293.902 565.098 293.899H542.838C542.148 293.9 541.487 294.174 541 294.661C540.512 295.149 540.238 295.81 540.238 296.5V318.76C540.237 319.101 540.304 319.44 540.435 319.755C540.565 320.071 540.756 320.358 540.998 320.599C541.239 320.841 541.526 321.033 541.842 321.163C542.158 321.293 542.496 321.36 542.838 321.36H565.098C565.787 321.359 566.448 321.085 566.936 320.598C567.424 320.11 567.698 319.449 567.698 318.76V296.5C567.7 296.345 567.687 296.191 567.658 296.04V296.04Z" fill="#E6E6E6"/>
<path id="Vector_6" d="M566.108 332.05C565.788 331.917 565.445 331.849 565.098 331.85H542.838C542.496 331.849 542.158 331.916 541.842 332.046C541.527 332.177 541.24 332.368 540.998 332.61C540.757 332.851 540.565 333.138 540.435 333.454C540.304 333.77 540.238 334.108 540.238 334.45V356.71C540.237 357.051 540.303 357.39 540.433 357.706C540.563 358.023 540.755 358.31 540.996 358.552C541.238 358.793 541.525 358.985 541.841 359.115C542.157 359.245 542.496 359.311 542.838 359.31H565.098C565.788 359.309 566.449 359.035 566.936 358.548C567.424 358.06 567.698 357.399 567.698 356.71V334.45C567.697 333.938 567.546 333.438 567.263 333.011C566.98 332.585 566.579 332.25 566.108 332.05Z" fill="#E6E6E6"/>
<path id="Vector_7" d="M611.858 180.05H589.598C588.908 180.05 588.247 180.324 587.76 180.811C587.272 181.299 586.998 181.96 586.998 182.649V204.919C586.998 205.26 587.066 205.598 587.197 205.912C587.328 206.227 587.519 206.513 587.761 206.754C588.002 206.994 588.289 207.185 588.604 207.314C588.919 207.444 589.257 207.51 589.598 207.509H611.858C612.546 207.51 613.206 207.237 613.693 206.752C614.181 206.266 614.456 205.607 614.458 204.919V182.649C614.456 181.96 614.181 181.3 613.694 180.813C613.207 180.326 612.547 180.052 611.858 180.05V180.05Z" fill="#E6E6E6"/>
<path id="Vector_8" d="M611.858 218H589.598C588.908 218 588.247 218.274 587.76 218.761C587.272 219.249 586.998 219.91 586.998 220.6V242.87C586.998 243.21 587.066 243.548 587.197 243.863C587.328 244.177 587.519 244.463 587.761 244.704C588.002 244.944 588.289 245.135 588.604 245.265C588.919 245.394 589.257 245.46 589.598 245.46H611.858C612.546 245.46 613.206 245.187 613.693 244.702C614.181 244.216 614.456 243.557 614.458 242.87V220.6C614.456 219.911 614.181 219.25 613.694 218.763C613.207 218.276 612.547 218.001 611.858 218Z" fill="#538FB5"/>
<path id="Vector_9" d="M611.858 255.949H589.598C588.908 255.95 588.247 256.224 587.76 256.711C587.272 257.199 586.998 257.86 586.998 258.55V280.81C586.997 281.151 587.064 281.49 587.195 281.805C587.325 282.121 587.516 282.408 587.758 282.649C588 282.891 588.286 283.083 588.602 283.213C588.918 283.343 589.256 283.41 589.598 283.409H611.858C612.547 283.409 613.209 283.135 613.696 282.648C614.184 282.16 614.458 281.499 614.458 280.81V258.55C614.456 257.861 614.181 257.2 613.694 256.713C613.207 256.226 612.547 255.951 611.858 255.949V255.949Z" fill="#538FB5"/>
<path id="Vector_10" d="M611.858 293.899H589.598C589.053 293.9 588.522 294.072 588.08 294.392C587.638 294.711 587.309 295.162 587.138 295.679C587.045 295.943 586.998 296.22 586.998 296.499V318.759C586.997 319.101 587.064 319.439 587.195 319.755C587.325 320.071 587.516 320.358 587.758 320.599C587.999 320.841 588.286 321.033 588.602 321.163C588.918 321.293 589.256 321.36 589.598 321.359H611.858C612.547 321.359 613.209 321.085 613.696 320.598C614.184 320.11 614.458 319.449 614.458 318.759V296.499C614.456 295.811 614.181 295.15 613.694 294.663C613.207 294.176 612.547 293.901 611.858 293.899V293.899Z" fill="#538FB5"/>
<path id="Vector_11" d="M611.858 331.85H589.598C589.256 331.849 588.918 331.916 588.602 332.046C588.286 332.177 588 332.368 587.758 332.61C587.516 332.851 587.325 333.138 587.195 333.454C587.064 333.77 586.997 334.108 586.998 334.45V356.71C586.997 357.051 587.064 357.39 587.195 357.705C587.325 358.021 587.516 358.308 587.758 358.55C588 358.791 588.286 358.983 588.602 359.113C588.918 359.244 589.256 359.31 589.598 359.31H611.858C612.547 359.309 613.209 359.035 613.696 358.548C614.184 358.06 614.458 357.399 614.458 356.71V334.45C614.458 333.76 614.184 333.099 613.696 332.611C613.209 332.124 612.547 331.85 611.858 331.85V331.85Z" fill="#E6E6E6"/>
<path id="Vector_12" d="M658.618 180.05H636.358C635.668 180.05 635.007 180.324 634.52 180.811C634.032 181.299 633.758 181.96 633.758 182.649V204.919C633.758 205.26 633.826 205.598 633.957 205.912C634.088 206.227 634.279 206.513 634.521 206.754C634.762 206.994 635.049 207.185 635.364 207.314C635.679 207.444 636.017 207.51 636.358 207.509H658.618C659.306 207.51 659.966 207.237 660.453 206.752C660.941 206.266 661.216 205.607 661.218 204.919V182.649C661.216 181.96 660.941 181.3 660.454 180.813C659.967 180.326 659.307 180.052 658.618 180.05V180.05Z" fill="#538FB5"/>
<path id="Vector_13" d="M658.618 218H636.358C635.668 218 635.007 218.274 634.52 218.761C634.032 219.249 633.758 219.91 633.758 220.6V242.87C633.758 243.21 633.826 243.548 633.957 243.863C634.088 244.177 634.279 244.463 634.521 244.704C634.762 244.944 635.049 245.135 635.364 245.265C635.679 245.394 636.017 245.46 636.358 245.46H658.618C659.306 245.46 659.966 245.187 660.453 244.702C660.941 244.216 661.216 243.557 661.218 242.87V220.6C661.216 219.911 660.941 219.25 660.454 218.763C659.967 218.276 659.307 218.001 658.618 218Z" fill="#538FB5"/>
<path id="Vector_14" d="M658.618 255.949H636.358C635.668 255.95 635.007 256.224 634.52 256.711C634.032 257.199 633.758 257.86 633.758 258.55V280.81C633.757 281.151 633.824 281.49 633.955 281.805C634.085 282.121 634.276 282.408 634.518 282.649C634.76 282.891 635.046 283.083 635.362 283.213C635.678 283.343 636.016 283.41 636.358 283.409H658.618C659.307 283.409 659.969 283.135 660.456 282.648C660.944 282.16 661.218 281.499 661.218 280.81V258.55C661.216 257.861 660.941 257.2 660.454 256.713C659.967 256.226 659.307 255.951 658.618 255.949V255.949Z" fill="#E6E6E6"/>
<path id="Vector_15" d="M658.618 293.899H636.358C635.668 293.9 635.007 294.174 634.52 294.661C634.032 295.149 633.758 295.81 633.758 296.5V318.76C633.757 319.101 633.824 319.44 633.955 319.755C634.085 320.071 634.276 320.358 634.518 320.599C634.76 320.841 635.046 321.033 635.362 321.163C635.678 321.293 636.016 321.36 636.358 321.36H658.618C659.307 321.359 659.969 321.085 660.456 320.598C660.944 320.11 661.218 319.449 661.218 318.76V296.5C661.216 295.811 660.941 295.15 660.454 294.663C659.967 294.176 659.307 293.901 658.618 293.899V293.899Z" fill="#538FB5"/>
<path id="Vector_16" d="M658.618 331.85H636.358C636.016 331.849 635.678 331.916 635.362 332.046C635.046 332.177 634.76 332.368 634.518 332.61C634.276 332.851 634.085 333.138 633.955 333.454C633.824 333.77 633.757 334.108 633.758 334.45V356.71C633.757 357.051 633.824 357.39 633.955 357.705C634.085 358.021 634.276 358.308 634.518 358.55C634.76 358.791 635.046 358.983 635.362 359.113C635.678 359.244 636.016 359.31 636.358 359.31H658.618C659.307 359.309 659.969 359.035 660.456 358.548C660.944 358.06 661.218 357.399 661.218 356.71V334.45C661.218 333.76 660.944 333.099 660.456 332.611C659.969 332.124 659.307 331.85 658.618 331.85V331.85Z" fill="#538FB5"/>
<path id="Vector_17" d="M705.378 180.05H683.118C682.429 180.05 681.767 180.324 681.28 180.811C680.792 181.299 680.518 181.96 680.518 182.649V204.919C680.518 205.26 680.586 205.598 680.717 205.912C680.848 206.227 681.039 206.513 681.281 206.754C681.522 206.994 681.809 207.185 682.124 207.314C682.439 207.444 682.777 207.51 683.118 207.509H705.378C706.066 207.51 706.726 207.237 707.213 206.752C707.701 206.266 707.976 205.607 707.978 204.919V182.649C707.976 181.96 707.701 181.3 707.214 180.813C706.727 180.326 706.067 180.052 705.378 180.05V180.05Z" fill="#538FB5"/>
<path id="Vector_18" d="M705.378 218H683.118C682.429 218 681.767 218.274 681.28 218.761C680.792 219.249 680.518 219.91 680.518 220.6V242.87C680.518 243.21 680.586 243.548 680.717 243.863C680.848 244.177 681.039 244.463 681.281 244.704C681.522 244.944 681.809 245.135 682.124 245.265C682.439 245.394 682.777 245.46 683.118 245.46H705.378C706.066 245.46 706.726 245.187 707.213 244.702C707.701 244.216 707.976 243.557 707.978 242.87V220.6C707.976 219.911 707.702 219.25 707.214 218.763C706.727 218.276 706.067 218.001 705.378 218V218Z" fill="white"/>
<path id="Vector_19" d="M705.378 255.949H683.118C682.429 255.95 681.767 256.224 681.28 256.711C680.792 257.199 680.518 257.86 680.518 258.55V280.81C680.517 281.151 680.584 281.49 680.715 281.805C680.845 282.121 681.037 282.408 681.278 282.649C681.52 282.891 681.807 283.083 682.122 283.213C682.438 283.343 682.776 283.41 683.118 283.409H705.378C706.068 283.409 706.729 283.135 707.216 282.648C707.704 282.16 707.978 281.499 707.978 280.81V258.55C707.976 257.861 707.702 257.2 707.214 256.713C706.727 256.226 706.067 255.951 705.378 255.949V255.949Z" fill="white"/>
<path id="Vector_20" d="M705.378 293.899H683.118C682.429 293.9 681.767 294.174 681.28 294.661C680.792 295.149 680.518 295.81 680.518 296.5V318.76C680.517 319.101 680.584 319.44 680.715 319.755C680.845 320.071 681.037 320.358 681.278 320.6C681.52 320.841 681.807 321.033 682.122 321.163C682.438 321.293 682.776 321.36 683.118 321.36H705.378C706.068 321.359 706.729 321.085 707.216 320.598C707.704 320.11 707.978 319.449 707.978 318.76V296.5C707.976 295.811 707.702 295.15 707.214 294.663C706.727 294.176 706.067 293.901 705.378 293.899V293.899Z" fill="#E6E6E6"/>
<path id="Vector_21" d="M705.378 331.85H683.118C682.776 331.849 682.438 331.916 682.122 332.046C681.807 332.177 681.52 332.368 681.278 332.61C681.037 332.851 680.845 333.138 680.715 333.454C680.584 333.77 680.517 334.108 680.518 334.45V356.71C680.517 357.051 680.584 357.39 680.715 357.705C680.845 358.021 681.037 358.308 681.278 358.55C681.52 358.791 681.807 358.983 682.122 359.113C682.438 359.244 682.776 359.31 683.118 359.31H705.378C706.068 359.309 706.729 359.035 707.216 358.548C707.704 358.06 707.978 357.399 707.978 356.71V334.45C707.978 333.76 707.704 333.099 707.216 332.611C706.729 332.124 706.068 331.85 705.378 331.85V331.85Z" fill="#538FB5"/>
<path id="Vector_22" d="M752.138 180.05H729.868C729.18 180.052 728.521 180.327 728.036 180.814C727.55 181.302 727.278 181.962 727.278 182.649V204.919C727.278 205.606 727.551 206.265 728.037 206.751C728.522 207.236 729.181 207.509 729.868 207.509H752.138C752.826 207.51 753.486 207.237 753.973 206.752C754.461 206.266 754.736 205.607 754.738 204.919V182.649C754.736 181.96 754.461 181.3 753.974 180.813C753.487 180.326 752.827 180.052 752.138 180.05Z" fill="white"/>
<path id="Vector_23" d="M752.138 218H729.868C729.18 218.002 728.521 218.277 728.036 218.764C727.55 219.252 727.278 219.912 727.278 220.6V242.87C727.278 243.556 727.551 244.215 728.037 244.701C728.522 245.186 729.181 245.459 729.868 245.46H752.138C752.826 245.46 753.486 245.187 753.973 244.702C754.461 244.216 754.736 243.557 754.738 242.87V220.6C754.736 219.911 754.461 219.25 753.974 218.763C753.487 218.276 752.827 218.001 752.138 218V218Z" fill="white"/>
<path id="Vector_24" d="M752.138 255.949H729.868C729.18 255.952 728.521 256.227 728.036 256.714C727.55 257.202 727.278 257.862 727.278 258.55V280.81C727.277 281.15 727.343 281.488 727.473 281.803C727.603 282.119 727.793 282.405 728.034 282.647C728.274 282.888 728.56 283.08 728.875 283.211C729.19 283.342 729.527 283.409 729.868 283.409H752.138C752.827 283.409 753.488 283.135 753.976 282.648C754.464 282.16 754.738 281.499 754.738 280.81V258.55C754.736 257.861 754.461 257.2 753.974 256.713C753.487 256.226 752.827 255.951 752.138 255.949V255.949Z" fill="white"/>
<path id="Vector_25" d="M752.138 293.899H729.868C729.18 293.902 728.521 294.177 728.036 294.664C727.55 295.152 727.278 295.812 727.278 296.5V318.76C727.277 319.1 727.343 319.438 727.473 319.753C727.603 320.069 727.793 320.355 728.034 320.597C728.274 320.838 728.56 321.03 728.875 321.161C729.19 321.292 729.527 321.359 729.868 321.36H752.138C752.827 321.359 753.488 321.085 753.976 320.598C754.464 320.11 754.738 319.449 754.738 318.76V296.5C754.736 295.811 754.461 295.15 753.974 294.663C753.487 294.176 752.827 293.901 752.138 293.899V293.899Z" fill="#538FB5"/>
<path id="Vector_26" d="M752.138 331.85H729.868C729.527 331.85 729.19 331.918 728.875 332.048C728.56 332.179 728.274 332.371 728.034 332.613C727.793 332.854 727.603 333.141 727.473 333.456C727.343 333.771 727.277 334.109 727.278 334.45V356.71C727.277 357.05 727.343 357.388 727.473 357.703C727.603 358.019 727.793 358.305 728.034 358.547C728.274 358.788 728.56 358.98 728.875 359.111C729.19 359.242 729.527 359.309 729.868 359.31H752.138C752.827 359.309 753.488 359.035 753.976 358.548C754.464 358.06 754.738 357.399 754.738 356.71V334.45C754.738 333.76 754.464 333.099 753.976 332.611C753.488 332.124 752.827 331.85 752.138 331.85V331.85Z" fill="#E6E6E6"/>
<path id="Vector_27" d="M798.898 180.05H776.628C775.94 180.052 775.281 180.327 774.796 180.814C774.31 181.302 774.038 181.962 774.038 182.649V204.919C774.038 205.606 774.311 206.265 774.797 206.751C775.283 207.236 775.941 207.509 776.628 207.509H798.898C799.586 207.51 800.246 207.237 800.733 206.752C801.221 206.266 801.496 205.607 801.498 204.919V182.649C801.496 181.96 801.222 181.3 800.734 180.813C800.247 180.326 799.587 180.052 798.898 180.05V180.05Z" fill="white"/>
<path id="Vector_28" d="M798.898 218H776.628C775.94 218.002 775.281 218.277 774.796 218.764C774.31 219.252 774.038 219.912 774.038 220.6V242.87C774.038 243.556 774.311 244.215 774.797 244.701C775.283 245.186 775.941 245.459 776.628 245.46H798.898C799.586 245.46 800.246 245.187 800.733 244.702C801.221 244.216 801.496 243.557 801.498 242.87V220.6C801.496 219.911 801.222 219.25 800.734 218.763C800.247 218.276 799.587 218.002 798.898 218V218Z" fill="white"/>
<path id="Vector_29" d="M798.898 255.949H776.628C775.94 255.952 775.281 256.227 774.796 256.714C774.31 257.202 774.038 257.862 774.038 258.55V280.81C774.037 281.15 774.103 281.488 774.233 281.803C774.363 282.119 774.553 282.405 774.794 282.647C775.035 282.888 775.32 283.08 775.635 283.211C775.95 283.342 776.287 283.409 776.628 283.409H798.898C799.588 283.409 800.249 283.135 800.736 282.648C801.224 282.16 801.498 281.499 801.498 280.81V258.55C801.496 257.861 801.222 257.2 800.734 256.713C800.247 256.226 799.587 255.951 798.898 255.949V255.949Z" fill="#538FB5"/>
<path id="Vector_30" d="M798.898 293.899H776.628C775.94 293.902 775.281 294.177 774.796 294.664C774.31 295.152 774.038 295.812 774.038 296.5V318.76C774.037 319.1 774.103 319.438 774.233 319.753C774.363 320.069 774.553 320.355 774.794 320.597C775.035 320.838 775.32 321.03 775.635 321.161C775.95 321.292 776.287 321.359 776.628 321.36H798.898C799.588 321.359 800.249 321.085 800.736 320.598C801.224 320.11 801.498 319.449 801.498 318.76V296.5C801.496 295.811 801.222 295.15 800.734 294.663C800.247 294.176 799.587 293.901 798.898 293.899V293.899Z" fill="#E6E6E6"/>
<path id="Vector_31" d="M798.898 331.85H776.628C776.287 331.85 775.95 331.918 775.635 332.048C775.32 332.179 775.035 332.371 774.794 332.613C774.553 332.854 774.363 333.141 774.233 333.456C774.103 333.771 774.037 334.109 774.038 334.45V356.71C774.037 357.05 774.103 357.388 774.233 357.703C774.363 358.019 774.553 358.305 774.794 358.547C775.035 358.788 775.32 358.98 775.635 359.111C775.95 359.242 776.287 359.309 776.628 359.31H798.898C799.588 359.309 800.249 359.035 800.736 358.548C801.224 358.06 801.498 357.399 801.498 356.71V334.45C801.498 333.76 801.224 333.099 800.736 332.611C800.249 332.124 799.588 331.85 798.898 331.85Z" fill="white"/>
<path id="Vector_32" d="M845.658 180.05H823.388C822.7 180.052 822.041 180.327 821.556 180.814C821.07 181.302 820.798 181.962 820.798 182.649V204.919C820.798 205.606 821.071 206.265 821.557 206.751C822.042 207.236 822.701 207.509 823.388 207.509H845.658C846.346 207.51 847.006 207.237 847.493 206.752C847.981 206.266 848.256 205.607 848.258 204.919V182.649C848.256 181.96 847.981 181.3 847.494 180.813C847.007 180.326 846.347 180.052 845.658 180.05V180.05Z" fill="#538FB5"/>
<path id="Vector_33" d="M845.658 218H823.388C822.7 218.002 822.041 218.277 821.556 218.764C821.07 219.252 820.798 219.912 820.798 220.6V242.87C820.798 243.556 821.071 244.215 821.557 244.701C822.042 245.186 822.701 245.459 823.388 245.46H845.658C846.346 245.46 847.006 245.187 847.493 244.702C847.981 244.216 848.256 243.557 848.258 242.87V220.6C848.256 219.911 847.981 219.25 847.494 218.763C847.007 218.276 846.347 218.002 845.658 218Z" fill="#538FB5"/>
<path id="Vector_34" d="M845.658 255.949H823.388C822.7 255.952 822.041 256.227 821.556 256.714C821.07 257.202 820.798 257.862 820.798 258.55V280.81C820.797 281.15 820.863 281.488 820.993 281.803C821.123 282.119 821.313 282.405 821.554 282.647C821.794 282.888 822.08 283.08 822.395 283.211C822.71 283.342 823.047 283.409 823.388 283.409H845.658C846.347 283.409 847.009 283.135 847.496 282.648C847.984 282.16 848.258 281.499 848.258 280.81V258.55C848.256 257.861 847.981 257.2 847.494 256.713C847.007 256.226 846.347 255.951 845.658 255.949V255.949Z" fill="#E6E6E6"/>
<path id="Vector_35" d="M845.658 293.899H823.388C822.7 293.902 822.041 294.177 821.556 294.664C821.07 295.152 820.798 295.812 820.798 296.5V318.76C820.797 319.1 820.863 319.438 820.993 319.753C821.123 320.069 821.313 320.355 821.554 320.597C821.794 320.838 822.08 321.03 822.395 321.161C822.71 321.292 823.047 321.359 823.388 321.36H845.658C846.347 321.359 847.009 321.085 847.496 320.598C847.984 320.11 848.258 319.449 848.258 318.76V296.5C848.256 295.811 847.981 295.15 847.494 294.663C847.007 294.176 846.347 293.901 845.658 293.899V293.899Z" fill="white"/>
<path id="Vector_36" d="M845.658 331.85H823.388C823.047 331.85 822.71 331.918 822.395 332.048C822.08 332.179 821.794 332.371 821.554 332.613C821.313 332.854 821.123 333.141 820.993 333.456C820.863 333.771 820.797 334.109 820.798 334.45V356.71C820.797 357.05 820.863 357.388 820.993 357.703C821.123 358.019 821.313 358.305 821.554 358.547C821.794 358.788 822.08 358.98 822.395 359.111C822.71 359.242 823.047 359.309 823.388 359.31H845.658C846.347 359.309 847.009 359.035 847.496 358.548C847.984 358.06 848.258 357.399 848.258 356.71V334.45C848.258 333.76 847.984 333.099 847.496 332.611C847.009 332.124 846.347 331.85 845.658 331.85Z" fill="#538FB5"/>
<path id="Vector_37" d="M892.418 180.05H870.148C869.46 180.052 868.801 180.327 868.316 180.814C867.83 181.302 867.558 181.962 867.558 182.649V204.919C867.558 205.606 867.831 206.265 868.317 206.751C868.802 207.236 869.461 207.509 870.148 207.509H892.418C893.106 207.51 893.766 207.237 894.253 206.752C894.741 206.266 895.016 205.607 895.018 204.919V182.649C895.016 181.96 894.741 181.3 894.254 180.813C893.767 180.326 893.107 180.052 892.418 180.05Z" fill="#538FB5"/>
<path id="Vector_38" d="M892.418 218H870.148C869.46 218.002 868.801 218.277 868.316 218.764C867.83 219.252 867.558 219.912 867.558 220.6V242.87C867.558 243.556 867.831 244.215 868.317 244.701C868.802 245.186 869.461 245.459 870.148 245.46H892.418C893.106 245.46 893.766 245.187 894.253 244.702C894.741 244.216 895.016 243.557 895.018 242.87V220.6C895.016 219.911 894.741 219.25 894.254 218.763C893.767 218.276 893.107 218.002 892.418 218V218Z" fill="#538FB5"/>
<path id="Vector_39" d="M892.418 255.949H870.148C869.46 255.952 868.801 256.227 868.316 256.714C867.83 257.202 867.558 257.862 867.558 258.55V280.81C867.557 281.15 867.623 281.488 867.753 281.803C867.883 282.119 868.073 282.405 868.314 282.647C868.554 282.888 868.84 283.08 869.155 283.211C869.47 283.342 869.807 283.409 870.148 283.409H892.418C893.107 283.409 893.769 283.135 894.256 282.648C894.744 282.16 895.018 281.499 895.018 280.81V258.55C895.016 257.861 894.741 257.2 894.254 256.713C893.767 256.226 893.107 255.951 892.418 255.949Z" fill="#E6E6E6"/>
<path id="Vector_40" d="M892.418 293.899H870.148C869.46 293.902 868.801 294.177 868.316 294.664C867.83 295.152 867.558 295.812 867.558 296.5V318.76C867.557 319.1 867.623 319.438 867.753 319.753C867.883 320.069 868.073 320.355 868.314 320.597C868.554 320.838 868.84 321.03 869.155 321.161C869.47 321.292 869.807 321.359 870.148 321.36H892.418C893.107 321.359 893.769 321.085 894.256 320.598C894.744 320.11 895.018 319.449 895.018 318.76V296.5C895.016 295.811 894.741 295.15 894.254 294.663C893.767 294.176 893.107 293.901 892.418 293.899V293.899Z" fill="#538FB5"/>
<path id="Vector_41" d="M892.418 331.85H870.148C869.807 331.85 869.47 331.918 869.155 332.048C868.84 332.179 868.554 332.371 868.314 332.613C868.073 332.854 867.883 333.141 867.753 333.456C867.623 333.771 867.557 334.109 867.558 334.45V356.71C867.557 357.05 867.623 357.388 867.753 357.703C867.883 358.019 868.073 358.305 868.314 358.547C868.554 358.788 868.84 358.98 869.155 359.111C869.47 359.242 869.807 359.309 870.148 359.31H892.418C893.107 359.309 893.769 359.035 894.256 358.548C894.744 358.06 895.018 357.399 895.018 356.71V334.45C895.018 333.76 894.744 333.099 894.256 332.611C893.769 332.124 893.107 331.85 892.418 331.85V331.85Z" fill="#538FB5"/>
<path id="Vector_42" d="M939.178 180.05H916.908C916.22 180.052 915.561 180.327 915.076 180.814C914.59 181.302 914.318 181.962 914.318 182.649V204.919C914.318 205.606 914.591 206.265 915.077 206.751C915.562 207.236 916.221 207.509 916.908 207.509H939.178C939.866 207.51 940.526 207.237 941.013 206.752C941.501 206.266 941.776 205.607 941.778 204.919V182.649C941.776 181.96 941.501 181.3 941.014 180.813C940.527 180.326 939.867 180.052 939.178 180.05V180.05Z" fill="#E6E6E6"/>
<path id="Vector_43" d="M939.178 218H916.908C916.22 218.002 915.561 218.277 915.076 218.764C914.59 219.252 914.318 219.912 914.318 220.6V242.87C914.318 243.556 914.591 244.215 915.077 244.701C915.562 245.186 916.221 245.459 916.908 245.46H939.178C939.866 245.46 940.526 245.187 941.013 244.702C941.501 244.216 941.776 243.557 941.778 242.87V220.6C941.776 219.911 941.501 219.25 941.014 218.763C940.527 218.276 939.867 218.002 939.178 218V218Z" fill="#538FB5"/>
<path id="Vector_44" d="M939.178 255.949H916.908C916.22 255.952 915.561 256.227 915.076 256.714C914.59 257.202 914.318 257.862 914.318 258.55V280.81C914.317 281.15 914.383 281.488 914.513 281.803C914.643 282.119 914.833 282.405 915.074 282.647C915.314 282.888 915.6 283.08 915.915 283.211C916.23 283.342 916.567 283.409 916.908 283.409H939.178C939.867 283.409 940.529 283.135 941.016 282.648C941.504 282.16 941.778 281.499 941.778 280.81V258.55C941.776 257.861 941.501 257.2 941.014 256.713C940.527 256.226 939.867 255.951 939.178 255.949V255.949Z" fill="#538FB5"/>
<path id="Vector_45" d="M939.178 293.899H916.908C916.22 293.902 915.561 294.177 915.076 294.664C914.59 295.152 914.318 295.812 914.318 296.5V318.76C914.317 319.1 914.383 319.438 914.513 319.753C914.643 320.069 914.833 320.355 915.074 320.597C915.314 320.838 915.6 321.03 915.915 321.161C916.23 321.292 916.567 321.359 916.908 321.36H939.178C939.867 321.359 940.529 321.085 941.016 320.598C941.504 320.11 941.778 319.449 941.778 318.76V296.5C941.776 295.811 941.501 295.15 941.014 294.663C940.527 294.176 939.867 293.901 939.178 293.899V293.899Z" fill="#538FB5"/>
<path id="Vector_46" d="M939.178 331.85H916.908C916.567 331.85 916.23 331.918 915.915 332.048C915.6 332.179 915.314 332.371 915.074 332.613C914.833 332.854 914.643 333.141 914.513 333.456C914.383 333.771 914.317 334.109 914.318 334.45V356.71C914.317 357.05 914.383 357.388 914.513 357.703C914.643 358.019 914.833 358.305 915.074 358.547C915.314 358.788 915.6 358.98 915.915 359.111C916.23 359.242 916.567 359.309 916.908 359.31H939.178C939.867 359.309 940.529 359.035 941.016 358.548C941.504 358.06 941.778 357.399 941.778 356.71V334.45C941.778 333.76 941.504 333.099 941.016 332.611C940.529 332.124 939.867 331.85 939.178 331.85V331.85Z" fill="#E6E6E6"/>
<path id="Vector_47" d="M985.938 180.05H963.668C962.98 180.052 962.321 180.327 961.836 180.814C961.35 181.302 961.078 181.962 961.078 182.649V204.919C961.078 205.606 961.351 206.265 961.837 206.751C962.322 207.236 962.981 207.509 963.668 207.509H985.938C986.626 207.51 987.286 207.237 987.773 206.752C988.261 206.266 988.536 205.607 988.538 204.919V182.649C988.536 181.96 988.261 181.3 987.774 180.813C987.287 180.326 986.627 180.052 985.938 180.05V180.05Z" fill="#E6E6E6"/>
<path id="Vector_48" d="M985.938 218H963.668C962.98 218.002 962.321 218.277 961.836 218.764C961.35 219.252 961.078 219.912 961.078 220.6V242.87C961.078 243.556 961.351 244.215 961.837 244.701C962.322 245.186 962.981 245.459 963.668 245.46H985.938C986.626 245.46 987.286 245.187 987.773 244.702C988.261 244.216 988.536 243.557 988.538 242.87V220.6C988.536 219.911 988.261 219.25 987.774 218.763C987.287 218.276 986.627 218.002 985.938 218V218Z" fill="#E6E6E6"/>
<path id="Vector_49" d="M985.938 255.949H963.668C962.98 255.952 962.321 256.227 961.836 256.714C961.35 257.202 961.078 257.862 961.078 258.55V280.81C961.077 281.15 961.143 281.488 961.273 281.803C961.403 282.119 961.593 282.405 961.834 282.647C962.074 282.888 962.36 283.08 962.675 283.211C962.99 283.342 963.327 283.409 963.668 283.409H985.938C986.627 283.409 987.289 283.135 987.776 282.648C988.264 282.16 988.538 281.499 988.538 280.81V258.55C988.536 257.861 988.261 257.2 987.774 256.713C987.287 256.226 986.627 255.951 985.938 255.949V255.949Z" fill="#538FB5"/>
<path id="Vector_50" d="M985.938 293.899H963.668C962.98 293.902 962.321 294.177 961.836 294.664C961.35 295.152 961.078 295.812 961.078 296.5V318.76C961.077 319.1 961.143 319.438 961.273 319.753C961.403 320.069 961.593 320.355 961.834 320.597C962.074 320.838 962.36 321.03 962.675 321.161C962.99 321.292 963.327 321.359 963.668 321.36H985.938C986.627 321.359 987.289 321.085 987.776 320.598C988.264 320.11 988.538 319.449 988.538 318.76V296.5C988.536 295.811 988.261 295.15 987.774 294.663C987.287 294.176 986.627 293.901 985.938 293.899V293.899Z" fill="#E6E6E6"/>
<path id="Vector_51" d="M985.938 331.85H963.668C963.327 331.85 962.99 331.918 962.675 332.048C962.36 332.179 962.074 332.371 961.834 332.613C961.593 332.854 961.403 333.141 961.273 333.456C961.143 333.771 961.077 334.109 961.078 334.45V356.71C961.077 357.05 961.143 357.388 961.273 357.703C961.403 358.019 961.593 358.305 961.834 358.547C962.074 358.788 962.36 358.98 962.675 359.111C962.99 359.242 963.327 359.309 963.668 359.31H985.938C986.627 359.309 987.289 359.035 987.776 358.548C988.264 358.06 988.538 357.399 988.538 356.71V334.45C988.538 333.76 988.264 333.099 987.776 332.611C987.289 332.124 986.627 331.85 985.938 331.85V331.85Z" fill="#E6E6E6"/>
<path id="Vector_52" d="M474.095 660.051H473.475L474.005 659.981L474.095 660.051Z" fill="#2F2E41"/>
<path id="Vector_53" d="M806.028 631.439C802.198 635.449 798.265 639.363 794.228 643.179H698.018V631.439H806.028Z" fill="white"/>
<path id="Vector_54" d="M553.74 306.384C573.84 306.384 590.135 290.089 590.135 269.989C590.135 249.888 573.84 233.593 553.74 233.593C533.639 233.593 517.344 249.888 517.344 269.989C517.344 290.089 533.639 306.384 553.74 306.384Z" fill="#2F2E41"/>
<path id="Vector_55" d="M563.879 234.595C570.178 234.596 576.369 236.231 581.846 239.341C587.324 242.451 591.901 246.929 595.13 252.337C598.358 257.745 600.128 263.899 600.267 270.196C600.405 276.493 598.907 282.719 595.919 288.264C599.074 284.316 601.373 279.754 602.667 274.868C603.962 269.983 604.225 264.881 603.439 259.889C602.654 254.896 600.837 250.122 598.104 245.871C595.371 241.619 591.783 237.984 587.567 235.196C583.352 232.408 578.602 230.529 573.62 229.678C568.638 228.827 563.533 229.024 558.632 230.255C553.73 231.486 549.138 233.724 545.15 236.828C541.161 239.932 537.862 243.832 535.464 248.281C538.867 244.01 543.188 240.561 548.108 238.191C553.028 235.822 558.419 234.592 563.879 234.595V234.595Z" fill="#2F2E41"/>
<path id="Vector_56" d="M485.729 269.911C544.775 269.911 592.641 222.045 592.641 162.999C592.641 103.953 544.775 56.0864 485.729 56.0864C426.683 56.0864 378.816 103.953 378.816 162.999C378.816 222.045 426.683 269.911 485.729 269.911Z" fill="#2F2E41"/>
<path id="Vector_57" d="M401.82 96.6649C420.242 75.9469 445.993 63.1967 473.637 61.1052C501.282 59.0137 528.658 67.7445 549.987 85.4549C549.113 84.6239 548.248 83.7861 547.339 82.9785C526.145 64.1538 498.343 54.5165 470.045 56.1857C441.747 57.8548 415.271 70.6938 396.437 91.8796C377.603 113.065 367.954 140.864 369.611 169.162C371.268 197.461 384.096 223.943 405.273 242.786C406.182 243.593 407.115 244.354 408.043 245.125C387.956 226.017 376.078 199.852 374.917 172.153C373.756 144.454 383.402 117.387 401.82 96.6649Z" fill="#2F2E41"/>
<path id="Vector_58" d="M484.823 269.005C522.853 269.005 553.682 238.176 553.682 200.146C553.682 162.117 522.853 131.288 484.823 131.288C446.793 131.288 415.964 162.117 415.964 200.146C415.964 238.176 446.793 269.005 484.823 269.005Z" fill="#FFB8B8"/>
<path id="Vector_59" d="M519.999 287.698L446.31 291.011C446.31 291.011 452.461 329.119 412.595 332.743C372.729 336.368 336.488 325.495 321.991 352.676C307.494 379.857 313.743 476.642 313.743 476.642C313.743 476.642 340.924 574.494 362.669 588.991C384.414 603.488 574.682 583.555 574.682 583.555L654.31 483.011L651.613 405.472C650.205 364.981 613.236 334.58 573.42 342.073C572.638 342.221 571.85 342.379 571.058 342.549C571.058 342.549 562.31 336.011 538.31 324.011C523.633 316.673 519.999 287.698 519.999 287.698Z" fill="#CACACA"/>
<path id="Vector_60" d="M360.044 330.932C360.044 330.932 377.558 362.709 370.31 408.011C363.062 453.313 393.474 549.126 393.474 549.126L415.219 543.689C415.219 543.689 400.722 449.461 404.346 427.716C407.971 405.972 408.971 341.804 390.85 330.932C372.729 320.059 360.044 330.932 360.044 330.932Z" fill="#2F2E41"/>
<path id="Vector_61" d="M569.783 347.594L577.4 548.219L591.896 557.28C591.896 557.28 612.735 337.113 601.863 337.113H579.74C578.431 337.113 577.135 337.37 575.925 337.871C574.715 338.373 573.616 339.107 572.69 340.033C571.764 340.959 571.03 342.058 570.529 343.267C570.028 344.477 569.77 345.774 569.77 347.083C569.77 347.253 569.774 347.424 569.783 347.594Z" fill="#2F2E41"/>
<path id="Vector_62" d="M403.441 544.595C408.444 544.595 412.501 540.539 412.501 535.535C412.501 530.531 408.444 526.475 403.441 526.475C398.437 526.475 394.38 530.531 394.38 535.535C394.38 540.539 398.437 544.595 403.441 544.595Z" fill="#6C63FF"/>
<path id="Vector_63" d="M584.648 553.656C589.652 553.656 593.709 549.599 593.709 544.595C593.709 539.591 589.652 535.535 584.648 535.535C579.644 535.535 575.588 539.591 575.588 544.595C575.588 549.599 579.644 553.656 584.648 553.656Z" fill="#6C63FF"/>
<path id="Vector_64" d="M425.93 114.072V182.931H441.877L462.172 161.186L459.454 182.931H529.943L525.594 161.186L534.292 182.931H545.527V114.072H425.93Z" fill="#2F2E41"/>
<path id="Vector_65" d="M415.058 195.616C418.06 195.616 420.494 191.154 420.494 185.65C420.494 180.146 418.06 175.683 415.058 175.683C412.055 175.683 409.622 180.146 409.622 185.65C409.622 191.154 412.055 195.616 415.058 195.616Z" fill="#FFB8B8"/>
<path id="Vector_66" d="M554.588 195.616C557.59 195.616 560.024 191.154 560.024 185.65C560.024 180.146 557.59 175.683 554.588 175.683C551.585 175.683 549.151 180.146 549.151 185.65C549.151 191.154 551.585 195.616 554.588 195.616Z" fill="#FFB8B8"/>
<path id="Vector_67" d="M705.41 664.449V670.519C705.413 672.185 705.105 673.837 704.5 675.389C704.231 676.081 703.907 676.75 703.53 677.389C702.338 679.39 700.647 681.046 698.622 682.196C696.597 683.346 694.309 683.95 691.98 683.949H245.43C243.101 683.95 240.813 683.346 238.788 682.196C236.763 681.046 235.072 679.39 233.88 677.389C233.503 676.75 233.179 676.081 232.91 675.389C232.305 673.837 231.997 672.185 232 670.519V664.449C232 662.686 232.346 660.94 233.021 659.311C233.695 657.682 234.684 656.201 235.93 654.954C237.176 653.707 238.656 652.718 240.285 652.043C241.914 651.368 243.66 651.02 245.423 651.019H271.17V648.189C271.17 648.116 271.184 648.043 271.212 647.975C271.24 647.907 271.281 647.846 271.333 647.794C271.385 647.742 271.447 647.701 271.514 647.672C271.582 647.644 271.655 647.63 271.728 647.629H285.16C285.308 647.629 285.451 647.688 285.556 647.792C285.661 647.897 285.72 648.039 285.72 648.188V651.019H294.11V648.189C294.11 648.116 294.124 648.043 294.152 647.975C294.18 647.908 294.221 647.846 294.273 647.794C294.325 647.742 294.387 647.701 294.454 647.672C294.522 647.644 294.595 647.63 294.668 647.629H308.1C308.248 647.629 308.391 647.688 308.496 647.793C308.601 647.897 308.66 648.039 308.66 648.188V651.019H317.06V648.189C317.06 648.116 317.074 648.043 317.102 647.975C317.13 647.908 317.171 647.846 317.223 647.794C317.275 647.742 317.336 647.701 317.404 647.672C317.472 647.644 317.545 647.63 317.618 647.629H331.05C331.198 647.629 331.341 647.688 331.446 647.793C331.551 647.897 331.61 648.039 331.61 648.188V651.019H340V648.189C340 648.116 340.014 648.043 340.042 647.975C340.07 647.908 340.111 647.846 340.163 647.794C340.215 647.742 340.276 647.701 340.344 647.672C340.412 647.644 340.485 647.63 340.558 647.629H353.99C354.138 647.629 354.281 647.688 354.386 647.793C354.491 647.897 354.55 648.039 354.55 648.188V651.019H362.94V648.189C362.94 648.116 362.954 648.043 362.982 647.975C363.01 647.908 363.051 647.846 363.103 647.794C363.155 647.742 363.216 647.701 363.284 647.672C363.352 647.644 363.425 647.63 363.498 647.629H376.93C377.078 647.629 377.221 647.688 377.326 647.793C377.431 647.897 377.49 648.039 377.49 648.188V651.019H385.89V648.19C385.89 648.116 385.904 648.043 385.932 647.975C385.96 647.908 386.001 647.846 386.053 647.794C386.105 647.742 386.166 647.701 386.234 647.672C386.302 647.644 386.375 647.63 386.448 647.63H399.88C400.028 647.629 400.171 647.688 400.276 647.793C400.381 647.897 400.44 648.039 400.44 648.188V651.02H408.83V648.19C408.83 648.116 408.844 648.043 408.872 647.975C408.9 647.908 408.941 647.846 408.993 647.794C409.045 647.742 409.106 647.701 409.174 647.672C409.242 647.644 409.315 647.63 409.388 647.63H514.59C514.663 647.629 514.736 647.644 514.804 647.672C514.872 647.7 514.934 647.741 514.986 647.793C515.038 647.844 515.079 647.906 515.107 647.974C515.135 648.042 515.15 648.114 515.15 648.188V651.02H523.55V648.19C523.55 648.116 523.564 648.043 523.592 647.976C523.62 647.908 523.661 647.846 523.713 647.794C523.765 647.742 523.827 647.701 523.894 647.672C523.962 647.644 524.035 647.63 524.108 647.63H537.54C537.688 647.631 537.83 647.69 537.934 647.795C538.039 647.9 538.099 648.041 538.1 648.19V651.02H546.49V648.19C546.49 648.116 546.504 648.043 546.532 647.976C546.56 647.908 546.601 647.846 546.653 647.794C546.705 647.742 546.766 647.701 546.834 647.672C546.902 647.644 546.975 647.63 547.048 647.63H560.48C560.553 647.629 560.626 647.644 560.694 647.672C560.762 647.7 560.824 647.741 560.876 647.793C560.928 647.844 560.969 647.906 560.997 647.974C561.025 648.042 561.04 648.114 561.04 648.188V651.02H569.43V648.19C569.43 648.116 569.444 648.043 569.472 647.976C569.5 647.908 569.541 647.846 569.593 647.794C569.645 647.742 569.706 647.701 569.774 647.672C569.842 647.644 569.915 647.63 569.988 647.63H583.42C583.493 647.629 583.566 647.644 583.634 647.672C583.702 647.7 583.764 647.741 583.816 647.793C583.868 647.844 583.909 647.906 583.937 647.974C583.965 648.042 583.98 648.114 583.98 648.188V651.02H592.38V648.19C592.38 648.116 592.394 648.043 592.422 647.976C592.45 647.908 592.491 647.846 592.543 647.794C592.595 647.742 592.656 647.701 592.724 647.672C592.792 647.644 592.865 647.63 592.938 647.63H606.37C606.517 647.631 606.657 647.691 606.76 647.796C606.863 647.901 606.921 648.043 606.92 648.19V651.02H615.32V648.19C615.32 648.116 615.334 648.043 615.362 647.976C615.39 647.908 615.431 647.846 615.483 647.794C615.535 647.742 615.596 647.701 615.664 647.672C615.732 647.644 615.805 647.63 615.878 647.63H629.31C629.383 647.629 629.456 647.644 629.524 647.672C629.592 647.7 629.654 647.741 629.706 647.793C629.758 647.844 629.799 647.906 629.827 647.974C629.855 648.042 629.87 648.114 629.87 648.188V651.02H638.26V648.19C638.26 648.116 638.274 648.043 638.302 647.976C638.33 647.908 638.371 647.846 638.423 647.794C638.475 647.742 638.536 647.701 638.604 647.672C638.672 647.644 638.745 647.63 638.818 647.63H652.25C652.323 647.629 652.396 647.644 652.464 647.672C652.532 647.7 652.594 647.741 652.646 647.793C652.698 647.844 652.739 647.906 652.767 647.974C652.795 648.042 652.81 648.114 652.81 648.188V651.02H691.98C695.541 651.019 698.956 652.432 701.475 654.95C703.993 657.467 705.409 660.881 705.41 664.442L705.41 664.449Z" fill="#3F3D56"/>
<path id="Vector_68" d="M669.453 408.815H260.409C258.93 408.815 257.466 409.106 256.101 409.672C254.735 410.238 253.493 411.067 252.448 412.113C251.403 413.158 250.573 414.399 250.007 415.765C249.442 417.131 249.15 418.595 249.15 420.074V647.985C249.15 650.971 250.337 653.835 252.448 655.946C254.559 658.058 257.423 659.244 260.409 659.244H669.453C672.439 659.244 675.302 658.058 677.414 655.946C679.525 653.835 680.711 650.971 680.711 647.985V420.074C680.711 417.088 679.525 414.224 677.414 412.113C675.302 410.001 672.439 408.815 669.453 408.815Z" fill="#3F3D56"/>
<path id="Vector_69" d="M465.258 513.385C479.065 513.385 490.258 502.192 490.258 488.385C490.258 474.577 479.065 463.385 465.258 463.385C451.451 463.385 440.258 474.577 440.258 488.385C440.258 502.192 451.451 513.385 465.258 513.385Z" fill="#538FB5"/>
<path id="Vector_70" d="M331.058 292L247.465 164.997H208V163H248.018L248.212 163.297L332 290.596L331.058 292Z" fill="#3F3D56"/>
</g>
<path id="Vector_71" d="M0 113H134V126H0V113Z" fill="#538FB5"/>
<path id="Vector_72" d="M150 134H179V103H150V134ZM177.126 131.997H151.874V105.003H177.126L177.126 131.997Z" fill="#3F3D56"/>
<path id="Vector_73" d="M0 156H134V169H0V156Z" fill="#538FB5"/>
<path id="Vector_74" d="M150 177H179V147H150V177ZM177.126 175.062H151.874V148.938H177.126L177.126 175.062Z" fill="#3F3D56"/>
<path id="Vector_75" d="M0 200H134V213H0V200Z" fill="#538FB5"/>
<path id="Vector_76" d="M150 221H179V190H150V221ZM177.126 218.997H151.874V192.003H177.126L177.126 218.997Z" fill="#3F3D56"/>
</g>
<defs>
<clipPath id="clip0_15_218">
<rect width="850.538" height="740.83" fill="white" transform="translate(138)"/>
</clipPath>
</defs>
</svg>
