<svg width="565" height="597" viewBox="0 0 565 597" fill="none" xmlns="http://www.w3.org/2000/svg">
<g id="Group 2">
<g id="Group 1">
<g id="undraw_designer_girl_re_h54c 1">
<path id="Vector" d="M215.615 94.9669C230.361 94.9669 242.316 83.0126 242.316 68.2662C242.316 53.5198 230.361 41.5654 215.615 41.5654C200.868 41.5654 188.914 53.5198 188.914 68.2662C188.914 83.0126 200.868 94.9669 215.615 94.9669Z" fill="#FD6584"/>
<path id="Vector_2" d="M275.373 55.623C274.62 53.1539 273.162 50.9589 271.177 49.3083C269.192 47.6577 266.768 46.6235 264.203 46.333C264.143 46.328 264.083 46.328 264.023 46.333C263.951 46.3105 263.878 46.2938 263.803 46.283C254.863 45.123 244.923 47.943 238.233 54.083C235.75 56.3264 233.764 59.0652 232.403 62.123C231.163 60.4291 229.529 59.0629 227.642 58.1429C225.755 57.2229 223.672 56.7767 221.573 56.843C218.867 57.0219 216.282 58.0311 214.17 59.733C212.059 61.4348 210.523 63.7466 209.773 66.353C209.691 66.6714 209.714 67.008 209.838 67.3125C209.962 67.617 210.182 67.8732 210.463 68.043C211.268 68.7309 212.224 69.2176 213.253 69.463C215.463 69.933 217.693 70.363 219.923 70.753C224.283 71.513 228.667 72.1297 233.073 72.603C235.983 72.913 238.9 73.1597 241.823 73.343C247.863 73.723 253.933 73.813 259.983 73.623C262.983 73.523 265.863 73.423 268.603 72.103C270.6 71.1211 272.306 69.6355 273.553 67.793C274.728 66.0207 275.499 64.0125 275.813 61.9099C276.128 59.8073 275.978 57.6613 275.373 55.623V55.623Z" fill="#E5E5E5"/>
<path id="Vector_3" d="M220.443 94.523C220.392 93.4042 220.204 92.2959 219.883 91.223C219.126 88.7541 217.665 86.5599 215.679 84.9096C213.693 83.2593 211.269 82.2247 208.703 81.933C208.646 81.928 208.589 81.928 208.533 81.933C208.457 81.9115 208.381 81.8949 208.303 81.883C203.355 81.2769 198.334 81.793 193.613 83.393C186.353 85.823 179.983 90.7229 176.913 97.7229C175.671 96.0279 174.035 94.6612 172.146 93.7411C170.258 92.8211 168.173 92.3755 166.073 92.4429C163.367 92.6218 160.781 93.631 158.67 95.3329C156.558 97.0348 155.023 99.3465 154.273 101.953C154.195 102.271 154.22 102.606 154.344 102.91C154.468 103.213 154.684 103.47 154.963 103.643C155.768 104.329 156.724 104.815 157.753 105.063C159.973 105.533 162.193 105.963 164.433 106.353C168.793 107.113 173.173 107.73 177.573 108.203C186.512 109.163 195.507 109.503 204.493 109.223C207.483 109.123 210.373 109.023 213.113 107.703C215.107 106.721 216.809 105.235 218.053 103.393C219.806 100.781 220.646 97.6623 220.443 94.523Z" fill="#E5E5E5"/>
<path id="Vector_4" d="M418.13 431.48H393.79V51.51C392.15 50.3 390.5 49.1 388.83 47.93C388.5 47.7 388.17 47.47 387.84 47.24C368.589 33.7747 347.765 22.7127 325.83 14.3L321.11 79.4L321.11 79.404H290.74V3.39C288.76 2.9 286.78 2.43999 284.78 2.00999V79.404H170.1V0C168.11 0.37 166.12 0.750004 164.14 1.16V79.404H132.77L132.77 79.4L127.82 11.13C106.473 18.5294 86.0729 28.4175 67.0399 40.59C66.3799 41.01 65.72 41.43 65.06 41.87C63.73 42.73 62.4 43.61 61.09 44.5V431.48H26.8199C22.4354 431.477 18.1172 432.55 14.2438 434.605C10.3704 436.659 7.06019 439.633 4.60332 443.264C2.14646 446.896 0.617959 451.074 0.151876 455.434C-0.314207 459.794 0.29634 464.201 1.92998 468.27C2.42014 469.5 3.00524 470.69 3.67998 471.83C4.55147 473.316 5.56273 474.716 6.7 476.01C9.2122 478.873 12.3066 481.166 15.7763 482.737C19.246 484.309 23.0112 485.121 26.82 485.12H418.13C425.243 485.12 432.065 482.294 437.095 477.265C442.124 472.235 444.95 465.413 444.95 458.3C444.95 451.187 442.124 444.365 437.095 439.335C432.065 434.306 425.243 431.48 418.13 431.48L418.13 431.48ZM314.57 169.782L295.64 431.48H158.24L139.31 169.782H314.57ZM320.68 85.3629L316.01 149.919H290.74V85.3629H320.68ZM284.78 85.3629V149.919H239.148C238.234 148.126 236.842 146.62 235.126 145.569C233.411 144.517 231.437 143.96 229.425 143.96H223.466C221.454 143.96 219.48 144.517 217.765 145.569C216.049 146.62 214.657 148.126 213.743 149.919H170.1V85.3629H284.78ZM164.14 149.919H137.87L133.2 85.3629H164.14V149.919Z" fill="#CCCCCC"/>
<path id="Vector_5" d="M2.36768 474.727C11.0549 485.02 20.4512 494.694 30.4877 503.677L410.068 504.677C420.104 495.694 429.5 486.02 438.188 475.727L2.36768 474.727Z" fill="#3F3D56"/>
<path id="Vector_6" d="M194.058 377.917V480.477H265.908V377.917C265.909 377.179 265.674 376.461 265.237 375.867C264.799 375.273 264.183 374.835 263.478 374.617C263.146 374.507 262.798 374.453 262.448 374.457H197.528C197.073 374.456 196.622 374.545 196.201 374.718C195.781 374.892 195.398 375.146 195.076 375.468C194.754 375.789 194.498 376.171 194.323 376.591C194.149 377.011 194.059 377.462 194.058 377.917V377.917ZM222.098 413.157C222.117 411.135 222.934 409.203 224.37 407.78C225.806 406.357 227.746 405.559 229.768 405.559C231.79 405.559 233.73 406.357 235.166 407.78C236.603 409.203 237.419 411.135 237.438 413.157V425.057C237.428 427.084 236.615 429.025 235.178 430.455C233.741 431.885 231.796 432.688 229.768 432.688C227.741 432.688 225.796 431.885 224.358 430.455C222.921 429.025 222.108 427.084 222.098 425.057V413.157Z" fill="#2F2E41"/>
<path id="Vector_7" d="M193.838 477.197V487.087C193.84 487.599 194.043 488.09 194.404 488.453C194.766 488.816 195.256 489.023 195.768 489.027H264.198C264.711 489.024 265.202 488.819 265.563 488.455C265.925 488.092 266.128 487.6 266.128 487.087V477.197H193.838Z" fill="#3F3D56"/>
<path id="Vector_8" d="M81.0278 223.397V410.657C81.0297 413.043 81.9786 415.331 83.666 417.019C85.3534 418.706 87.6415 419.655 90.0278 419.657H367.528C369.914 419.655 372.202 418.706 373.89 417.019C375.577 415.331 376.526 413.043 376.528 410.657V223.397C376.522 221.012 375.572 218.728 373.885 217.043C372.198 215.358 369.912 214.41 367.528 214.407H90.0278C87.6435 214.41 85.3577 215.358 83.6708 217.043C81.9839 218.728 81.0335 221.012 81.0278 223.397V223.397Z" fill="#3F3D56"/>
<path id="Vector_9" d="M143.178 491.357C143.456 491.705 143.809 491.986 144.211 492.178C144.612 492.37 145.053 492.469 145.498 492.467H307.838C308.282 492.466 308.72 492.367 309.121 492.175C309.522 491.984 309.875 491.706 310.154 491.361C310.434 491.016 310.633 490.613 310.738 490.182C310.842 489.75 310.849 489.301 310.758 488.867L308.238 476.897C308.134 476.408 307.909 475.954 307.584 475.575C307.259 475.196 306.844 474.904 306.378 474.727C306.04 474.594 305.681 474.526 305.318 474.527H148.008C147.645 474.526 147.286 474.594 146.948 474.727C146.482 474.904 146.067 475.196 145.742 475.575C145.417 475.954 145.192 476.408 145.088 476.897L142.568 488.867C142.478 489.301 142.487 489.75 142.592 490.18C142.698 490.611 142.898 491.013 143.178 491.357Z" fill="#2F2E41"/>
<path id="Vector_10" d="M148.008 477.027C147.958 477.026 147.909 477.035 147.863 477.052C147.784 477.079 147.712 477.126 147.655 477.187C147.598 477.249 147.557 477.324 147.535 477.405L145.014 489.381C145.001 489.451 145.003 489.522 145.02 489.591C145.038 489.659 145.07 489.723 145.116 489.777L145.127 489.791C145.17 489.847 145.227 489.893 145.291 489.923C145.356 489.954 145.427 489.969 145.498 489.966H307.838C307.909 489.967 307.979 489.952 308.043 489.922C308.107 489.891 308.163 489.847 308.208 489.792C308.255 489.738 308.289 489.674 308.308 489.605C308.326 489.536 308.328 489.464 308.314 489.394L305.791 477.411C305.773 477.332 305.735 477.26 305.682 477.199C305.63 477.138 305.563 477.091 305.488 477.062C305.434 477.039 305.376 477.027 305.318 477.027H148.008Z" fill="white"/>
<path id="Vector_11" d="M101.121 246.063H356.444C356.71 246.058 356.962 245.948 357.148 245.758C357.334 245.568 357.437 245.314 357.437 245.048C357.437 244.783 357.334 244.528 357.148 244.338C356.962 244.148 356.71 244.039 356.444 244.033H101.121C100.856 244.039 100.603 244.148 100.417 244.338C100.232 244.528 100.128 244.783 100.128 245.048C100.128 245.314 100.232 245.568 100.417 245.758C100.603 245.948 100.856 246.058 101.121 246.063Z" fill="#3F3D56"/>
<path id="Vector_12" d="M339.064 238.848C342.351 238.848 345.015 236.125 345.015 232.765C345.015 229.406 342.351 226.682 339.064 226.682C335.778 226.682 333.114 229.406 333.114 232.765C333.114 236.125 335.778 238.848 339.064 238.848Z" fill="#3F3D56"/>
<path id="Vector_13" d="M318.509 238.848C321.795 238.848 324.459 236.125 324.459 232.765C324.459 229.406 321.795 226.682 318.509 226.682C315.222 226.682 312.558 229.406 312.558 232.765C312.558 236.125 315.222 238.848 318.509 238.848Z" fill="#3F3D56"/>
<path id="Vector_14" d="M297.952 238.848C301.239 238.848 303.903 236.125 303.903 232.765C303.903 229.406 301.239 226.682 297.952 226.682C294.666 226.682 292.002 229.406 292.002 232.765C292.002 236.125 294.666 238.848 297.952 238.848Z" fill="#3F3D56"/>
<path id="Vector_15" d="M112.409 229.297C112.409 229.44 112.436 229.583 112.491 229.716C112.545 229.849 112.625 229.97 112.726 230.072C112.828 230.175 112.948 230.256 113.081 230.311C113.213 230.367 113.355 230.396 113.499 230.397H128.099C128.388 230.39 128.662 230.27 128.864 230.064C129.066 229.857 129.179 229.58 129.179 229.292C129.179 229.003 129.066 228.726 128.864 228.519C128.662 228.313 128.388 228.193 128.099 228.187H113.499C113.208 228.19 112.93 228.309 112.725 228.517C112.521 228.725 112.407 229.005 112.409 229.297V229.297Z" fill="#3F3D56"/>
<path id="Vector_16" d="M112.409 233.447C112.409 233.59 112.436 233.733 112.491 233.866C112.545 233.999 112.625 234.12 112.726 234.223C112.828 234.325 112.948 234.406 113.08 234.461C113.213 234.517 113.355 234.546 113.499 234.547H128.099C128.388 234.54 128.663 234.421 128.865 234.215C129.067 234.008 129.18 233.731 129.18 233.442C129.18 233.153 129.067 232.875 128.865 232.669C128.663 232.462 128.388 232.343 128.099 232.337H113.499C113.208 232.34 112.93 232.459 112.725 232.667C112.521 232.875 112.407 233.155 112.409 233.447V233.447Z" fill="#3F3D56"/>
<path id="Vector_17" d="M112.409 237.587C112.407 237.878 112.521 238.158 112.725 238.366C112.93 238.574 113.208 238.693 113.499 238.697H128.099C128.388 238.69 128.662 238.57 128.864 238.364C129.066 238.157 129.179 237.88 129.179 237.592C129.179 237.303 129.066 237.026 128.864 236.819C128.662 236.613 128.388 236.493 128.099 236.487H113.499C113.355 236.487 113.213 236.516 113.08 236.572C112.948 236.627 112.828 236.709 112.726 236.811C112.625 236.913 112.545 237.034 112.491 237.167C112.436 237.3 112.409 237.443 112.409 237.587Z" fill="#3F3D56"/>
<path id="Vector_18" d="M180.112 305.604C179.814 305.271 179.517 304.938 179.217 304.606C176.848 301.986 174.306 299.396 171.053 297.894C169.501 297.156 167.808 296.763 166.09 296.744C164.318 296.793 162.57 297.174 160.938 297.868C160.162 298.178 159.404 298.529 158.656 298.904C157.803 299.334 156.964 299.792 156.13 300.254C154.563 301.121 153.017 302.026 151.491 302.969C148.454 304.845 145.513 306.865 142.667 309.028C141.192 310.15 139.747 311.308 138.332 312.504C137.016 313.614 135.727 314.754 134.465 315.924C134.195 316.173 133.792 315.77 134.062 315.521C134.395 315.211 134.731 314.903 135.068 314.599C136.018 313.739 136.984 312.896 137.965 312.07C139.754 310.56 141.59 309.109 143.471 307.716C146.397 305.549 149.424 303.528 152.552 301.655C154.114 300.72 155.699 299.823 157.305 298.967C157.79 298.708 158.28 298.455 158.776 298.216C159.902 297.648 161.072 297.172 162.275 296.792C163.978 296.241 165.78 296.064 167.558 296.273C169.275 296.522 170.929 297.095 172.433 297.959C175.627 299.744 178.104 302.505 180.515 305.199C180.759 305.473 180.357 305.878 180.112 305.604Z" fill="white"/>
<path id="Vector_19" d="M245.558 332.753L253.211 329.954L257.011 328.564C258.239 328.07 259.491 327.638 260.763 327.272C261.875 326.954 263.056 326.969 264.159 327.315C265.143 327.679 266.044 328.238 266.808 328.957C267.588 329.676 268.314 330.451 268.98 331.277C269.807 332.271 270.623 333.276 271.441 334.277C274.821 338.41 278.178 342.561 281.513 346.73C284.848 350.898 288.161 355.084 291.451 359.288C294.75 363.503 298.026 367.735 301.279 371.984C301.677 372.505 302.075 373.026 302.473 373.547C302.693 373.835 303.189 373.551 302.966 373.259C299.689 368.967 296.389 364.692 293.066 360.435C289.735 356.167 286.381 351.918 283.004 347.687C279.627 343.456 276.227 339.243 272.805 335.049C271.952 334.004 271.098 332.96 270.242 331.918C269.521 331.038 268.807 330.149 268.016 329.331C267.342 328.519 266.514 327.847 265.581 327.356C264.647 326.864 263.626 326.561 262.575 326.464C261.302 326.509 260.048 326.784 258.874 327.278C257.595 327.741 256.318 328.212 255.04 328.68L247.333 331.499L245.406 332.203C245.064 332.328 245.212 332.88 245.558 332.753V332.753Z" fill="white"/>
<path id="Vector_20" d="M170.045 301.191C168.079 300.222 165.889 299.794 163.702 299.95C161.515 300.106 159.409 300.842 157.601 302.081C164.418 303.257 171.161 304.831 177.795 306.794C175.04 305.18 172.885 302.65 170.045 301.191Z" fill="white"/>
<path id="Vector_21" d="M157.562 302.074L156.813 302.683C157.067 302.47 157.33 302.27 157.601 302.081L157.562 302.074Z" fill="white"/>
<path id="Vector_22" d="M266.519 332.781C265.849 331.794 264.915 331.014 263.824 330.531L262.772 330.573C270.781 344.725 281.598 357.091 294.559 366.912L266.519 332.781Z" fill="white"/>
<path id="Vector_23" d="M261.597 317.286C264.943 317.286 267.656 314.573 267.656 311.227C267.656 307.881 264.943 305.168 261.597 305.168C258.251 305.168 255.538 307.881 255.538 311.227C255.538 314.573 258.251 317.286 261.597 317.286Z" fill="white"/>
<path id="Vector_24" d="M349.522 378.557C350.715 378.556 351.859 378.081 352.702 377.237C353.546 376.394 354.02 375.25 354.022 374.057V281.057C354.022 279.864 353.548 278.719 352.704 277.875C351.86 277.031 350.715 276.557 349.522 276.557C348.328 276.557 347.184 277.031 346.34 277.875C345.496 278.719 345.022 279.864 345.022 281.057V374.057C345.024 375.25 345.498 376.394 346.342 377.237C347.186 378.081 348.329 378.556 349.522 378.557V378.557Z" fill="#3F3D56"/>
<path id="Vector_25" d="M349.522 378.557C350.715 378.556 351.859 378.081 352.702 377.237C353.546 376.394 354.02 375.25 354.022 374.057V354.337C353.504 353.631 352.826 353.056 352.044 352.66C351.263 352.264 350.398 352.057 349.522 352.057C348.646 352.057 347.781 352.264 347 352.66C346.218 353.056 345.54 353.631 345.022 354.337V374.057C345.024 375.25 345.498 376.394 346.342 377.237C347.186 378.081 348.329 378.556 349.522 378.557V378.557Z" fill="#2F2E41"/>
<path id="Vector_26" d="M349.522 359.557C350.805 359.555 352.035 359.045 352.942 358.138C353.849 357.231 354.359 356.001 354.361 354.718V333.509C353.804 332.749 353.075 332.131 352.234 331.705C351.394 331.279 350.464 331.057 349.522 331.057C348.579 331.057 347.65 331.279 346.809 331.705C345.968 332.131 345.24 332.749 344.682 333.509V354.718C344.684 356.001 345.195 357.231 346.102 358.138C347.009 359.045 348.239 359.555 349.522 359.557V359.557Z" fill="#6C63FF"/>
<path id="Vector_27" d="M349.522 355.701C350.458 355.7 351.355 355.327 352.017 354.665C352.678 354.004 353.051 353.107 353.052 352.171V336.702C352.645 336.148 352.114 335.697 351.501 335.386C350.887 335.076 350.21 334.914 349.522 334.914C348.835 334.914 348.157 335.076 347.544 335.386C346.93 335.697 346.399 336.148 345.992 336.702V352.171C345.994 353.107 346.366 354.004 347.028 354.665C347.689 355.327 348.586 355.7 349.522 355.701V355.701Z" fill="#3F3D56"/>
<path id="Vector_28" d="M210.698 483.036C209.908 482.328 209.431 481.336 209.372 480.277C209.313 479.218 209.676 478.179 210.381 477.388L249.697 433.396C250.047 433.004 250.471 432.685 250.944 432.458C251.418 432.23 251.931 432.097 252.456 432.068C252.98 432.038 253.505 432.113 254.001 432.286C254.497 432.46 254.954 432.729 255.345 433.079C255.737 433.429 256.056 433.853 256.284 434.326C256.512 434.799 256.644 435.313 256.674 435.837C256.703 436.362 256.629 436.887 256.455 437.383C256.282 437.879 256.012 438.335 255.662 438.727L216.347 482.719C215.639 483.509 214.647 483.986 213.588 484.045C212.529 484.105 211.49 483.742 210.698 483.036Z" fill="#6C63FF"/>
<path id="Vector_29" d="M536.85 555.466C536.85 562.756 535.13 568.336 535.34 572.796C523.545 577.945 511.418 582.294 499.04 585.816C497.64 586.216 496.24 586.596 494.83 586.976C487.2 563.616 479.56 542.226 476.55 539.956C469.66 534.786 466.21 556.176 466.21 551.006C466.21 545.836 469.66 545.836 461.05 538.946C452.43 532.056 457.6 501.046 457.6 501.046L445.54 470.036L459.03 420.576L476.55 356.326H493.78C493.78 356.326 494.29 356.696 495.14 357.386C499.45 360.906 512.45 372.666 511.01 385.616C510.58 389.476 511.54 400.696 513.21 415.636C518.29 460.746 529.96 509.786 529.96 522.726C529.96 539.956 536.85 545.126 536.85 555.466Z" fill="#E6E6E6"/>
<path id="Vector_30" d="M522.402 415.467C522.382 415.417 522.372 415.377 522.352 415.337C521.966 414.297 521.515 413.282 521.002 412.297C518.092 406.827 521.172 398.427 517.892 389.147C512.592 374.107 506.132 365.237 496.662 357.287C496.382 357.047 496.102 356.817 495.812 356.577L495.802 356.567C489.482 351.377 481.862 346.527 472.402 340.487C470.432 339.227 468.372 337.917 466.232 336.537C463.472 334.767 463.622 328.867 463.782 322.627C463.962 315.697 464.152 308.517 460.752 304.037L460.532 303.747L460.182 303.657C448.525 301.352 436.635 300.435 424.762 300.927H424.752C419.711 301.115 414.705 301.849 409.822 303.117C409.462 303.217 409.102 303.317 408.752 303.437C408.482 303.507 408.212 303.597 407.942 303.687L407.722 303.767L407.552 303.927C404.262 307.217 403.502 313.117 403.142 319.267V319.277C403.072 320.397 403.012 321.517 402.962 322.637C402.682 328.617 402.422 334.267 400.222 336.717C395.315 342.277 389.384 346.84 382.752 350.157C372.422 355.257 364.252 355.097 364.132 355.097L363.182 355.067L363.092 356.007C356.232 369.077 356.492 402.797 356.282 438.907C356.272 440.917 356.259 442.937 356.242 444.967C356.122 461.787 355.802 478.897 354.542 494.487C353.992 501.187 353.282 507.597 352.332 513.587C347.712 542.757 326.782 518.537 316.772 537.947C317.101 539.856 317.655 541.719 318.422 543.497C319.572 544.177 320.752 544.837 321.922 545.497C327.112 548.387 332.399 551.084 337.782 553.587C338.082 553.727 338.382 553.867 338.682 553.997C348.556 558.566 358.734 562.449 369.142 565.617C371.172 566.237 373.202 566.827 375.252 567.387C393.386 572.393 412.058 575.19 430.862 575.717C430.938 575.709 431.015 575.705 431.092 575.707C453.331 575.092 475.425 571.908 496.932 566.217C497.232 566.137 497.532 566.057 497.832 565.977C499.242 565.597 500.642 565.217 502.042 564.817C514.42 561.295 526.547 556.946 538.342 551.797C538.354 552.237 538.398 552.674 538.472 553.107C538.482 553.249 538.502 553.389 538.532 553.527C538.552 553.367 538.572 553.207 538.582 553.047C538.642 552.577 538.692 552.097 538.742 551.617C544.862 491.937 532.152 441.267 522.402 415.467Z" fill="#3F3D56"/>
<path id="Vector_31" d="M384.968 269.2C391.071 280.361 400.794 289.11 412.534 294.007C424.274 298.904 437.332 299.657 449.557 296.141C461.782 292.626 472.446 285.052 479.791 274.666C487.137 264.281 490.727 251.704 489.969 239.006C489.212 226.308 484.153 214.246 475.625 204.808C467.097 195.369 455.609 189.116 443.052 187.079C430.496 185.041 417.62 187.341 406.545 193.599C395.47 199.857 386.857 209.7 382.123 221.507C381.867 222.147 381.636 222.788 381.406 223.454C378.73 230.898 377.664 238.824 378.278 246.71C378.892 254.595 381.172 262.261 384.968 269.2V269.2Z" fill="#FFB6B6"/>
<path id="Vector_32" d="M376.921 223.454C379.33 216.714 378.279 220.225 380.714 213.511C379.125 219.457 381.636 222.788 381.406 223.454H448.064V184.705C428.535 176.966 410.533 167.674 399 182C398 178.5 377.777 188.788 370.511 196.055C363.244 203.322 359.161 213.178 359.161 223.454H376.921Z" fill="#2F2E41"/>
<path id="Vector_33" d="M400.549 331.168C400.601 330.451 400.678 329.707 400.78 328.99C401.498 323.711 403.292 318.636 405.111 313.613C407.033 308.206 408.981 302.773 410.929 297.365C408.421 307.181 409.185 317.547 413.107 326.888C424.358 318.124 417.259 298.083 431.969 298.083C467.335 298.083 503.727 269.405 503.727 234.013C503.727 198.647 488.555 172.199 453.189 172.199C417.797 172.199 389.094 188.396 388.402 223.762C431.969 234.013 392.323 327.58 400.549 331.168Z" fill="#2F2E41"/>
<path id="Vector_34" d="M563.232 422.747C563.092 424.857 562.969 427.104 562.862 429.487C560.742 474.377 562.572 534.807 548.282 567.597C545.082 569.347 541.849 571.021 538.582 572.617C538.452 572.677 538.332 572.737 538.222 572.797C537.342 573.227 536.462 573.647 535.582 574.047C535.55 574.075 535.512 574.095 535.472 574.107C525.808 578.673 515.849 582.585 505.662 585.817C504.412 586.217 503.152 586.597 501.892 586.977C501.622 587.057 501.352 587.137 501.082 587.217C481.889 592.893 462.047 596.083 442.042 596.707C441.002 596.737 439.982 596.757 438.992 596.777C438.642 596.787 438.302 596.797 437.962 596.797C436.842 596.807 435.732 596.817 434.612 596.817C432.352 596.817 430.102 596.784 427.862 596.717C409.058 596.19 390.386 593.393 372.252 588.387C370.202 587.827 368.172 587.237 366.142 586.617C355.734 583.449 345.556 579.566 335.682 574.997C335.382 574.867 335.082 574.727 334.782 574.587C329.402 572.087 324.115 569.391 318.922 566.497C317.752 565.837 316.572 565.177 315.422 564.497C314.655 562.719 314.101 560.856 313.772 558.947C311.502 548.037 309.682 555.397 308.382 532.697C307.192 511.887 306.432 491.017 306.152 479.087C306.062 475.907 306.032 473.357 306.022 471.617C307.082 464.037 324.122 455.437 348.972 447.267C351.322 446.497 353.752 445.727 356.242 444.967C362.962 442.897 370.142 440.867 377.642 438.907C396.742 433.907 417.952 429.317 439.002 425.527C449.392 423.667 459.742 421.997 469.792 420.577C487.422 418.077 504.102 416.347 518.372 415.637C519.742 415.567 521.082 415.507 522.402 415.467C523.822 415.407 525.212 415.367 526.572 415.337C547.132 414.887 561.172 417.027 563.232 422.747Z" fill="#2F2E41"/>
<path id="Vector_35" opacity="0.2" d="M563.232 422.747C563.092 424.857 562.969 427.104 562.862 429.487C547.282 412.707 379.442 487.667 308.382 532.697C307.192 511.887 306.432 491.017 306.152 479.087C306.062 475.907 306.032 473.357 306.022 471.617C307.082 464.037 324.122 455.437 348.972 447.267C351.322 446.497 353.752 445.727 356.242 444.967C362.962 442.897 370.142 440.867 377.642 438.907C396.742 433.907 417.952 429.317 439.002 425.527C449.392 423.667 459.742 421.997 469.792 420.577C487.422 418.077 504.102 416.347 518.372 415.637C519.742 415.567 521.082 415.507 522.402 415.467C523.822 415.407 525.212 415.367 526.572 415.337C547.132 414.887 561.172 417.027 563.232 422.747Z" fill="black"/>
<path id="Vector_36" d="M221.901 474.76C223.474 476.744 225.464 478.359 227.73 479.491C229.995 480.623 232.482 481.245 235.013 481.312C237.545 481.38 240.061 480.891 242.383 479.881C244.706 478.871 246.779 477.363 248.456 475.466L305.404 498.855L299.259 467.458L246.122 450.061C242.747 447.455 238.533 446.178 234.279 446.471C230.025 446.764 226.026 448.608 223.041 451.652C220.055 454.697 218.29 458.73 218.08 462.989C217.87 467.248 219.229 471.436 221.901 474.76V474.76Z" fill="#FFB6B6"/>
<path id="Vector_37" d="M411.335 344.02L411.023 343.987L377.814 346.398C373.598 346.704 369.495 347.903 365.777 349.916C362.06 351.929 358.814 354.709 356.253 358.073C355.063 359.631 354.033 361.306 353.178 363.07L353.169 363.076C350.307 368.933 349.444 375.568 350.713 381.964L366.348 460.666L328.729 457.248L314.997 459.595L298.793 453.058L265.541 453.623L264.771 456.172L257.795 479.295L257.248 481.112L308.023 513.109L322.744 508.631L329.679 513.958L330.011 513.966L343.764 514.238L402.411 515.388L418.443 486.987L420.947 482.534C439.566 440.825 444.16 411.708 442.703 391.649C441.939 381.05 439.488 372.993 436.522 366.922C427.349 348.159 411.981 344.178 411.335 344.02Z" fill="#3F3D56"/>
<path id="Vector_38" d="M546.5 369C559 373 549.273 372.42 561.5 369C549.859 361.355 554.785 334.776 546 314.444C539.859 300.232 532.428 290.766 527.017 279.64C521.396 268.072 523.5 246.5 523.5 246.317C523.5 230.817 527.378 221.085 518.5 205.317C509.623 189.549 501.392 173.075 479.983 169.317C458.574 165.577 438 162.317 422.5 168.317C412 170.817 404.339 173.164 398 177.317C390.5 180.817 384.73 186.534 381.182 192.914C378.113 198.956 378.02 206.233 382.587 211.667C387.155 217.101 396.923 219.883 404.278 216.861L400.015 208.351C413.202 211.869 421.775 230.622 419.995 241.49C418.238 252.34 410.18 261.845 402.005 270.706C393.831 279.566 385.117 288.519 381.604 299.111C376.544 314.345 383.384 330.998 396.033 343.211C408.681 355.424 426.507 363.713 444.964 369.811C458.781 374.379 473.14 377.859 487.83 380.2C485.206 376.185 482.606 372.169 479.983 368.153L511.113 382.963C517.133 383.424 523.199 383.7 529.266 383.792C546.927 384.032 557.499 383 563.5 375C569.5 367 533 357 543 366.5C542 355.5 559.5 372.5 561.5 369C546.515 370.084 555.5 371 546.5 369Z" fill="#2F2E41"/>
<path id="Vector_39" d="M80.264 418.499C80.5027 417.627 80.564 416.71 80.4437 415.81C80.3235 414.91 80.0245 414.048 79.5669 413.282C79.1093 412.516 78.5037 411.864 77.7908 411.37C77.078 410.875 76.2744 410.55 75.4343 410.416C75.123 410.357 74.8075 410.328 74.4914 410.327L36.4017 410.748C35.5477 410.772 34.7077 410.987 33.936 411.379C33.1644 411.771 32.478 412.332 31.9211 413.026C31.3841 412.925 30.8386 412.885 30.2937 412.908C29.1082 412.922 27.9369 413.186 26.8467 413.684C25.7565 414.183 24.7686 414.906 23.9396 415.813C23.1106 416.72 22.4566 417.793 22.015 418.97C21.5734 420.148 21.3529 421.407 21.366 422.675C21.379 423.944 21.6255 425.198 22.0913 426.364C22.557 427.531 23.2329 428.588 24.0805 429.475C25.7921 431.267 28.0988 432.258 30.493 432.23C31.8573 432.206 33.1994 431.856 34.4211 431.206L39.2752 471.132C39.6564 472.436 40.4217 473.573 41.4567 474.373C42.4918 475.173 43.7409 475.593 45.0175 475.57L69.7794 475.294C71.0466 475.269 72.2739 474.815 73.285 473.998C74.2962 473.18 75.0391 472.04 75.4073 470.742L80.264 418.499ZM30.4786 429.463C28.7691 429.482 27.1225 428.774 25.8999 427.495C24.6774 426.216 23.9786 424.471 23.9569 422.641C23.9352 420.812 24.5922 419.048 25.784 417.736C26.9757 416.424 28.6049 415.672 30.3143 415.644C30.4352 415.639 30.5439 415.696 30.6648 415.692C30.4312 416.809 30.4771 417.972 30.7977 419.064L33.6113 428.514C32.6672 429.129 31.5841 429.458 30.4786 429.463Z" fill="#2F2E41"/>
<path id="Vector_40" d="M61.2776 447C61.1729 447 61.0706 446.969 60.9838 446.91C60.897 446.851 60.8296 446.767 60.7903 446.669C60.7511 446.572 60.7417 446.464 60.7634 446.361C60.7851 446.258 60.8369 446.164 60.9121 446.09L65.5318 441.593L59.326 439.018C59.2621 438.992 59.204 438.953 59.155 438.904C59.106 438.855 59.0671 438.797 59.0405 438.733C59.0139 438.668 59.0002 438.6 59 438.53C58.9999 438.46 59.0133 438.392 59.0396 438.327C59.0659 438.263 59.1046 438.205 59.1534 438.155C59.2022 438.106 59.2601 438.067 59.3239 438.04C59.3877 438.014 59.4561 438 59.5252 438C59.5942 438 59.6626 438.014 59.7264 438.04L66.6744 440.923C66.7551 440.957 66.8263 441.01 66.8815 441.078C66.9367 441.146 66.9742 441.227 66.9906 441.313C67.007 441.399 67.0018 441.488 66.9755 441.572C66.9491 441.656 66.9025 441.731 66.8397 441.792L61.6431 446.851C61.5451 446.947 61.414 447 61.2776 447V447Z" fill="#538FB5"/>
<path id="Vector_41" d="M54.4455 451C54.4011 451 54.3569 450.993 54.3146 450.978C54.2586 450.958 54.2066 450.927 54.1615 450.885C54.1165 450.843 54.0791 450.792 54.0518 450.734C54.0244 450.676 54.0075 450.612 54.002 450.547C53.9965 450.481 54.0025 450.415 54.0197 450.352L58.1293 435.351C58.1644 435.225 58.2427 435.119 58.347 435.058C58.4514 434.996 58.5732 434.983 58.6858 435.022C58.7985 435.061 58.8928 435.149 58.948 435.266C59.0033 435.383 59.015 435.519 58.9807 435.646L54.8711 450.647C54.843 450.75 54.7865 450.839 54.7099 450.902C54.6333 450.966 54.5406 451 54.4455 451V451Z" fill="#538FB5"/>
<path id="Vector_42" d="M52.5335 448C52.4818 448 52.4305 447.99 52.3817 447.971L46.315 445.602C46.2417 445.574 46.1758 445.525 46.1233 445.461C46.0708 445.396 46.0333 445.317 46.0143 445.232C45.9953 445.147 45.9952 445.058 46.0142 444.973C46.0333 444.888 46.0707 444.809 46.1232 444.745L50.6353 439.173C50.6766 439.121 50.7265 439.08 50.7821 439.05C50.8377 439.021 50.8979 439.004 50.9593 439.001C51.0206 438.997 51.0819 439.008 51.1396 439.032C51.1973 439.056 51.2503 439.092 51.2956 439.139C51.3408 439.186 51.3774 439.243 51.4032 439.306C51.4291 439.369 51.4437 439.438 51.4462 439.507C51.4487 439.577 51.439 439.646 51.4178 439.712C51.3965 439.777 51.3641 439.837 51.3224 439.888L47.2923 444.864L52.6852 446.971C52.7896 447.011 52.8779 447.093 52.9343 447.2C52.9908 447.308 53.0118 447.435 52.9936 447.558C52.9754 447.682 52.9192 447.794 52.8349 447.875C52.7507 447.956 52.6439 448 52.5335 448V448Z" fill="#538FB5"/>
<path id="Vector_43" d="M354.556 225H102.444C101.265 225.003 100.134 225.469 99.3012 226.296C98.4681 227.123 98.0001 228.244 98 229.413V396.597C98.002 397.764 98.4709 398.883 99.3039 399.708C100.137 400.533 101.266 400.998 102.444 401H354.556C355.734 400.998 356.863 400.533 357.696 399.708C358.529 398.883 358.998 397.764 359 396.597V229.413C359 228.244 358.532 227.123 357.699 226.296C356.866 225.469 355.735 225.003 354.556 225V225Z" fill="#538FB5"/>
<path id="Vector_44" d="M342.081 248H105.919C105.673 247.994 105.44 247.886 105.268 247.699C105.096 247.513 105 247.261 105 247C105 246.739 105.096 246.487 105.268 246.301C105.44 246.114 105.673 246.006 105.919 246H342.081C342.327 246.006 342.56 246.114 342.732 246.301C342.904 246.487 343 246.739 343 247C343 247.261 342.904 247.513 342.732 247.699C342.56 247.886 342.327 247.994 342.081 248V248Z" fill="#3F3D56"/>
<path id="Vector_45" d="M122.5 241C125.538 241 128 238.538 128 235.5C128 232.462 125.538 230 122.5 230C119.462 230 117 232.462 117 235.5C117 238.538 119.462 241 122.5 241Z" fill="#3F3D56"/>
<path id="Vector_46" d="M141.5 241C144.538 241 147 238.538 147 235.5C147 232.462 144.538 230 141.5 230C138.462 230 136 232.462 136 235.5C136 238.538 138.462 241 141.5 241Z" fill="#3F3D56"/>
<path id="Vector_47" d="M160.5 241C163.538 241 166 238.538 166 235.5C166 232.462 163.538 230 160.5 230C157.462 230 155 232.462 155 235.5C155 238.538 157.462 241 160.5 241Z" fill="#3F3D56"/>
<path id="Vector_48" d="M330.025 232H316.966C316.708 232.006 316.462 232.114 316.281 232.301C316.101 232.488 316 232.739 316 233C316 233.261 316.101 233.512 316.281 233.699C316.462 233.886 316.708 233.994 316.966 234H330.025C330.285 233.996 330.533 233.889 330.715 233.702C330.898 233.515 331 233.263 331 233C331 232.737 330.898 232.485 330.715 232.298C330.533 232.111 330.285 232.004 330.025 232Z" fill="#3F3D56"/>
<path id="Vector_49" d="M330.024 235H316.967C316.708 235.009 316.462 235.17 316.282 235.451C316.101 235.731 316 236.108 316 236.5C316 236.892 316.101 237.269 316.282 237.549C316.462 237.829 316.708 237.991 316.967 238H330.024C330.284 237.995 330.532 237.835 330.715 237.554C330.898 237.274 331 236.895 331 236.5C331 236.105 330.898 235.726 330.715 235.446C330.532 235.165 330.284 235.005 330.024 235V235Z" fill="#3F3D56"/>
<path id="Vector_50" d="M330.025 239H316.966C316.708 239.006 316.462 239.114 316.281 239.301C316.101 239.488 316 239.739 316 240C316 240.261 316.101 240.512 316.281 240.699C316.462 240.886 316.708 240.994 316.966 241H330.025C330.285 240.996 330.533 240.889 330.715 240.702C330.898 240.515 331 240.263 331 240C331 239.737 330.898 239.485 330.715 239.298C330.533 239.111 330.285 239.004 330.025 239V239Z" fill="#3F3D56"/>
<path id="Vector_51" d="M126.383 270H121.617C120.172 270 119 271.119 119 272.5C119 273.881 120.172 275 121.617 275H126.383C127.828 275 129 273.881 129 272.5C129 271.119 127.828 270 126.383 270Z" fill="#E6E6E6"/>
<path id="Vector_52" d="M181.383 270H176.617C175.172 270 174 271.119 174 272.5C174 273.881 175.172 275 176.617 275H181.383C182.828 275 184 273.881 184 272.5C184 271.119 182.828 270 181.383 270Z" fill="#E6E6E6"/>
<path id="Vector_53" d="M197.383 270H192.617C191.172 270 190 271.119 190 272.5C190 273.881 191.172 275 192.617 275H197.383C198.828 275 200 273.881 200 272.5C200 271.119 198.828 270 197.383 270Z" fill="#E6E6E6"/>
<path id="Vector_54" d="M166.373 269H136.627C135.176 269 134 270.343 134 272C134 273.657 135.176 275 136.627 275H166.373C167.824 275 169 273.657 169 272C169 270.343 167.824 269 166.373 269Z" fill="#E6E6E6"/>
<path id="Vector_55" d="M240.373 269H210.627C209.176 269 208 270.343 208 272C208 273.657 209.176 275 210.627 275H240.373C241.824 275 243 273.657 243 272C243 270.343 241.824 269 240.373 269Z" fill="#E6E6E6"/>
<path id="Vector_56" d="M141.383 282H136.617C135.172 282 134 283.119 134 284.5C134 285.881 135.172 287 136.617 287H141.383C142.828 287 144 285.881 144 284.5C144 283.119 142.828 282 141.383 282Z" fill="#E6E6E6"/>
<path id="Vector_57" d="M196.383 282H191.617C190.172 282 189 283.119 189 284.5C189 285.881 190.172 287 191.617 287H196.383C197.828 287 199 285.881 199 284.5C199 283.119 197.828 282 196.383 282Z" fill="#E6E6E6"/>
<path id="Vector_58" d="M212.383 282H207.617C206.172 282 205 283.119 205 284.5C205 285.881 206.172 287 207.617 287H212.383C213.828 287 215 285.881 215 284.5C215 283.119 213.828 282 212.383 282Z" fill="#E6E6E6"/>
<path id="Vector_59" d="M181.373 281H151.627C150.176 281 149 282.119 149 283.5C149 284.881 150.176 286 151.627 286H181.373C182.824 286 184 284.881 184 283.5C184 282.119 182.824 281 181.373 281Z" fill="#E6E6E6"/>
<path id="Vector_60" d="M255.373 281H225.627C224.176 281 223 282.119 223 283.5C223 284.881 224.176 286 225.627 286H255.373C256.824 286 258 284.881 258 283.5C258 282.119 256.824 281 255.373 281Z" fill="#E6E6E6"/>
<path id="Vector_61" d="M156.122 294H150.878C149.289 294 148 295.119 148 296.5C148 297.881 149.289 299 150.878 299H156.122C157.711 299 159 297.881 159 296.5C159 295.119 157.711 294 156.122 294Z" fill="#E6E6E6"/>
<path id="Vector_62" d="M211.383 294H206.617C205.172 294 204 295.119 204 296.5C204 297.881 205.172 299 206.617 299H211.383C212.828 299 214 297.881 214 296.5C214 295.119 212.828 294 211.383 294Z" fill="#E6E6E6"/>
<path id="Vector_63" d="M227.383 294H222.617C221.172 294 220 295.119 220 296.5C220 297.881 221.172 299 222.617 299H227.383C228.828 299 230 297.881 230 296.5C230 295.119 228.828 294 227.383 294Z" fill="#E6E6E6"/>
<path id="Vector_64" d="M196.298 293H165.702C164.21 293 163 294.119 163 295.5C163 296.881 164.21 298 165.702 298H196.298C197.79 298 199 296.881 199 295.5C199 294.119 197.79 293 196.298 293Z" fill="#E6E6E6"/>
<path id="Vector_65" d="M270.298 293H239.702C238.21 293 237 294.119 237 295.5C237 296.881 238.21 298 239.702 298H270.298C271.79 298 273 296.881 273 295.5C273 294.119 271.79 293 270.298 293Z" fill="#E6E6E6"/>
<path id="Vector_66" d="M170.383 305H165.617C164.172 305 163 306.343 163 308C163 309.657 164.172 311 165.617 311H170.383C171.828 311 173 309.657 173 308C173 306.343 171.828 305 170.383 305Z" fill="#E6E6E6"/>
<path id="Vector_67" d="M226.383 305H221.617C220.172 305 219 306.343 219 308C219 309.657 220.172 311 221.617 311H226.383C227.828 311 229 309.657 229 308C229 306.343 227.828 305 226.383 305Z" fill="#E6E6E6"/>
<path id="Vector_68" d="M241.383 305H236.617C235.172 305 234 306.343 234 308C234 309.657 235.172 311 236.617 311H241.383C242.828 311 244 309.657 244 308C244 306.343 242.828 305 241.383 305Z" fill="#E6E6E6"/>
<path id="Vector_69" d="M211.298 305H180.702C179.21 305 178 306.119 178 307.5C178 308.881 179.21 310 180.702 310H211.298C212.79 310 214 308.881 214 307.5C214 306.119 212.79 305 211.298 305Z" fill="#E6E6E6"/>
<path id="Vector_70" d="M141.383 341H136.617C135.172 341 134 342.119 134 343.5C134 344.881 135.172 346 136.617 346H141.383C142.828 346 144 344.881 144 343.5C144 342.119 142.828 341 141.383 341Z" fill="#E6E6E6"/>
<path id="Vector_71" d="M196.383 341H191.617C190.172 341 189 342.119 189 343.5C189 344.881 190.172 346 191.617 346H196.383C197.828 346 199 344.881 199 343.5C199 342.119 197.828 341 196.383 341Z" fill="#E6E6E6"/>
<path id="Vector_72" d="M212.383 341H207.617C206.172 341 205 342.119 205 343.5C205 344.881 206.172 346 207.617 346H212.383C213.828 346 215 344.881 215 343.5C215 342.119 213.828 341 212.383 341Z" fill="#E6E6E6"/>
<path id="Vector_73" d="M181.373 341H151.627C150.176 341 149 342.343 149 344C149 345.657 150.176 347 151.627 347H181.373C182.824 347 184 345.657 184 344C184 342.343 182.824 341 181.373 341Z" fill="#E6E6E6"/>
<path id="Vector_74" d="M156.122 329H150.878C149.289 329 148 330.119 148 331.5C148 332.881 149.289 334 150.878 334H156.122C157.711 334 159 332.881 159 331.5C159 330.119 157.711 329 156.122 329Z" fill="#E6E6E6"/>
<path id="Vector_75" d="M211.383 329H206.617C205.172 329 204 330.119 204 331.5C204 332.881 205.172 334 206.617 334H211.383C212.828 334 214 332.881 214 331.5C214 330.119 212.828 329 211.383 329Z" fill="#E6E6E6"/>
<path id="Vector_76" d="M227.383 329H222.617C221.172 329 220 330.119 220 331.5C220 332.881 221.172 334 222.617 334H227.383C228.828 334 230 332.881 230 331.5C230 330.119 228.828 329 227.383 329Z" fill="#E6E6E6"/>
<path id="Vector_77" d="M196.298 329H165.702C164.21 329 163 330.343 163 332C163 333.657 164.21 335 165.702 335H196.298C197.79 335 199 333.657 199 332C199 330.343 197.79 329 196.298 329Z" fill="#E6E6E6"/>
<path id="Vector_78" d="M170.383 317H165.617C164.172 317 163 318.119 163 319.5C163 320.881 164.172 322 165.617 322H170.383C171.828 322 173 320.881 173 319.5C173 318.119 171.828 317 170.383 317Z" fill="#E6E6E6"/>
<path id="Vector_79" d="M226.383 317H221.617C220.172 317 219 318.119 219 319.5C219 320.881 220.172 322 221.617 322H226.383C227.828 322 229 320.881 229 319.5C229 318.119 227.828 317 226.383 317Z" fill="#E6E6E6"/>
<path id="Vector_80" d="M241.383 317H236.617C235.172 317 234 318.119 234 319.5C234 320.881 235.172 322 236.617 322H241.383C242.828 322 244 320.881 244 319.5C244 318.119 242.828 317 241.383 317Z" fill="#E6E6E6"/>
<path id="Vector_81" d="M211.298 318H180.702C179.21 318 178 319.119 178 320.5C178 321.881 179.21 323 180.702 323H211.298C212.79 323 214 321.881 214 320.5C214 319.119 212.79 318 211.298 318Z" fill="#E6E6E6"/>
</g>
</g>
</g>
</svg>
