<svg width="803" height="508" viewBox="0 0 803 508" fill="none" xmlns="http://www.w3.org/2000/svg">
<g id="undraw_software_engineer_re_fyew 1" clip-path="url(#clip0_15_622)">
<path id="Vector" d="M706.75 463.87L707.531 446.293C715.68 441.938 724.769 439.637 734.009 439.591C721.292 449.988 722.881 470.029 714.26 484.01C711.537 488.35 707.873 492.022 703.539 494.753C699.204 497.485 694.311 499.206 689.221 499.789L678.58 506.304C677.119 498.164 677.441 489.804 679.523 481.8C681.605 473.796 685.397 466.338 690.639 459.941C693.615 456.381 697.028 453.21 700.796 450.503C703.345 457.224 706.75 463.87 706.75 463.87Z" fill="#F2F2F2"/>
<path id="Vector_2" d="M168.799 444.609L143.118 436.834C139.75 423.151 139.773 408.852 143.186 395.18C153.761 417.889 183.978 423.089 201.392 441.096C206.781 446.754 210.827 453.552 213.231 460.986C215.635 468.421 216.336 476.3 215.28 484.042L220.901 502.223C208.321 501.315 196.087 497.69 185.042 491.599C173.998 485.508 164.405 477.094 156.925 466.938C152.785 461.199 149.384 454.962 146.803 448.373C157.695 447.138 168.799 444.609 168.799 444.609Z" fill="#F2F2F2"/>
<path id="Vector_3" d="M617.766 503.43C617.762 503.962 617.551 504.472 617.176 504.85C616.991 505.035 616.771 505.181 616.529 505.281C616.287 505.38 616.028 505.431 615.766 505.43H607.726C607.463 505.431 607.203 505.38 606.96 505.28C606.717 505.18 606.496 505.032 606.31 504.846C606.124 504.66 605.977 504.44 605.876 504.197C605.776 503.953 605.725 503.693 605.726 503.43V260.29C605.726 254.93 603.926 250.58 601.716 250.57H101.226C99.0061 250.58 97.2161 254.93 97.2061 260.29V501.94C97.2044 502.437 97.0184 502.916 96.684 503.283C96.3496 503.651 95.8906 503.881 95.3961 503.93C93.7761 504.09 92.1561 504.23 90.5461 504.36C90.5061 504.36 90.4661 504.37 90.4261 504.37C89.5461 504.45 88.6661 504.51 87.7861 504.58H87.7761C87.3161 503.75 86.8761 502.9 86.4261 502.05C86.2818 501.761 86.2065 501.443 86.2061 501.12V247.68C86.2061 246.2 86.2661 244.71 86.3661 243.24C86.5087 241.222 86.7591 239.212 87.1161 237.22C88.8061 227.93 92.6261 221.64 96.9661 221.62H605.966C606.599 221.624 607.225 221.757 607.806 222.01C608.659 222.388 609.43 222.928 610.076 223.6C610.953 224.512 611.703 225.538 612.306 226.65C614.446 230.42 615.976 236.04 616.516 242.58C616.516 242.64 616.526 242.7 616.526 242.76C616.666 244.38 616.736 246.03 616.726 247.68L616.866 269.11L616.956 281.89L617.226 321.99L617.326 336.23L617.766 503.43Z" fill="#E6E6E6"/>
<path id="Vector_4" d="M432.018 147.487H381.012C380.291 147.488 379.599 147.775 379.09 148.286C378.58 148.797 378.294 149.489 378.295 150.211V230.785H434.742V150.211C434.742 149.853 434.672 149.499 434.535 149.168C434.398 148.838 434.198 148.537 433.945 148.284C433.692 148.031 433.391 147.83 433.061 147.694C432.73 147.557 432.376 147.486 432.018 147.487V147.487ZM406.687 193.268C405.092 193.26 403.564 192.623 402.436 191.495C401.308 190.367 400.671 188.84 400.664 187.245V177.951C400.664 176.354 401.298 174.822 402.428 173.692C403.557 172.563 405.089 171.928 406.687 171.928C408.284 171.928 409.816 172.563 410.945 173.692C412.075 174.822 412.71 176.354 412.71 177.951V187.245C412.702 188.84 412.065 190.367 410.937 191.495C409.809 192.623 408.282 193.26 406.687 193.268V193.268Z" fill="#CCCCCC"/>
<path id="Vector_5" d="M378.119 228.207V235.981C378.12 236.384 378.28 236.77 378.565 237.055C378.85 237.34 379.236 237.5 379.639 237.501H433.397C433.799 237.499 434.185 237.338 434.469 237.053C434.754 236.769 434.914 236.383 434.917 235.981V228.207H378.119Z" fill="#3F3D56"/>
<path id="Vector_6" d="M516.478 21.7419H298.449C296.576 21.7449 294.78 22.4904 293.456 23.8149C292.131 25.1395 291.386 26.9351 291.383 28.8083V175.935C291.385 177.809 292.13 179.605 293.454 180.93C294.779 182.255 296.576 183 298.449 183.002H516.478C518.352 183 520.148 182.255 521.473 180.93C522.798 179.605 523.543 177.809 523.545 175.935V28.8083C523.542 26.9351 522.796 25.1395 521.472 23.8149C520.147 22.4904 518.351 21.7449 516.478 21.7419V21.7419Z" fill="#E6E6E6"/>
<path id="Vector_7" d="M514.658 26.8459H300.27C299.267 26.8481 298.306 27.2481 297.598 27.958C296.889 28.668 296.491 29.63 296.491 30.6329V174.113C296.493 175.115 296.892 176.075 297.6 176.783C298.308 177.492 299.269 177.891 300.27 177.892H514.658C515.66 177.891 516.62 177.492 517.328 176.783C518.036 176.075 518.435 175.115 518.437 174.113V30.6329C518.437 29.6299 518.039 28.668 517.33 27.958C516.622 27.2481 515.661 26.8481 514.658 26.8459V26.8459Z" fill="white"/>
<path id="Vector_8" d="M472.899 240.206H345.35C345.001 240.206 344.656 240.128 344.341 239.978C344.026 239.828 343.748 239.609 343.528 239.338C343.308 239.067 343.152 238.75 343.07 238.411C342.988 238.071 342.982 237.718 343.054 237.376L345.033 227.976C345.146 227.451 345.435 226.979 345.853 226.64C346.27 226.301 346.791 226.115 347.329 226.114H470.92C471.458 226.115 471.979 226.301 472.397 226.64C472.814 226.979 473.103 227.451 473.216 227.976L475.195 237.376C475.267 237.718 475.262 238.071 475.18 238.411C475.098 238.75 474.941 239.067 474.721 239.338C474.501 239.609 474.223 239.828 473.908 239.978C473.593 240.128 473.248 240.206 472.899 240.206V240.206Z" fill="#CCCCCC"/>
<path id="Vector_9" d="M351.675 227.806H348.723C348.453 227.806 348.234 228.025 348.234 228.294V229.675C348.234 229.945 348.453 230.163 348.723 230.163H351.675C351.944 230.163 352.163 229.945 352.163 229.675V228.294C352.163 228.025 351.944 227.806 351.675 227.806Z" fill="#E6E6E6"/>
<path id="Vector_10" d="M359.532 227.806H356.58C356.31 227.806 356.092 228.025 356.092 228.294V229.675C356.092 229.945 356.31 230.163 356.58 230.163H359.532C359.802 230.163 360.02 229.945 360.02 229.675V228.294C360.02 228.025 359.802 227.806 359.532 227.806Z" fill="#E6E6E6"/>
<path id="Vector_11" d="M367.388 227.806H364.436C364.167 227.806 363.948 228.025 363.948 228.294V229.675C363.948 229.945 364.167 230.163 364.436 230.163H367.388C367.658 230.163 367.877 229.945 367.877 229.675V228.294C367.877 228.025 367.658 227.806 367.388 227.806Z" fill="#E6E6E6"/>
<path id="Vector_12" d="M375.245 227.806H372.293C372.023 227.806 371.805 228.025 371.805 228.294V229.675C371.805 229.945 372.023 230.163 372.293 230.163H375.245C375.514 230.163 375.733 229.945 375.733 229.675V228.294C375.733 228.025 375.514 227.806 375.245 227.806Z" fill="#E6E6E6"/>
<path id="Vector_13" d="M383.102 227.806H380.15C379.881 227.806 379.662 228.025 379.662 228.294V229.675C379.662 229.945 379.881 230.163 380.15 230.163H383.102C383.372 230.163 383.59 229.945 383.59 229.675V228.294C383.59 228.025 383.372 227.806 383.102 227.806Z" fill="#E6E6E6"/>
<path id="Vector_14" d="M390.959 227.806H388.007C387.737 227.806 387.519 228.025 387.519 228.294V229.675C387.519 229.945 387.737 230.163 388.007 230.163H390.959C391.228 230.163 391.447 229.945 391.447 229.675V228.294C391.447 228.025 391.228 227.806 390.959 227.806Z" fill="#E6E6E6"/>
<path id="Vector_15" d="M398.815 227.806H395.863C395.594 227.806 395.375 228.025 395.375 228.294V229.675C395.375 229.945 395.594 230.163 395.863 230.163H398.815C399.085 230.163 399.303 229.945 399.303 229.675V228.294C399.303 228.025 399.085 227.806 398.815 227.806Z" fill="#E6E6E6"/>
<path id="Vector_16" d="M406.673 227.806H403.721C403.451 227.806 403.232 228.025 403.232 228.294V229.675C403.232 229.945 403.451 230.163 403.721 230.163H406.673C406.942 230.163 407.161 229.945 407.161 229.675V228.294C407.161 228.025 406.942 227.806 406.673 227.806Z" fill="#E6E6E6"/>
<path id="Vector_17" d="M414.529 227.806H411.577C411.307 227.806 411.089 228.025 411.089 228.294V229.675C411.089 229.945 411.307 230.163 411.577 230.163H414.529C414.799 230.163 415.017 229.945 415.017 229.675V228.294C415.017 228.025 414.799 227.806 414.529 227.806Z" fill="#E6E6E6"/>
<path id="Vector_18" d="M422.386 227.806H419.434C419.164 227.806 418.945 228.025 418.945 228.294V229.675C418.945 229.945 419.164 230.163 419.434 230.163H422.386C422.655 230.163 422.874 229.945 422.874 229.675V228.294C422.874 228.025 422.655 227.806 422.386 227.806Z" fill="#E6E6E6"/>
<path id="Vector_19" d="M430.243 227.806H427.291C427.021 227.806 426.803 228.025 426.803 228.294V229.675C426.803 229.945 427.021 230.163 427.291 230.163H430.243C430.513 230.163 430.731 229.945 430.731 229.675V228.294C430.731 228.025 430.513 227.806 430.243 227.806Z" fill="#E6E6E6"/>
<path id="Vector_20" d="M438.099 227.806H435.147C434.878 227.806 434.659 228.025 434.659 228.294V229.675C434.659 229.945 434.878 230.163 435.147 230.163H438.099C438.369 230.163 438.588 229.945 438.588 229.675V228.294C438.588 228.025 438.369 227.806 438.099 227.806Z" fill="#E6E6E6"/>
<path id="Vector_21" d="M445.956 227.806H443.004C442.734 227.806 442.516 228.025 442.516 228.294V229.675C442.516 229.945 442.734 230.163 443.004 230.163H445.956C446.225 230.163 446.444 229.945 446.444 229.675V228.294C446.444 228.025 446.225 227.806 445.956 227.806Z" fill="#E6E6E6"/>
<path id="Vector_22" d="M453.813 227.806H450.861C450.592 227.806 450.373 228.025 450.373 228.294V229.675C450.373 229.945 450.592 230.163 450.861 230.163H453.813C454.083 230.163 454.301 229.945 454.301 229.675V228.294C454.301 228.025 454.083 227.806 453.813 227.806Z" fill="#E6E6E6"/>
<path id="Vector_23" d="M461.67 227.806H458.718C458.448 227.806 458.229 228.025 458.229 228.294V229.675C458.229 229.945 458.448 230.163 458.718 230.163H461.67C461.939 230.163 462.158 229.945 462.158 229.675V228.294C462.158 228.025 461.939 227.806 461.67 227.806Z" fill="#E6E6E6"/>
<path id="Vector_24" d="M469.526 227.806H466.574C466.305 227.806 466.086 228.025 466.086 228.294V229.675C466.086 229.945 466.305 230.163 466.574 230.163H469.526C469.796 230.163 470.014 229.945 470.014 229.675V228.294C470.014 228.025 469.796 227.806 469.526 227.806Z" fill="#E6E6E6"/>
<path id="Vector_25" d="M351.582 231.735H348.63C348.36 231.735 348.142 231.953 348.142 232.223V233.603C348.142 233.873 348.36 234.092 348.63 234.092H351.582C351.851 234.092 352.07 233.873 352.07 233.603V232.223C352.07 231.953 351.851 231.735 351.582 231.735Z" fill="#E6E6E6"/>
<path id="Vector_26" d="M359.439 231.735H356.487C356.218 231.735 355.999 231.953 355.999 232.223V233.603C355.999 233.873 356.218 234.092 356.487 234.092H359.439C359.709 234.092 359.927 233.873 359.927 233.603V232.223C359.927 231.953 359.709 231.735 359.439 231.735Z" fill="#E6E6E6"/>
<path id="Vector_27" d="M367.296 231.735H364.344C364.074 231.735 363.855 231.953 363.855 232.223V233.603C363.855 233.873 364.074 234.092 364.344 234.092H367.296C367.565 234.092 367.784 233.873 367.784 233.603V232.223C367.784 231.953 367.565 231.735 367.296 231.735Z" fill="#E6E6E6"/>
<path id="Vector_28" d="M375.152 231.735H372.2C371.93 231.735 371.712 231.953 371.712 232.223V233.603C371.712 233.873 371.93 234.092 372.2 234.092H375.152C375.422 234.092 375.64 233.873 375.64 233.603V232.223C375.64 231.953 375.422 231.735 375.152 231.735Z" fill="#E6E6E6"/>
<path id="Vector_29" d="M383.01 231.735H380.058C379.788 231.735 379.569 231.953 379.569 232.223V233.603C379.569 233.873 379.788 234.092 380.058 234.092H383.01C383.279 234.092 383.498 233.873 383.498 233.603V232.223C383.498 231.953 383.279 231.735 383.01 231.735Z" fill="#E6E6E6"/>
<path id="Vector_30" d="M390.866 231.735H387.914C387.644 231.735 387.426 231.953 387.426 232.223V233.603C387.426 233.873 387.644 234.092 387.914 234.092H390.866C391.136 234.092 391.354 233.873 391.354 233.603V232.223C391.354 231.953 391.136 231.735 390.866 231.735Z" fill="#E6E6E6"/>
<path id="Vector_31" d="M398.722 231.735H395.77C395.501 231.735 395.282 231.953 395.282 232.223V233.603C395.282 233.873 395.501 234.092 395.77 234.092H398.722C398.992 234.092 399.211 233.873 399.211 233.603V232.223C399.211 231.953 398.992 231.735 398.722 231.735Z" fill="#E6E6E6"/>
<path id="Vector_32" d="M406.58 231.735H403.628C403.358 231.735 403.14 231.953 403.14 232.223V233.603C403.14 233.873 403.358 234.092 403.628 234.092H406.58C406.849 234.092 407.068 233.873 407.068 233.603V232.223C407.068 231.953 406.849 231.735 406.58 231.735Z" fill="#E6E6E6"/>
<path id="Vector_33" d="M414.436 231.735H411.484C411.215 231.735 410.996 231.953 410.996 232.223V233.603C410.996 233.873 411.215 234.092 411.484 234.092H414.436C414.706 234.092 414.924 233.873 414.924 233.603V232.223C414.924 231.953 414.706 231.735 414.436 231.735Z" fill="#E6E6E6"/>
<path id="Vector_34" d="M422.293 231.735H419.341C419.071 231.735 418.853 231.953 418.853 232.223V233.603C418.853 233.873 419.071 234.092 419.341 234.092H422.293C422.562 234.092 422.781 233.873 422.781 233.603V232.223C422.781 231.953 422.562 231.735 422.293 231.735Z" fill="#E6E6E6"/>
<path id="Vector_35" d="M430.15 231.735H427.198C426.929 231.735 426.71 231.953 426.71 232.223V233.603C426.71 233.873 426.929 234.092 427.198 234.092H430.15C430.42 234.092 430.638 233.873 430.638 233.603V232.223C430.638 231.953 430.42 231.735 430.15 231.735Z" fill="#E6E6E6"/>
<path id="Vector_36" d="M438.007 231.735H435.055C434.785 231.735 434.566 231.953 434.566 232.223V233.603C434.566 233.873 434.785 234.092 435.055 234.092H438.007C438.276 234.092 438.495 233.873 438.495 233.603V232.223C438.495 231.953 438.276 231.735 438.007 231.735Z" fill="#E6E6E6"/>
<path id="Vector_37" d="M445.863 231.735H442.911C442.641 231.735 442.423 231.953 442.423 232.223V233.603C442.423 233.873 442.641 234.092 442.911 234.092H445.863C446.133 234.092 446.351 233.873 446.351 233.603V232.223C446.351 231.953 446.133 231.735 445.863 231.735Z" fill="#E6E6E6"/>
<path id="Vector_38" d="M453.72 231.735H450.768C450.499 231.735 450.28 231.953 450.28 232.223V233.603C450.28 233.873 450.499 234.092 450.768 234.092H453.72C453.99 234.092 454.209 233.873 454.209 233.603V232.223C454.209 231.953 453.99 231.735 453.72 231.735Z" fill="#E6E6E6"/>
<path id="Vector_39" d="M461.577 231.735H458.625C458.355 231.735 458.137 231.953 458.137 232.223V233.603C458.137 233.873 458.355 234.092 458.625 234.092H461.577C461.847 234.092 462.065 233.873 462.065 233.603V232.223C462.065 231.953 461.847 231.735 461.577 231.735Z" fill="#E6E6E6"/>
<path id="Vector_40" d="M469.433 231.735H466.481C466.212 231.735 465.993 231.953 465.993 232.223V233.603C465.993 233.873 466.212 234.092 466.481 234.092H469.433C469.703 234.092 469.922 233.873 469.922 233.603V232.223C469.922 231.953 469.703 231.735 469.433 231.735Z" fill="#E6E6E6"/>
<path id="Vector_41" d="M416.793 236.449H386.343C386.073 236.449 385.854 236.667 385.854 236.937V238.318C385.854 238.587 386.073 238.806 386.343 238.806H416.793C417.063 238.806 417.282 238.587 417.282 238.318V236.937C417.282 236.667 417.063 236.449 416.793 236.449Z" fill="#E6E6E6"/>
<path id="Vector_42" d="M503.881 46.6143H303.279C303.071 46.6097 302.872 46.5236 302.727 46.3745C302.581 46.2254 302.499 46.0251 302.499 45.8165C302.499 45.608 302.581 45.4077 302.727 45.2586C302.872 45.1095 303.071 45.0234 303.279 45.0188H503.881C504.089 45.0234 504.288 45.1095 504.434 45.2586C504.579 45.4077 504.661 45.608 504.661 45.8165C504.661 46.0251 504.579 46.2254 504.434 46.3745C504.288 46.5236 504.089 46.6097 503.881 46.6143Z" fill="#CACACA"/>
<path id="Vector_43" d="M316.935 40.9458C319.517 40.9458 321.61 38.806 321.61 36.1665C321.61 33.527 319.517 31.3872 316.935 31.3872C314.353 31.3872 312.26 33.527 312.26 36.1665C312.26 38.806 314.353 40.9458 316.935 40.9458Z" fill="#CCCCCC"/>
<path id="Vector_44" d="M333.085 40.9458C335.667 40.9458 337.76 38.806 337.76 36.1665C337.76 33.527 335.667 31.3872 333.085 31.3872C330.503 31.3872 328.41 33.527 328.41 36.1665C328.41 38.806 330.503 40.9458 333.085 40.9458Z" fill="#CCCCCC"/>
<path id="Vector_45" d="M349.236 40.9458C351.818 40.9458 353.911 38.806 353.911 36.1665C353.911 33.527 351.818 31.3872 349.236 31.3872C346.654 31.3872 344.561 33.527 344.561 36.1665C344.561 38.806 346.654 40.9458 349.236 40.9458Z" fill="#CCCCCC"/>
<path id="Vector_46" d="M494.158 32.5718H482.685C482.458 32.5763 482.242 32.6699 482.082 32.8323C481.923 32.9947 481.834 33.213 481.834 33.4404C481.834 33.6679 481.923 33.8862 482.082 34.0486C482.242 34.211 482.458 34.3045 482.685 34.3091H494.158C494.385 34.3045 494.602 34.211 494.761 34.0486C494.92 33.8862 495.009 33.6679 495.009 33.4404C495.009 33.213 494.92 32.9947 494.761 32.8323C494.602 32.6699 494.385 32.5763 494.158 32.5718V32.5718Z" fill="#CCCCCC"/>
<path id="Vector_47" d="M494.158 35.8323H482.685C482.458 35.8368 482.242 35.9304 482.082 36.0928C481.923 36.2552 481.834 36.4735 481.834 36.7009C481.834 36.9283 481.923 37.1467 482.082 37.3091C482.242 37.4715 482.458 37.565 482.685 37.5696H494.158C494.385 37.565 494.602 37.4715 494.761 37.3091C494.92 37.1467 495.009 36.9283 495.009 36.7009C495.009 36.4735 494.92 36.2552 494.761 36.0928C494.602 35.9304 494.385 35.8368 494.158 35.8323V35.8323Z" fill="#CCCCCC"/>
<path id="Vector_48" d="M494.158 39.0889H482.685C482.458 39.0934 482.242 39.187 482.082 39.3494C481.923 39.5118 481.834 39.7301 481.834 39.9575C481.834 40.1849 481.923 40.4033 482.082 40.5657C482.242 40.7281 482.458 40.8216 482.685 40.8262H494.158C494.385 40.8216 494.602 40.7281 494.761 40.5657C494.92 40.4033 495.009 40.1849 495.009 39.9575C495.009 39.7301 494.92 39.5118 494.761 39.3494C494.602 39.187 494.385 39.0934 494.158 39.0889V39.0889Z" fill="#CCCCCC"/>
<path id="Vector_49" d="M403.375 58.7099L402.727 56.8169L485.585 13.7649L486.232 15.6579L403.375 58.7099Z" fill="#3F3D56"/>
<path id="Vector_50" d="M653.375 138.452L652.727 136.559L702.585 93.7251L703.232 95.6171L653.375 138.452Z" fill="#3F3D56"/>
<path id="Vector_51" d="M557.585 148.423L474.727 105.371L475.375 103.478L558.232 146.53L557.585 148.423Z" fill="#3F3D56"/>
<path id="Vector_52" d="M600 118.465L551.425 38.719L552.96 37.436L601.534 117.182L600 118.465Z" fill="#3F3D56"/>
<path id="Vector_53" d="M637.908 14.5539L590.601 14.3359V12.3359L637.908 12.5539V14.5539Z" fill="#3F3D56"/>
<path id="Vector_54" d="M723.605 26.9595H670.605C667.158 26.9595 663.851 25.5898 661.413 23.1519C658.975 20.7139 657.605 17.4073 657.605 13.9595C657.605 10.5117 658.975 7.20506 661.413 4.76709C663.851 2.32912 667.158 0.959473 670.605 0.959473H723.605C727.053 0.959473 730.36 2.32912 732.798 4.76709C735.236 7.20506 736.605 10.5117 736.605 13.9595C736.605 17.4073 735.236 20.7139 732.798 23.1519C730.36 25.5898 727.053 26.9595 723.605 26.9595V26.9595Z" fill="#42799C"/>
<path id="Vector_55" d="M789.605 102.959H736.605C733.158 102.959 729.851 101.59 727.413 99.1519C724.975 96.7139 723.605 93.4073 723.605 89.9595C723.605 86.5117 724.975 83.2051 727.413 80.7671C729.851 78.3291 733.158 76.9595 736.605 76.9595H789.605C793.053 76.9595 796.36 78.3291 798.798 80.7671C801.236 83.2051 802.605 86.5117 802.605 89.9595C802.605 93.4073 801.236 96.7139 798.798 99.1519C796.36 101.59 793.053 102.959 789.605 102.959V102.959Z" fill="#42799C"/>
<path id="Vector_56" d="M703.908 156.553L656.601 156.336V154.336L703.908 154.553V156.553Z" fill="#3F3D56"/>
<path id="Vector_57" d="M789.605 168.959H736.605C733.158 168.959 729.851 167.59 727.413 165.152C724.975 162.714 723.605 159.407 723.605 155.959C723.605 152.512 724.975 149.205 727.413 146.767C729.851 144.329 733.158 142.959 736.605 142.959H789.605C793.053 142.959 796.36 144.329 798.798 146.767C801.236 149.205 802.605 152.512 802.605 155.959C802.605 159.407 801.236 162.714 798.798 165.152C796.36 167.59 793.053 168.959 789.605 168.959V168.959Z" fill="#42799C"/>
<path id="Vector_58" d="M634.605 160H581.605C578.158 160 574.851 158.63 572.413 156.192C569.975 153.754 568.605 150.448 568.605 147C568.605 143.552 569.975 140.246 572.413 137.808C574.851 135.37 578.158 134 581.605 134H634.605C638.053 134 641.36 135.37 643.798 137.808C646.236 140.246 647.605 143.552 647.605 147C647.605 150.448 646.236 153.754 643.798 156.192C641.36 158.63 638.053 160 634.605 160V160Z" fill="#42799C"/>
<path id="Vector_59" d="M562.605 26H509.605C506.158 26 502.851 24.6304 500.413 22.1924C497.975 19.7544 496.605 16.4478 496.605 13C496.605 9.55219 497.975 6.24559 500.413 3.80762C502.851 1.36964 506.158 1.45314e-07 509.605 0H562.605C566.053 1.45314e-07 569.36 1.36964 571.798 3.80762C574.236 6.24559 575.605 9.55219 575.605 13C575.605 16.4478 574.236 19.7544 571.798 22.1924C569.36 24.6304 566.053 26 562.605 26V26Z" fill="#42799C"/>
<path id="Vector_60" d="M309.276 249.18H249.276C247.155 249.18 245.12 250.023 243.62 251.523C242.119 253.024 241.276 255.058 241.276 257.18C241.276 259.302 242.119 261.337 243.62 262.837C245.12 264.337 247.155 265.18 249.276 265.18H271.276V327.18H287.276V265.18H309.276C311.398 265.18 313.433 264.337 314.933 262.837C316.434 261.337 317.276 259.302 317.276 257.18C317.276 255.058 316.434 253.024 314.933 251.523C313.433 250.023 311.398 249.18 309.276 249.18V249.18Z" fill="#3F3D56"/>
<path id="Vector_61" d="M348.877 361.517H188.395C172.836 361.46 157.818 355.808 146.083 345.593C134.348 335.379 126.679 321.283 124.478 305.881L118.797 284.986C107.039 241.685 89.1299 200.296 65.616 162.083C54.8687 144.629 49.337 127.734 61.9011 111.467C62.0081 111.329 62.1133 111.192 62.2168 111.058C72.2939 97.9414 122.451 95.1021 138.802 94.5498C139.448 94.5278 140.097 94.5169 140.748 94.5171H240.566C241.218 94.5171 241.866 94.528 242.511 94.5498C251.326 94.8068 259.906 97.4451 267.342 102.185C274.779 106.925 280.793 113.589 284.748 121.471C288.967 129.518 290.93 138.557 290.427 147.63C289.924 156.702 286.975 165.469 281.892 173C246.828 225.671 236.093 258.698 247.083 280.085C257.715 300.773 290.304 311.35 349.642 313.371C365.588 313.914 372.907 326.331 372.958 337.637C373.008 348.652 365.972 360.813 350.405 361.485C349.899 361.506 349.39 361.517 348.877 361.517Z" fill="#3F3D56"/>
<path id="Vector_62" d="M215.657 504.017H275.657C277.779 504.017 279.814 503.174 281.314 501.674C282.814 500.174 283.657 498.139 283.657 496.017C283.657 493.895 282.814 491.861 281.314 490.36C279.814 488.86 277.779 488.017 275.657 488.017H253.657V353.017H237.657V488.017H215.657C213.535 488.017 211.501 488.86 210 490.36C208.5 491.861 207.657 493.895 207.657 496.017C207.657 498.139 208.5 500.174 210 501.674C211.501 503.174 213.535 504.017 215.657 504.017Z" fill="#3F3D56"/>
<path id="Vector_63" d="M269.963 449.592L280.299 455.206L307.661 417.375L292.405 409.088L269.963 449.592Z" fill="#FFB6B6"/>
<path id="Vector_64" d="M274.938 436.111L293.702 441.987L290.715 449.848L303.582 468.522C304.218 469.445 304.542 470.546 304.507 471.666C304.473 472.785 304.081 473.864 303.39 474.746C302.698 475.627 301.743 476.264 300.664 476.564C299.585 476.864 298.438 476.811 297.391 476.413L275.547 468.115L274.736 458.908L270.312 466.125L262.076 462.996L274.938 436.111Z" fill="#2F2E41"/>
<path id="Vector_65" d="M296.078 68.0755C296.323 69.7557 296.197 71.4691 295.708 73.0952C295.22 74.7213 294.38 76.2204 293.249 77.487C292.119 78.7536 290.724 79.7569 289.163 80.4261C287.603 81.0953 285.914 81.4143 284.217 81.3604L244.366 166.156L231.867 148.726L272.891 68.5449C273.17 65.6999 274.484 63.0562 276.582 61.1147C278.68 59.1733 281.418 58.069 284.276 58.0112C287.134 57.9533 289.914 58.9459 292.09 60.8008C294.265 62.6557 295.684 65.2441 296.078 68.0755Z" fill="#FFB6B6"/>
<path id="Vector_66" d="M163.828 183.301C163.828 183.301 162.76 198.114 179.513 201.02C196.266 203.925 241.052 175.605 248.408 171.256C255.763 166.908 269.469 112.196 269.469 112.196L257.549 92.0337C242.832 110.651 231.274 127.818 230.572 140.004L163.828 183.301Z" fill="#42799C"/>
<path id="Vector_67" d="M183.169 234.327L186.787 249.873C186.787 249.873 186.823 264.208 189.361 266.851C191.882 269.482 247.317 264.2 247.317 264.2C247.317 264.2 241.439 241.1 241.518 223.622L183.169 234.327Z" fill="#FFB6B6"/>
<path id="Vector_68" d="M300.277 433.18L280.277 422.18C279.896 396.155 295.55 360.937 314.116 324.048C272.593 331.189 233.42 333.477 199.537 324.838C193.974 323.369 189.213 319.77 186.282 314.82C183.352 309.869 182.487 303.964 183.874 298.38C184.006 297.832 184.159 297.29 184.332 296.753C188.387 284.381 179.294 276.625 187.657 263.017C209.654 255.505 230.549 253.383 249.657 260.017L261.63 286.488L320.972 278.809C323.839 278.467 326.746 278.695 329.524 279.48C332.303 280.266 334.898 281.594 337.161 283.387C339.424 285.181 341.31 287.405 342.709 289.93C344.109 292.456 344.995 295.233 345.316 298.103C345.395 298.747 345.448 299.394 345.472 300.043C333.473 356.296 320.018 406.912 300.277 433.18Z" fill="#2F2E41"/>
<path id="Vector_69" d="M175.114 135.904L197.975 134.554C198.939 134.498 199.897 134.743 200.715 135.256C201.533 135.769 202.171 136.525 202.539 137.418L208.999 153.079L235.85 175.271C235.85 175.271 246.48 188.799 246.505 206.271C246.53 223.742 250.277 264.18 250.277 264.18C250.277 264.18 234.762 242.342 225.185 248.15C223.556 249.138 222.983 251.159 221.277 252.18C220.425 252.69 218.459 252.195 217.599 252.705C204.403 260.538 190.641 268.191 189.356 266.849C186.831 264.215 183.768 250.752 183.768 250.752L162.842 173.865C161.708 169.819 161.482 165.573 162.182 161.43C162.882 157.287 164.491 153.351 166.891 149.903C168.353 147.845 169.885 146.313 171.309 146.06C174.505 145.379 172.805 138.216 175.114 135.904Z" fill="#42799C"/>
<path id="Vector_70" d="M369.583 482.16L379.233 475.451L357.372 434.207L343.13 444.109L369.583 482.16Z" fill="#FFB6B6"/>
<path id="Vector_71" d="M371.042 454.486L355.918 468.005C331.87 441.209 313.691 403.629 298.285 360.952C257.919 349.13 227.478 330.064 200.903 307.425C191.887 299.797 185.129 289.997 192.818 280.704C193.178 280.27 193.553 279.85 193.944 279.444C203.022 270.114 226.045 271.892 239.529 263.344L269.65 295.541L267.755 304.172L324.333 323.337C327.055 324.291 329.561 325.775 331.707 327.702C333.853 329.63 335.597 331.963 336.836 334.568C338.076 337.173 338.788 339.997 338.931 342.878C339.073 345.759 338.644 348.64 337.668 351.354C337.456 351.968 337.218 352.572 336.955 353.165L371.042 454.486Z" fill="#2F2E41"/>
<path id="Vector_72" d="M363.957 479.44L379.404 467.275L384.204 474.18L406.882 474.111C408.002 474.108 409.094 474.462 409.999 475.123C410.903 475.784 411.572 476.717 411.909 477.785C412.246 478.853 412.232 480.001 411.87 481.061C411.508 482.121 410.817 483.038 409.897 483.677L390.71 497.015L382.655 492.484L386.112 500.211L378.877 505.24L363.957 479.44Z" fill="#2F2E41"/>
<path id="Vector_73" d="M208.872 329.673C207.309 329.01 205.911 328.012 204.775 326.749C203.64 325.487 202.795 323.991 202.3 322.367C201.805 320.742 201.672 319.029 201.911 317.348C202.15 315.667 202.754 314.059 203.682 312.637L151.928 234.535L173.314 232.909L220.516 309.616C222.802 311.333 224.379 313.828 224.948 316.63C225.517 319.431 225.038 322.344 223.603 324.816C222.168 327.289 219.875 329.149 217.16 330.044C214.446 330.939 211.497 330.807 208.872 329.673Z" fill="#FFB6B6"/>
<path id="Vector_74" d="M179.115 156.811C179.115 156.811 167.012 148.203 155.827 161.009C144.641 173.815 145.575 226.796 145.47 235.339C145.437 238.015 149.3 243.788 154.623 250.456C157.013 253.45 159.696 256.624 162.454 259.779C164.049 261.605 162.674 265.406 164.277 267.18C165.87 268.945 170.441 268.685 171.957 270.323C179.151 278.098 184.995 284.017 184.995 284.017L208.415 284.305C208.68 266.895 196.757 251.354 181.44 236.335L179.115 156.811Z" fill="#42799C"/>
<path id="Vector_75" d="M155.508 81.0077C153.291 82.6081 150.958 84.2568 148.252 84.6534C145.547 85.0499 142.379 83.742 141.63 81.112C140.715 77.8962 143.619 74.9682 146.229 72.8783L154.505 66.2514C156.02 64.9073 157.731 63.8011 159.579 62.9707C160.507 62.5623 161.515 62.3678 162.528 62.4017C163.541 62.4356 164.534 62.6969 165.433 63.1664C166.322 63.767 167.043 64.5854 167.527 65.5435C168.011 66.5016 168.241 67.5676 168.196 68.6399C168.078 70.7891 167.369 72.864 166.146 74.6357C164.61 77.0303 162.605 79.0893 160.252 80.6887C157.899 82.2881 155.247 83.3949 152.455 83.9425" fill="#2F2E41"/>
<path id="Vector_76" d="M218.276 253.18H158.276C156.155 253.18 154.12 254.023 152.62 255.523C151.119 257.024 150.276 259.058 150.276 261.18C150.276 263.302 151.119 265.337 152.62 266.837C154.12 268.337 156.155 269.18 158.276 269.18H180.276V331.18H196.276V269.18H218.276C220.398 269.18 222.433 268.337 223.933 266.837C225.434 265.337 226.276 263.302 226.276 261.18C226.276 259.058 225.434 257.024 223.933 255.523C222.433 254.023 220.398 253.18 218.276 253.18V253.18Z" fill="#3F3D56"/>
<path id="Vector_77" d="M159.184 64.2236C159.426 58.2254 153.034 53.4759 147.045 53.8514C141.055 54.2269 135.906 58.4398 132.51 63.3891C129.114 68.3343 127.074 74.0622 124.399 79.4314C121.724 84.8007 118.162 90.0578 112.846 92.8402C107.531 95.6184 100.133 95.1227 96.4598 90.3792C95.3176 92.1113 94.5995 94.0883 94.3638 96.1497C94.1281 98.2112 94.3814 100.299 95.1032 102.244C96.6071 106.139 99.4117 109.393 103.041 111.455C104.486 112.312 106.029 112.991 107.637 113.476C108.3 111.687 109.233 110.009 110.404 108.501C109.875 110.286 109.673 112.152 109.808 114.008C112.286 114.483 114.836 114.443 117.298 113.89C119.716 113.349 121.975 112.252 123.895 110.687C125.815 109.121 127.344 107.129 128.36 104.869C130.606 99.5512 129.462 93.4881 129.943 87.7358C130.419 81.9823 133.886 75.4144 139.659 75.3206C144.055 75.2483 143.473 75.6108 146.259 79.0124" fill="#2F2E41"/>
<path id="Vector_78" d="M199.105 95.7419C199.105 102.638 196.366 109.251 191.49 114.127C186.614 119.003 180.001 121.742 173.105 121.742C158.746 121.742 145.105 105.101 145.105 90.7419C145.105 76.3825 158.746 69.7419 173.105 69.7419C180.001 69.7419 186.614 72.4812 191.49 77.3571C196.366 82.2331 199.105 88.8463 199.105 95.7419V95.7419Z" fill="#2F2E41"/>
<path id="Vector_79" d="M185.918 126.9C199.339 124.154 207.993 111.047 205.247 97.6257C202.5 84.2044 189.394 75.5504 175.972 78.2967C162.551 81.043 153.897 94.1495 156.643 107.571C159.39 120.992 172.496 129.646 185.918 126.9Z" fill="#FFB6B6"/>
<path id="Vector_80" d="M212.105 98.7419C204.762 100.747 197.349 102.849 194.485 98.7419C193.929 96.019 192.875 93.4221 191.375 91.0819C191.093 93.7027 190.479 96.2767 189.545 98.7419C180.268 100.758 171.598 101.24 164.105 98.7419C163.075 100.605 162.477 102.676 162.355 104.802C161.985 104.569 161.597 104.365 161.195 104.192C160.957 104.057 160.693 103.975 160.421 103.951C160.148 103.927 159.874 103.961 159.615 104.052C159.437 104.16 159.286 104.307 159.173 104.482C159.061 104.657 158.99 104.855 158.965 105.062C158.916 105.479 158.936 105.902 159.025 106.312C159.13 107.742 159.558 109.13 160.275 110.372C160.559 110.8 160.929 111.164 161.361 111.441C161.793 111.718 162.278 111.902 162.785 111.982C163.825 117.832 172.105 125.742 172.105 125.742C147.105 126.742 147.105 109.782 147.105 93.7419L150.105 87.7419H160.105V74.7419H188.105C194.47 74.7436 200.574 77.2727 205.074 81.7732C209.575 86.2737 212.104 92.3773 212.105 98.7419V98.7419Z" fill="#2F2E41"/>
<path id="Vector_81" d="M439.94 506.911L1.19023 507.219C1.03358 507.219 0.87838 507.189 0.733521 507.129C0.588661 507.069 0.457001 506.982 0.346069 506.871C0.235138 506.761 0.14712 506.629 0.0870667 506.484C0.0270129 506.34 -0.00390625 506.185 -0.00390625 506.028C-0.00390625 505.871 0.0270129 505.716 0.0870667 505.572C0.14712 505.427 0.235138 505.295 0.346069 505.185C0.457001 505.074 0.588661 504.987 0.733521 504.927C0.87838 504.867 1.03358 504.837 1.19023 504.837L439.94 504.53C440.256 504.53 440.559 504.655 440.782 504.879C441.005 505.102 441.131 505.405 441.131 505.721C441.131 506.036 441.005 506.339 440.782 506.563C440.559 506.786 440.256 506.911 439.94 506.911Z" fill="#CACACA"/>
<path id="Vector_82" d="M732.94 506.911L506.19 507.219C506.034 507.219 505.878 507.189 505.734 507.129C505.589 507.069 505.457 506.982 505.346 506.871C505.235 506.761 505.147 506.629 505.087 506.484C505.027 506.34 504.996 506.185 504.996 506.028C504.996 505.871 505.027 505.716 505.087 505.572C505.147 505.427 505.235 505.295 505.346 505.185C505.457 505.074 505.589 504.987 505.734 504.927C505.878 504.867 506.034 504.837 506.19 504.837L732.94 504.53C733.256 504.53 733.559 504.655 733.782 504.879C734.005 505.102 734.131 505.405 734.131 505.721C734.131 506.036 734.005 506.339 733.782 506.563C733.559 506.786 733.256 506.911 732.94 506.911Z" fill="#CACACA"/>
<path id="Vector_83" d="M449.968 148H364.015C360.429 147.996 356.992 146.57 354.456 144.035C351.921 141.499 350.495 138.062 350.491 134.477V77.5235C350.495 73.9381 351.921 70.5006 354.457 67.9654C356.992 65.4301 360.429 64.004 364.015 64H449.968C453.553 64.004 456.991 65.4301 459.526 67.9654C462.061 70.5006 463.487 73.9381 463.491 77.5235V134.477C463.487 138.062 462.061 141.499 459.526 144.035C456.991 146.57 453.553 147.996 449.968 148ZM364.015 66C360.959 66.0035 358.03 67.2187 355.87 69.379C353.71 71.5393 352.495 74.4683 352.491 77.5235V134.477C352.495 137.532 353.71 140.461 355.87 142.621C358.03 144.781 360.959 145.997 364.015 146H449.968C453.023 145.997 455.952 144.781 458.112 142.621C460.273 140.461 461.488 137.532 461.491 134.477V77.5235C461.488 74.4683 460.273 71.5393 458.112 69.379C455.952 67.2187 453.023 66.0035 449.968 66H364.015Z" fill="#E6E6E6"/>
<path id="Vector_84" d="M389.482 82H366.491V84H389.482V82Z" fill="#E6E6E6"/>
<path id="Vector_85" d="M417.491 90H366.491V92H417.491V90Z" fill="#E6E6E6"/>
<path id="Vector_86" d="M417.491 97H366.491V99H417.491V97Z" fill="#E6E6E6"/>
<path id="Vector_87" d="M431.491 104H366.491V106H431.491V104Z" fill="#E6E6E6"/>
<path id="Vector_88" d="M400.491 111H366.491V113H400.491V111Z" fill="#E6E6E6"/>
<path id="Vector_89" d="M428.491 118H366.491V120H428.491V118Z" fill="#E6E6E6"/>
<path id="Vector_90" d="M377.491 125H366.491V127H377.491V125Z" fill="#E6E6E6"/>
</g>
<defs>
<clipPath id="clip0_15_622">
<rect width="802.605" height="507.219" fill="white"/>
</clipPath>
</defs>
</svg>
