<svg width="440" height="466" viewBox="0 0 440 466" fill="none" xmlns="http://www.w3.org/2000/svg">
<g id="Group 3">
<path id="Vector" d="M101.306 295.339C100.566 295.373 99.8337 295.179 99.2077 294.783C98.5818 294.386 98.0928 293.807 97.807 293.124C97.5212 292.44 97.4524 291.685 97.6099 290.961C97.7675 290.237 98.1438 289.579 98.6878 289.076C98.7789 288.714 98.8442 288.454 98.9353 288.092C98.9027 288.013 98.87 287.935 98.837 287.856C98.0914 286.095 96.8421 284.593 95.2459 283.54C93.6498 282.487 91.778 281.929 89.8656 281.936C87.9533 281.943 86.0856 282.515 84.4974 283.58C82.9091 284.645 81.6709 286.156 80.9385 287.922C78.0111 294.973 74.284 302.036 73.3663 309.49C72.9622 312.785 73.1326 316.126 73.8702 319.363C66.9946 304.364 63.4243 288.063 63.4013 271.564C63.3999 267.423 63.6299 263.286 64.0903 259.172C64.4709 255.799 64.9988 252.449 65.6741 249.124C69.3593 231.083 77.2716 214.173 88.7611 199.783C94.322 196.749 98.8192 192.083 101.647 186.414C102.671 184.376 103.395 182.201 103.796 179.956C103.169 180.038 102.531 180.089 101.904 180.131C101.708 180.141 101.503 180.151 101.307 180.161L101.234 180.165C100.544 180.196 99.8605 180.027 99.2649 179.678C98.6693 179.329 98.1871 178.816 97.8765 178.2C97.5658 177.584 97.4399 176.891 97.5139 176.205C97.5879 175.518 97.8586 174.868 98.2935 174.332C98.5644 173.999 98.8354 173.666 99.1065 173.333C99.5179 172.819 99.9395 172.315 100.351 171.801C100.398 171.752 100.443 171.7 100.485 171.646C100.958 171.06 101.431 170.484 101.904 169.898C101.04 168.558 99.8788 167.435 98.5101 166.618C93.7693 163.841 87.2288 165.764 83.8042 170.052C80.3695 174.341 79.7216 180.357 80.9145 185.715C82.0876 190.274 84.0281 194.6 86.6529 198.508C86.3957 198.837 86.1284 199.156 85.8713 199.485C81.1716 205.528 77.0754 212.017 73.6416 218.859C74.4766 211.194 73.48 203.44 70.7336 196.235C67.9501 189.52 62.7329 183.865 58.1386 178.06C52.62 171.087 41.3037 174.13 40.3314 182.969C40.322 183.055 40.3128 183.14 40.3039 183.226C40.9863 183.611 41.6543 184.02 42.3079 184.452C43.1289 185 43.7652 185.784 44.1332 186.701C44.5011 187.617 44.5838 188.623 44.3702 189.587C44.1566 190.551 43.6567 191.428 42.9361 192.103C42.2156 192.779 41.3078 193.22 40.3319 193.371L40.2319 193.386C40.475 195.846 40.9048 198.283 41.5174 200.678C43.2925 207.362 46.4294 213.607 50.7314 219.022C55.0333 224.437 60.4076 228.905 66.5172 232.146C66.9183 232.352 67.3091 232.557 67.7102 232.753C64.2602 242.53 62.0962 252.714 61.2725 263.049C60.8062 269.146 60.8337 275.271 61.3548 281.364L61.3239 281.148C60.0075 274.373 56.3933 268.26 51.0915 263.84C43.2171 257.372 32.0921 254.99 23.5971 249.791C22.6942 249.211 21.6445 248.901 20.5716 248.899C19.4987 248.896 18.4475 249.201 17.5418 249.776C16.6362 250.351 15.914 251.173 15.4603 252.146C15.0066 253.118 14.8404 254.199 14.9814 255.263C14.9928 255.339 15.0043 255.414 15.0161 255.49C16.2825 256.006 17.5155 256.6 18.7079 257.269C19.3903 257.654 20.0584 258.063 20.7119 258.495C21.533 259.043 22.1692 259.827 22.5372 260.744C22.9052 261.66 22.9878 262.666 22.7742 263.63C22.5607 264.594 22.0608 265.471 21.3402 266.147C20.6196 266.822 19.7119 267.264 18.7359 267.414L18.6359 267.429C18.5639 267.44 18.5023 267.45 18.4304 267.46C20.5941 272.627 23.631 277.382 27.408 281.518C32.074 286.525 37.7133 290.526 43.9804 293.276C50.2474 296.025 57.0101 297.466 63.8538 297.51H63.8641C65.7218 305.582 68.4135 313.44 71.8958 320.956H100.587C100.69 320.638 100.783 320.309 100.875 319.99C98.2197 320.157 95.5534 319.998 92.9362 319.517C95.065 316.905 97.1937 314.272 99.3225 311.66C99.37 311.611 99.4146 311.56 99.4562 311.506C100.536 310.169 101.626 308.842 102.706 307.505L102.706 307.504C102.764 303.406 102.294 299.318 101.307 295.34L101.306 295.339Z" fill="#F2F2F2"/>
<path id="Vector_2" d="M439.67 321.344C439.671 321.501 439.64 321.656 439.58 321.8C439.521 321.945 439.433 322.076 439.323 322.187C439.212 322.297 439.081 322.385 438.936 322.445C438.791 322.504 438.636 322.535 438.48 322.534H1.19C0.874395 322.534 0.571725 322.409 0.348557 322.186C0.125388 321.963 0 321.66 0 321.344C0 321.029 0.125388 320.726 0.348557 320.503C0.571725 320.28 0.874395 320.154 1.19 320.154H438.48C438.636 320.154 438.791 320.184 438.936 320.244C439.081 320.304 439.212 320.391 439.323 320.502C439.433 320.612 439.521 320.744 439.58 320.888C439.64 321.033 439.671 321.188 439.67 321.344V321.344Z" fill="#CCCCCC"/>
<g id="arm1">
<path id="Vector_3" d="M229.151 206.478C228.137 205.122 226.837 204.005 225.345 203.205C223.852 202.406 222.202 201.944 220.511 201.851C218.82 201.758 217.129 202.038 215.558 202.669C213.987 203.3 212.573 204.269 211.417 205.505L186.631 196.214L177.312 209.899L212.498 222.528C214.704 224.334 217.496 225.267 220.345 225.151C223.194 225.035 225.901 223.879 227.954 221.9C230.007 219.922 231.262 217.259 231.483 214.416C231.704 211.574 230.874 208.749 229.151 206.478L229.151 206.478Z" fill="#FFB6B6"/>
<path id="Vector_4" d="M167.198 217.269C155.125 216.242 139.393 207.773 121.17 192.412C120.153 191.571 119.322 190.528 118.729 189.349C118.136 188.17 117.794 186.881 117.725 185.564C117.067 176.38 126.949 164.882 127.916 163.782L139.38 139.056C139.523 138.651 143.457 127.866 151.309 124.578C152.961 123.901 154.74 123.59 156.524 123.665C158.307 123.741 160.053 124.202 161.642 125.016C175.517 131.45 160.907 170.761 158.923 175.911L177.134 186.456L188.527 195.161L204.878 198.292L198.634 218.641L173.529 217.071C171.435 217.398 169.309 217.465 167.198 217.269V217.269Z" fill="#2F2E41"/>
</g>
<g id="leg2">
<path id="Vector_5" d="M387.812 308.378L393.379 294.129L341.068 265.876L314.642 282.486L387.812 308.378Z" fill="#FFB6B6"/>
<path id="Vector_6" d="M87.2959 265.97C87.2959 265.97 93.6423 306.486 123.642 309.486C153.642 312.486 181.296 298.97 181.296 298.97L265.296 273.1C265.296 273.1 354.642 298.486 369.642 302.486C369.642 302.486 379.989 279.002 379.642 277.486C376.452 263.528 372.296 272.97 372.296 272.97L277.296 230.97C277.296 230.97 262.296 226.97 236.296 237.97C210.296 248.97 140.642 275.486 140.642 275.486L87.2959 265.97Z" fill="#2F2E41"/>
<path id="Vector_7" d="M379.402 309.165L386.859 286.116L396.509 289.887L419.666 274.251C420.81 273.479 422.17 273.092 423.549 273.148C424.928 273.203 426.253 273.698 427.331 274.56C428.408 275.422 429.182 276.606 429.539 277.939C429.897 279.272 429.818 280.685 429.316 281.97L418.838 308.786L407.486 309.678L416.327 315.212L412.376 325.323L379.402 309.165Z" fill="#2F2E41"/>
</g>
<g id="leg1">
<path id="Vector_8" d="M229.058 433.653L244.346 434.194L253.706 375.483L231.142 374.685L229.058 433.653Z" fill="#FFB6B6"/>
<path id="Vector_9" d="M225.535 425.977L249.753 425.39L249.387 435.744L271.802 452.426C272.909 453.249 273.724 454.406 274.127 455.725C274.531 457.045 274.502 458.459 274.045 459.761C273.588 461.063 272.727 462.185 271.587 462.963C270.447 463.741 269.088 464.134 267.709 464.086L238.937 463.067L234.34 452.65L232.042 462.823L221.193 462.439L225.535 425.977Z" fill="#2F2E41"/>
<path id="Vector_10" d="M86.5032 264.545C86.5032 264.545 82.0514 313.135 111.357 320.218C139.215 326.951 177.449 319.285 177.449 319.285L223.073 313.998C223.073 313.998 225.74 372.667 226.069 401.665C235.364 402.821 244.723 403.383 254.09 403.347C256.09 403.324 256.211 402.275 256.211 402.275L258.931 300.794C259.153 296.38 258.449 291.969 256.863 287.845C255.278 283.72 252.846 279.973 249.725 276.845C246.604 273.716 242.863 271.276 238.742 269.681C234.621 268.086 230.212 267.371 225.798 267.583C223.642 267.689 221.382 267.868 219.017 268.118C190.947 271.132 155.996 265.799 155.996 265.799L86.5032 264.545Z" fill="#2F2E41"/>
</g>
<path id="Vector_11" d="M168.7 193.075C168.7 193.075 180.564 264.819 172.547 270.546C164.529 276.273 153.534 276.295 153.534 276.295L150.978 236.683L168.7 193.075Z" fill="#2F2E41"/>
<path id="Vector_12" d="M148.913 104.963L164.776 120.036C172.149 127.043 177.036 136.262 178.696 146.296C180.356 156.331 178.699 166.633 173.975 175.64L166.393 190.1L148.913 104.963Z" fill="#2F2E41"/>
<path id="Vector_13" d="M145.366 107.498L166.86 131.98C171.577 137.353 174.501 144.064 175.222 151.177V151.177C175.55 154.407 175.418 157.668 174.831 160.861L166.731 204.895L160.642 268.486C160.642 268.486 113.639 282.728 108.828 260.736C104.017 238.745 145.366 107.498 145.366 107.498Z" fill="#42799C"/>
<path id="Vector_14" d="M125.191 274.463C94.2929 269.313 86.724 268.291 86.2526 268.111L85.7803 267.931L88.8773 249.347L101.955 217.212C102.804 206.7 108.313 192.458 105.161 181.018C96.0006 147.761 110.884 100.765 117.69 97.1644L136.559 84.7944L143.183 90.8671L154.667 106.944C164.117 149.035 170.643 188.267 170.325 190.665L164.493 231.872L157.621 247.678C136.774 257.737 150.792 278.729 125.191 274.463Z" fill="#2F2E41"/>
<path id="Vector_15" d="M181.131 244.233L229.645 231.253L233.917 230.24L236.963 229.516L240.512 228.677L240.54 228.671C241.056 228.553 241.598 228.643 242.047 228.921L260.061 250.519C260.224 250.619 260.368 250.748 260.485 250.9C260.533 250.939 260.576 250.984 260.613 251.034C260.812 251.306 260.942 251.623 260.99 251.957C261.038 252.291 261.003 252.631 260.889 252.948C260.774 253.265 260.584 253.549 260.333 253.775C260.083 254.002 259.781 254.163 259.454 254.244L187.081 270.9C186.706 270.985 186.315 270.962 185.952 270.834C185.59 270.706 185.271 270.478 185.032 270.176L184.298 269.224L180.293 249.939L180.008 247.434C179.826 247.203 179.698 246.934 179.632 246.647C179.516 246.128 179.608 245.585 179.888 245.133C180.168 244.682 180.615 244.358 181.131 244.233V244.233Z" fill="#E6E6E6"/>
<path id="Vector_16" opacity="0.17" d="M184.298 269.223L185.037 270.177C185.275 270.478 185.593 270.705 185.954 270.833C186.316 270.961 186.706 270.985 187.08 270.901L259.456 254.245C259.783 254.163 260.085 254.003 260.335 253.777C260.585 253.551 260.776 253.267 260.89 252.95C261.004 252.633 261.039 252.292 260.99 251.959C260.942 251.625 260.812 251.309 260.612 251.037C260.577 250.986 260.535 250.941 260.486 250.902L184.298 269.223Z" fill="black"/>
<path id="Vector_17" d="M240.152 228.536L238.842 136.271C238.787 135.716 238.955 135.161 239.309 134.729L248.583 115.428L249.546 114.258C249.904 113.83 250.416 113.559 250.972 113.504L252.99 113.316C253.546 113.261 254.101 113.43 254.533 113.784C254.965 114.139 255.238 114.65 255.293 115.206V115.206L257.111 212.83L257.112 212.837L258.013 222.237L259.08 233.399L259.083 233.413L260.749 250.779C260.78 251.076 260.747 251.376 260.651 251.659C260.554 251.942 260.398 252.2 260.192 252.416C259.991 252.636 259.746 252.809 259.473 252.926C259.2 253.043 258.905 253.101 258.608 253.095L257.294 253.068C256.79 253.055 256.307 252.865 255.93 252.531L255.196 251.87L254.855 251.56L240.848 229.907C240.45 229.555 240.201 229.065 240.152 228.536V228.536Z" fill="#E6E6E6"/>
<path id="Vector_18" opacity="0.17" d="M248.586 115.428L254.853 251.564L255.196 251.87L255.928 252.528C256.305 252.863 256.788 253.054 257.293 253.066L258.608 253.093C258.905 253.098 259.201 253.04 259.474 252.923C259.748 252.806 259.994 252.633 260.196 252.415C260.398 252.196 260.552 251.938 260.647 251.656C260.742 251.374 260.777 251.075 260.749 250.779L255.29 115.209C255.236 114.653 254.964 114.14 254.533 113.785C254.102 113.429 253.547 113.259 252.991 113.312L250.968 113.506C250.693 113.531 250.427 113.611 250.183 113.74C249.94 113.87 249.724 114.046 249.55 114.26L248.586 115.428Z" fill="black"/>
<path id="Vector_19" d="M249.113 120.929L240.632 141.864L241.681 204.491L250.863 217.77L249.113 120.929Z" fill="#42799C"/>
<path id="Vector_20" d="M186.723 243.68C186.259 243.812 185.866 244.124 185.631 244.545C185.397 244.967 185.339 245.465 185.471 245.929L189.207 261.5L192.708 260.503L188.972 244.932C188.839 244.468 188.528 244.075 188.106 243.84C187.685 243.606 187.187 243.548 186.723 243.68V243.68Z" fill="#2F2E41"/>
<path id="Vector_21" d="M193.724 241.686C193.26 241.818 192.867 242.13 192.632 242.551C192.397 242.973 192.34 243.471 192.472 243.935L193.269 246.736L196.77 245.739L195.973 242.938C195.84 242.474 195.529 242.081 195.107 241.847C194.686 241.612 194.188 241.554 193.724 241.686Z" fill="#2F2E41"/>
<path id="Vector_22" d="M200.726 239.692C200.262 239.825 199.869 240.136 199.634 240.558C199.399 240.979 199.342 241.477 199.474 241.941L200.271 244.742L203.772 243.745L202.975 240.945C202.842 240.48 202.531 240.088 202.109 239.853C201.688 239.618 201.19 239.56 200.726 239.692V239.692Z" fill="#2F2E41"/>
<path id="Vector_23" d="M207.728 237.699C207.264 237.831 206.871 238.142 206.636 238.564C206.401 238.986 206.344 239.483 206.476 239.948L207.273 242.748L210.774 241.752L209.977 238.951C209.844 238.487 209.533 238.094 209.111 237.859C208.69 237.625 208.192 237.567 207.728 237.699V237.699Z" fill="#2F2E41"/>
<path id="Vector_24" d="M214.73 235.705C214.265 235.838 213.873 236.149 213.638 236.57C213.403 236.992 213.346 237.49 213.478 237.954L214.275 240.755L217.776 239.758L216.979 236.957C216.846 236.493 216.535 236.1 216.113 235.866C215.692 235.631 215.194 235.573 214.73 235.705V235.705Z" fill="#2F2E41"/>
<path id="Vector_25" d="M221.732 233.711C221.267 233.844 220.875 234.155 220.64 234.577C220.405 234.998 220.348 235.496 220.48 235.96L221.277 238.761L224.778 237.764L223.98 234.963C223.848 234.499 223.537 234.107 223.115 233.872C222.694 233.637 222.196 233.579 221.732 233.711Z" fill="#2F2E41"/>
<path id="Vector_26" d="M228.734 231.718C228.269 231.85 227.877 232.161 227.642 232.583C227.407 233.005 227.35 233.502 227.482 233.967L228.279 236.767L231.78 235.77L230.982 232.97C230.85 232.505 230.539 232.113 230.117 231.878C229.695 231.643 229.198 231.586 228.734 231.718V231.718Z" fill="#2F2E41"/>
<path id="Vector_27" d="M235.736 229.724C235.271 229.856 234.879 230.168 234.644 230.589C234.409 231.011 234.351 231.509 234.483 231.973L235.281 234.774L238.782 233.777L237.984 230.976C237.852 230.512 237.541 230.119 237.119 229.884C236.697 229.65 236.2 229.592 235.736 229.724V229.724Z" fill="#2F2E41"/>
<path id="Vector_28" d="M195.194 248.071C194.729 248.204 194.337 248.515 194.102 248.937C193.867 249.358 193.809 249.856 193.941 250.32L194.739 253.121L198.24 252.124L197.442 249.323C197.31 248.859 196.999 248.467 196.577 248.232C196.155 247.997 195.658 247.939 195.194 248.071V248.071Z" fill="#2F2E41"/>
<path id="Vector_29" d="M202.195 246.078C201.731 246.21 201.339 246.521 201.104 246.943C200.869 247.365 200.811 247.862 200.943 248.327L201.741 251.127L205.242 250.131L204.444 247.33C204.312 246.866 204.001 246.473 203.579 246.238C203.157 246.003 202.66 245.946 202.195 246.078Z" fill="#2F2E41"/>
<path id="Vector_30" d="M209.197 244.084C208.733 244.216 208.341 244.528 208.106 244.949C207.871 245.371 207.813 245.869 207.945 246.333L208.743 249.134L212.244 248.137L211.446 245.336C211.314 244.872 211.003 244.479 210.581 244.245C210.159 244.01 209.662 243.952 209.197 244.084Z" fill="#2F2E41"/>
<path id="Vector_31" d="M216.199 242.09C215.735 242.223 215.343 242.534 215.108 242.956C214.873 243.377 214.815 243.875 214.947 244.339L215.745 247.14L219.246 246.143L218.448 243.342C218.316 242.878 218.005 242.486 217.583 242.251C217.161 242.016 216.664 241.958 216.199 242.09Z" fill="#2F2E41"/>
<path id="Vector_32" d="M223.201 240.097C222.737 240.229 222.345 240.54 222.11 240.962C221.875 241.384 221.817 241.881 221.949 242.345L222.747 245.146L226.248 244.149L225.45 241.349C225.318 240.884 225.007 240.492 224.585 240.257C224.163 240.022 223.666 239.965 223.201 240.097V240.097Z" fill="#2F2E41"/>
<path id="Vector_33" d="M230.202 238.103C229.738 238.235 229.346 238.546 229.111 238.968C228.876 239.39 228.818 239.888 228.95 240.352L229.748 243.152L233.249 242.156L232.451 239.355C232.319 238.891 232.008 238.498 231.586 238.263C231.164 238.029 230.667 237.971 230.202 238.103V238.103Z" fill="#2F2E41"/>
<path id="Vector_34" d="M237.204 236.109C236.74 236.242 236.348 236.553 236.113 236.975C235.878 237.396 235.82 237.894 235.952 238.358L236.75 241.159L240.251 240.162L239.453 237.361C239.321 236.897 239.01 236.504 238.588 236.27C238.166 236.035 237.668 235.977 237.204 236.109Z" fill="#2F2E41"/>
<path id="Vector_35" d="M196.663 254.457C196.199 254.589 195.806 254.9 195.572 255.322C195.337 255.744 195.279 256.241 195.411 256.706L196.209 259.506L199.71 258.509L198.912 255.709C198.78 255.245 198.469 254.852 198.047 254.617C197.625 254.382 197.127 254.325 196.663 254.457V254.457Z" fill="#2F2E41"/>
<path id="Vector_36" d="M203.665 252.463C203.201 252.595 202.808 252.907 202.574 253.328C202.339 253.75 202.281 254.248 202.413 254.712L203.211 257.513L206.712 256.516L205.914 253.715C205.782 253.251 205.471 252.858 205.049 252.623C204.627 252.389 204.129 252.331 203.665 252.463V252.463Z" fill="#2F2E41"/>
<path id="Vector_37" d="M210.667 250.469C210.203 250.602 209.81 250.913 209.576 251.335C209.341 251.756 209.283 252.254 209.415 252.718L210.213 255.519L213.714 254.522L212.916 251.721C212.784 251.257 212.472 250.865 212.051 250.63C211.629 250.395 211.131 250.337 210.667 250.469Z" fill="#2F2E41"/>
<path id="Vector_38" d="M217.668 248.475C217.204 248.608 216.811 248.919 216.577 249.341C216.342 249.762 216.284 250.26 216.416 250.724L217.214 253.525L220.715 252.528L219.917 249.727C219.785 249.263 219.473 248.871 219.052 248.636C218.63 248.401 218.132 248.343 217.668 248.475Z" fill="#2F2E41"/>
<path id="Vector_39" d="M224.67 246.482C224.206 246.614 223.813 246.925 223.579 247.347C223.344 247.769 223.286 248.266 223.418 248.731L224.216 251.531L227.716 250.535L226.919 247.734C226.787 247.27 226.475 246.877 226.054 246.642C225.632 246.407 225.134 246.35 224.67 246.482V246.482Z" fill="#2F2E41"/>
<path id="Vector_40" d="M231.672 244.488C231.208 244.62 230.815 244.932 230.581 245.353C230.346 245.775 230.288 246.273 230.42 246.737L231.217 249.538L234.718 248.541L233.921 245.74C233.789 245.276 233.477 244.883 233.056 244.649C232.634 244.414 232.136 244.356 231.672 244.488Z" fill="#2F2E41"/>
<path id="Vector_41" d="M238.674 242.494C238.21 242.627 237.817 242.938 237.582 243.36C237.348 243.781 237.29 244.279 237.422 244.743L238.219 247.544L241.72 246.547L240.923 243.747C240.791 243.282 240.479 242.89 240.058 242.655C239.636 242.42 239.138 242.362 238.674 242.494V242.494Z" fill="#2F2E41"/>
<g id="arms2">
<path id="Vector_42" d="M218.102 230.411C217.163 229.002 215.927 227.816 214.48 226.936C213.033 226.057 211.41 225.505 209.727 225.32C208.044 225.136 206.34 225.322 204.737 225.867C203.134 226.412 201.669 227.301 200.447 228.473L176.205 217.845L166.153 231.002L200.599 245.53C202.704 247.453 205.441 248.537 208.291 248.577C211.142 248.616 213.908 247.609 216.066 245.745C218.224 243.881 219.623 241.291 219.998 238.465C220.373 235.639 219.699 232.773 218.102 230.411V230.411Z" fill="#FFB6B6"/>
<path id="Vector_43" d="M155.653 237.81C143.655 236.126 128.408 226.812 111.048 210.481C110.079 209.586 109.306 208.499 108.778 207.29C108.25 206.081 107.979 204.775 107.982 203.455C107.825 194.25 118.319 183.307 119.344 182.261L132.14 158.197C132.304 157.8 136.821 147.246 144.84 144.391C146.526 143.805 148.32 143.591 150.096 143.763C151.873 143.936 153.592 144.491 155.134 145.391C168.637 152.571 151.907 191.028 149.644 196.062L167.253 207.584L178.155 216.897L194.312 220.915L186.967 240.893L161.986 237.957C159.877 238.17 157.75 238.12 155.653 237.81V237.81Z" fill="#2F2E41"/>
</g>
<path id="Vector_44" d="M179.314 55.7903C181.337 38.9107 169.591 23.6233 153.079 21.645C136.568 19.6667 121.543 31.7466 119.52 48.6262C117.498 65.5058 129.244 80.7932 145.755 82.7715C162.267 84.7499 177.292 72.67 179.314 55.7903Z" fill="#FFB6B6"/>
<path id="Vector_45" d="M71.0038 29.368C76.7957 24.0506 80.1538 16.4774 85.0227 10.2346C89.8916 3.99175 97.6829 -1.18423 104.964 1.27669C109.983 2.97318 113.418 7.99298 114.825 13.2994C116.232 18.6056 115.941 24.2366 115.638 29.7509C116.861 18.4907 125.575 8.47676 136.211 6.11132C146.846 3.74581 158.58 9.21164 163.91 19.0142C167.02 16.7557 170.849 15.7165 174.674 16.0935C178.498 16.4705 182.051 18.2375 184.66 21.0596C189.782 26.8735 189.882 36.7833 184.88 42.8171C179.878 48.8508 170.45 50.1922 164.181 45.7623L161.55 47.6585C162.325 52.4843 159.077 57.686 154.518 58.9214C150.821 59.9233 145.871 59.0897 144.107 62.6324C142.875 65.1077 144.268 68.0744 145.864 70.2812C147.459 72.4879 149.39 74.8006 149.281 77.5766C149.116 81.7653 144.481 84.158 140.478 84.5663C130.828 85.551 120.922 79.9498 116.499 71.0073C116.414 70.8349 116.319 70.6611 116.216 70.4861C113.643 66.2357 111.963 61.5053 111.28 56.5839C110.596 51.6625 110.923 46.6534 112.241 41.8627C112.776 39.9823 112.639 38.5198 111.372 37.9075C105.895 35.2609 89.3975 37.4616 84.1082 40.6032C78.8184 43.7448 74.3496 48.2056 69.2096 51.6088C64.0691 55.0119 57.7577 57.3559 51.9631 55.5672C47.3223 54.1346 43.6988 50.2066 41.4817 45.7266C39.265 41.2467 38.2828 36.2167 37.46 31.2363C47.225 38.5539 61.8873 37.7372 71.0038 29.368Z" fill="#2F2E41"/>
<path id="Vector_46" d="M66.4502 229.706L66.4653 229.686L66.4502 229.727V229.706Z" fill="#2F2E41"/>
</g>
</svg>
